<svg width="58" height="73" viewBox="0 0 58 73" fill="none" xmlns="http://www.w3.org/2000/svg">
<g id="Group">
<path id="Vector" d="M26.0533 45.7946C26.001 45.7946 25.948 45.7898 25.8947 45.7802C17.7224 44.3248 11.791 37.2333 11.791 28.9185C11.791 19.4745 19.4743 11.791 28.9185 11.791C38.3627 11.791 46.046 19.4743 46.046 28.9185C46.046 34.8854 43.016 40.3285 37.9408 43.4789C37.7383 43.599 37.4967 43.6349 37.268 43.5789C37.0393 43.5229 36.8417 43.3795 36.7175 43.1795C36.5933 42.9794 36.5526 42.7386 36.6039 42.5088C36.6553 42.279 36.7947 42.0785 36.9922 41.9504C41.5349 39.1307 44.2471 34.2589 44.2471 28.9185C44.2471 20.4663 37.3707 13.5899 28.9185 13.5899C20.4663 13.5899 13.5899 20.4663 13.5899 28.9185C13.5899 36.3602 18.8974 42.7068 26.2099 44.0092C26.4307 44.0492 26.6287 44.1702 26.7649 44.3486C26.9011 44.527 26.9657 44.7498 26.9461 44.9734C26.9265 45.1969 26.8241 45.4051 26.6589 45.557C26.4937 45.709 26.2777 45.7937 26.0533 45.7946Z" fill="url(#paint0_linear_2932_1162)"/>
<path id="Vector_2" d="M30.1673 66.7065C30.0246 66.7067 29.8839 66.6729 29.7568 66.6079C29.6298 66.5429 29.52 66.4485 29.4367 66.3326C28.485 65.011 25.2663 60.5861 23.8054 59.1249C21.9324 57.2544 16.425 51.7448 16.425 51.7448C15.5779 50.8975 15.1255 49.7707 15.1514 48.5719C15.1776 47.3736 15.6801 46.2665 16.5661 45.4546C18.2879 43.8798 20.9632 43.9726 22.657 45.6666L25.1509 48.1603V28.8227C25.1509 27.804 25.5512 26.8499 26.2782 26.1357C27.0049 25.4219 27.9722 25.0422 28.9853 25.0571C31.0238 25.0942 32.6821 26.8255 32.6821 28.916V39.948C33.2941 39.5727 34.0012 39.3816 34.7189 39.3975C36.17 39.4251 37.4565 40.319 38.0571 41.6262C38.7358 41.0881 39.5818 40.8053 40.4476 40.827C41.9201 40.8536 43.1936 41.7653 43.787 43.0581C44.4657 42.5197 45.3119 42.2369 46.1778 42.2589C48.2149 42.2958 49.872 44.0271 49.872 46.1178V54.8698C49.872 57.382 48.3995 63.5688 45.5852 66.4369C45.5026 66.5219 45.4041 66.5897 45.2952 66.6364C45.1864 66.6832 45.0694 66.708 44.9509 66.7094C44.8325 66.7108 44.7149 66.6888 44.605 66.6446C44.495 66.6005 44.3949 66.5351 44.3104 66.4521C44.2258 66.3692 44.1585 66.2703 44.1122 66.1612C44.0659 66.0522 44.0417 65.9351 44.0408 65.8166C44.0399 65.6982 44.0625 65.5807 44.1071 65.471C44.1518 65.3612 44.2177 65.2614 44.301 65.1772C46.641 62.7927 48.0731 57.1484 48.0731 54.8698V46.118C48.0731 45.0013 47.2084 44.0769 46.1452 44.0575C45.8836 44.0516 45.6235 44.0985 45.3804 44.1953C45.1372 44.2921 44.9161 44.4368 44.7301 44.6209C44.5433 44.8033 44.395 45.0213 44.294 45.262C44.1931 45.5027 44.1414 45.7613 44.1422 46.0223C44.1422 46.2609 44.0475 46.4897 43.8788 46.6583C43.7101 46.827 43.4814 46.9218 43.2428 46.9218C43.0043 46.9218 42.7755 46.827 42.6068 46.6583C42.4382 46.4897 42.3434 46.2609 42.3434 46.0223V44.6864C42.3434 43.5697 41.4785 42.6453 40.4153 42.6259C40.1538 42.6203 39.8939 42.6673 39.6509 42.7641C39.4079 42.8608 39.1868 43.0053 39.0006 43.189C38.8136 43.3718 38.6651 43.5902 38.5641 43.8314C38.463 44.0726 38.4114 44.3316 38.4123 44.5931C38.4123 44.8316 38.3175 45.0604 38.1489 45.2291C37.9802 45.3978 37.7514 45.4925 37.5129 45.4925C37.2743 45.4925 37.0456 45.3978 36.8769 45.2291C36.7082 45.0604 36.6134 44.8316 36.6134 44.5931V43.2571C36.6134 43.1293 36.6019 42.9986 36.5789 42.8683C36.4036 41.9207 35.6061 41.2144 34.6848 41.1966C34.1514 41.1887 33.6511 41.3856 33.2719 41.7576C33.0846 41.9401 32.9359 42.1584 32.8346 42.3996C32.7333 42.6407 32.6816 42.8997 32.6824 43.1612C32.6824 43.3997 32.5876 43.6285 32.4189 43.7972C32.2502 43.9659 32.0215 44.0606 31.7829 44.0606C31.5444 44.0606 31.3156 43.9659 31.1469 43.7972C30.9783 43.6285 30.8835 43.3997 30.8835 43.1612V28.9167C30.8835 27.8 30.0176 26.8758 28.953 26.8564C28.4121 26.8413 27.9185 27.0468 27.5388 27.4198C27.3517 27.6024 27.2031 27.8207 27.1019 28.0618C27.0007 28.3029 26.949 28.5619 26.9498 28.8234V50.3329C26.9497 50.5107 26.897 50.6846 26.7982 50.8325C26.6994 50.9804 26.559 51.0958 26.3948 51.1639C26.2304 51.2319 26.0495 51.2497 25.8751 51.215C25.7006 51.1803 25.5403 51.0947 25.4145 50.9689L21.3851 46.9395C20.3904 45.9449 18.7731 45.8744 17.7809 46.7827C17.525 47.015 17.3194 47.2971 17.1765 47.6117C17.0336 47.9264 16.9566 48.2669 16.9501 48.6124C16.9412 48.9573 17.0029 49.3003 17.1313 49.6205C17.2597 49.9407 17.4522 50.2312 17.6969 50.4744C17.6972 50.4744 23.2036 55.9834 25.0768 57.854C26.591 59.3682 29.6507 63.5537 30.8962 65.2828C31.0356 65.4764 31.0923 65.7174 31.054 65.9528C31.0157 66.1882 30.8854 66.3988 30.6919 66.5381C30.5389 66.6477 30.3555 66.7066 30.1673 66.7065Z" fill="url(#paint1_linear_2932_1162)"/>
<path id="Vector_3" d="M45.9807 73.0007H29.1598C27.8838 73.0007 26.8457 71.9626 26.8457 70.6866V67.2227C26.8457 65.9468 27.8838 64.9087 29.1598 64.9087H45.9807C47.2567 64.9087 48.295 65.9468 48.295 67.2227V70.6866C48.295 71.9624 47.2567 73.0007 45.9807 73.0007ZM29.1598 66.7071C29.0232 66.7072 28.8922 66.7615 28.7956 66.8581C28.699 66.9547 28.6447 67.0857 28.6446 67.2223V70.6861C28.6447 70.8227 28.699 70.9537 28.7956 71.0503C28.8922 71.1469 29.0232 71.2012 29.1598 71.2013H45.9807C46.1173 71.2013 46.2484 71.147 46.345 71.0504C46.4417 70.9538 46.496 70.8228 46.4961 70.6861V67.2223C46.496 67.0856 46.4417 66.9546 46.345 66.858C46.2484 66.7614 46.1173 66.7071 45.9807 66.7071H29.1598ZM50.8659 29.8164H45.1446C44.9061 29.8164 44.6773 29.7217 44.5086 29.553C44.3399 29.3843 44.2452 29.1555 44.2452 28.917C44.2452 28.6785 44.3399 28.4497 44.5086 28.281C44.6773 28.1123 44.9061 28.0176 45.1446 28.0176H50.8659C51.1045 28.0176 51.3332 28.1123 51.5019 28.281C51.6706 28.4497 51.7653 28.6785 51.7653 28.917C51.7653 29.1555 51.6706 29.3843 51.5019 29.553C51.3332 29.7217 51.1045 29.8164 50.8659 29.8164Z" fill="url(#paint2_linear_2932_1162)"/>
<path id="Vector_4" d="M53.9002 32.8498C51.731 32.8498 49.9665 31.0852 49.9665 28.9161C49.9665 26.7469 51.731 24.9823 53.9002 24.9823C56.0694 24.9823 57.8339 26.7469 57.8339 28.9161C57.8339 31.0852 56.0694 32.8498 53.9002 32.8498ZM53.9002 26.7809C52.723 26.7809 51.7653 27.7386 51.7653 28.9158C51.7653 30.093 52.723 31.0507 53.9002 31.0507C55.0774 31.0507 56.0351 30.093 56.0351 28.9158C56.0351 27.7386 55.0774 26.7809 53.9002 26.7809ZM40.3915 18.3407C40.2136 18.3407 40.0398 18.2879 39.8918 18.1891C39.7439 18.0902 39.6287 17.9498 39.5606 17.7854C39.4926 17.621 39.4748 17.4402 39.5095 17.2657C39.5442 17.0912 39.6299 16.931 39.7557 16.8052L43.8012 12.7595C43.9699 12.5908 44.1987 12.4961 44.4372 12.4961C44.6758 12.4961 44.9046 12.5909 45.0732 12.7596C45.2419 12.9283 45.3366 13.1571 45.3366 13.3956C45.3366 13.6342 45.2418 13.863 45.0731 14.0316L41.0276 18.0771C40.9442 18.1608 40.845 18.2271 40.7359 18.2724C40.6267 18.3176 40.5097 18.3408 40.3915 18.3407Z" fill="url(#paint3_linear_2932_1162)"/>
<path id="Vector_5" d="M46.5832 15.1847C45.5322 15.1847 44.5445 14.7755 43.8014 14.0325C42.2676 12.4987 42.2676 10.0031 43.8014 8.46923C44.1659 8.10277 44.5994 7.81223 45.0769 7.61445C45.5544 7.41667 46.0664 7.31557 46.5832 7.31701C47.634 7.31701 48.6216 7.72618 49.3647 8.46899C50.108 9.21204 50.5172 10.2 50.5172 11.2507C50.5172 12.3015 50.108 13.2894 49.3647 14.0325C49.0003 14.3989 48.5668 14.6895 48.0894 14.8872C47.6119 15.085 47.1 15.1861 46.5832 15.1847ZM46.5832 9.1161C46.3027 9.11534 46.0248 9.17021 45.7656 9.27754C45.5065 9.38487 45.2712 9.54252 45.0733 9.74138C44.2411 10.5739 44.2411 11.9283 45.0733 12.7608C45.2712 12.9597 45.5065 13.1173 45.7656 13.2247C46.0248 13.332 46.3027 13.3869 46.5832 13.3861C46.8636 13.3868 47.1415 13.3319 47.4006 13.2246C47.6597 13.1173 47.895 12.9596 48.0928 12.7608C48.2917 12.563 48.4493 12.3278 48.5566 12.0687C48.664 11.8095 48.7188 11.5317 48.7181 11.2512C48.7181 10.6809 48.496 10.1448 48.0928 9.74162C47.6896 9.33843 47.1533 9.1161 46.5832 9.1161ZM28.917 13.5888C28.6785 13.5888 28.4497 13.494 28.281 13.3253C28.1123 13.1567 28.0176 12.9279 28.0176 12.6893V6.96779C28.0176 6.72924 28.1123 6.50047 28.281 6.3318C28.4497 6.16312 28.6785 6.06836 28.917 6.06836C29.1555 6.06836 29.3843 6.16312 29.553 6.3318C29.7217 6.50047 29.8164 6.72924 29.8164 6.96779V12.6891C29.8165 12.8072 29.7932 12.9242 29.748 13.0334C29.7029 13.1425 29.6366 13.2417 29.5531 13.3252C29.4696 13.4088 29.3704 13.4751 29.2613 13.5203C29.1521 13.5655 29.0351 13.5888 28.917 13.5888Z" fill="url(#paint4_linear_2932_1162)"/>
<path id="Vector_6" d="M28.9159 7.8677C26.7468 7.8677 24.9822 6.10315 24.9822 3.93397C24.9822 1.7648 26.7468 0 28.9159 0C31.0851 0 32.8497 1.7648 32.8497 3.93397C32.8497 6.10315 31.0851 7.8677 28.9159 7.8677ZM28.9159 1.79885C27.7388 1.79885 26.7811 2.75656 26.7811 3.93397C26.7811 5.11114 27.7388 6.06885 28.9159 6.06885C30.0931 6.06885 31.0508 5.11114 31.0508 3.93397C31.0508 2.75656 30.0931 1.79885 28.9159 1.79885ZM17.4409 18.3423C17.2107 18.3423 16.9807 18.2545 16.8051 18.0787L12.7596 14.0332C12.6761 13.9497 12.6098 13.8505 12.5646 13.7414C12.5194 13.6323 12.4961 13.5153 12.4961 13.3972C12.4961 13.2791 12.5193 13.1621 12.5645 13.053C12.6097 12.9439 12.676 12.8447 12.7595 12.7612C12.843 12.6777 12.9421 12.6114 13.0513 12.5662C13.1604 12.521 13.2774 12.4977 13.3955 12.4977C13.5136 12.4977 13.6306 12.5209 13.7397 12.5661C13.8488 12.6113 13.948 12.6775 14.0315 12.7611L18.077 16.8068C18.2028 16.9326 18.2885 17.0929 18.3232 17.2674C18.358 17.4419 18.3401 17.6227 18.2721 17.7871C18.204 17.9515 18.0887 18.092 17.9407 18.1908C17.7928 18.2896 17.6188 18.3423 17.4409 18.3423Z" fill="url(#paint5_linear_2932_1162)"/>
<path id="Vector_7" d="M11.2507 15.1858C10.7339 15.1873 10.222 15.0861 9.74456 14.8884C9.26711 14.6906 8.83363 14.4001 8.46923 14.0336C7.72594 13.2906 7.31676 12.3029 7.31676 11.2521C7.31676 10.2013 7.72594 9.21341 8.46923 8.47036C8.83364 8.10395 9.26713 7.81346 9.74458 7.61572C10.222 7.41798 10.734 7.31691 11.2507 7.31837C12.3017 7.31837 13.2894 7.72756 14.0325 8.47036C15.5663 10.0042 15.5663 12.5 14.0325 14.0336C13.668 14.4001 13.2345 14.6906 12.757 14.8884C12.2795 15.0862 11.7676 15.1873 11.2507 15.1858ZM11.2507 9.11723C10.6806 9.11723 10.1446 9.33933 9.74114 9.74251C9.33772 10.1457 9.11585 10.682 9.11585 11.2521C9.11585 11.8222 9.33796 12.3585 9.74114 12.7617C9.93892 12.9606 10.1742 13.1182 10.4333 13.2256C10.6924 13.3329 10.9703 13.3878 11.2507 13.387C11.5312 13.3877 11.8091 13.3329 12.0683 13.2255C12.3274 13.1182 12.5627 12.9606 12.7606 12.7617C13.5928 11.9292 13.5928 10.5748 12.7606 9.74227C12.5627 9.54346 12.3274 9.38585 12.0682 9.27856C11.8091 9.17128 11.5312 9.11644 11.2507 9.11723ZM12.6891 29.8177H6.96779C6.72924 29.8177 6.50047 29.7229 6.33179 29.5543C6.16312 29.3856 6.06836 29.1568 6.06836 28.9183C6.06836 28.6797 6.16312 28.451 6.33179 28.2823C6.50047 28.1136 6.72924 28.0189 6.96779 28.0189H12.6891C12.9276 28.0189 13.1564 28.1136 13.3251 28.2823C13.4938 28.451 13.5885 28.6797 13.5885 28.9183C13.5885 29.1568 13.4938 29.3856 13.3251 29.5543C13.1564 29.7229 12.9276 29.8177 12.6891 29.8177Z" fill="url(#paint6_linear_2932_1162)"/>
<path id="Vector_8" d="M3.93373 32.8518C1.76456 32.8518 0 31.0873 0 28.9181C0 26.7489 1.76456 24.9844 3.93373 24.9844C6.10291 24.9844 7.86746 26.7489 7.86746 28.9181C7.86746 31.0873 6.10291 32.8518 3.93373 32.8518ZM3.93373 26.783C2.75656 26.783 1.79885 27.7407 1.79885 28.9179C1.79885 30.095 2.75656 31.0527 3.93373 31.0527C5.1109 31.0527 6.06861 30.095 6.06861 28.9179C6.06861 27.7407 5.1109 26.783 3.93373 26.783Z" fill="url(#paint7_linear_2932_1162)"/>
</g>
<defs>
<linearGradient id="paint0_linear_2932_1162" x1="28.9185" y1="11.791" x2="28.9185" y2="45.7946" gradientUnits="userSpaceOnUse">
<stop stop-color="#8351D8"/>
<stop offset="1" stop-color="#B04EB8"/>
</linearGradient>
<linearGradient id="paint1_linear_2932_1162" x1="32.5112" y1="25.0566" x2="32.5112" y2="66.7094" gradientUnits="userSpaceOnUse">
<stop stop-color="#8351D8"/>
<stop offset="1" stop-color="#B04EB8"/>
</linearGradient>
<linearGradient id="paint2_linear_2932_1162" x1="39.3055" y1="28.0176" x2="39.3055" y2="73.0007" gradientUnits="userSpaceOnUse">
<stop stop-color="#8351D8"/>
<stop offset="1" stop-color="#B04EB8"/>
</linearGradient>
<linearGradient id="paint3_linear_2932_1162" x1="48.6631" y1="12.4961" x2="48.6631" y2="32.8498" gradientUnits="userSpaceOnUse">
<stop stop-color="#8351D8"/>
<stop offset="1" stop-color="#B04EB8"/>
</linearGradient>
<linearGradient id="paint4_linear_2932_1162" x1="39.2674" y1="6.06836" x2="39.2674" y2="15.1847" gradientUnits="userSpaceOnUse">
<stop stop-color="#8351D8"/>
<stop offset="1" stop-color="#B04EB8"/>
</linearGradient>
<linearGradient id="paint5_linear_2932_1162" x1="22.6729" y1="0" x2="22.6729" y2="18.3423" gradientUnits="userSpaceOnUse">
<stop stop-color="#8351D8"/>
<stop offset="1" stop-color="#B04EB8"/>
</linearGradient>
<linearGradient id="paint6_linear_2932_1162" x1="10.6256" y1="7.31836" x2="10.6256" y2="29.8177" gradientUnits="userSpaceOnUse">
<stop stop-color="#8351D8"/>
<stop offset="1" stop-color="#B04EB8"/>
</linearGradient>
<linearGradient id="paint7_linear_2932_1162" x1="3.93373" y1="24.9844" x2="3.93373" y2="32.8518" gradientUnits="userSpaceOnUse">
<stop stop-color="#8351D8"/>
<stop offset="1" stop-color="#B04EB8"/>
</linearGradient>
</defs>
</svg>
