<svg width="63" height="63" viewBox="0 0 63 63" fill="none" xmlns="http://www.w3.org/2000/svg">
<g id="Group">
<path id="Vector" fill-rule="evenodd" clip-rule="evenodd" d="M34.5921 17.5921C34.331 17.5921 34.0807 17.4884 33.896 17.3037C33.7114 17.1191 33.6077 16.8688 33.6077 16.6077V14.0723H29.39V16.6077C29.39 16.8688 29.2863 17.1191 29.1017 17.3037C28.9171 17.4884 28.6667 17.5921 28.4056 17.5921C28.1445 17.5921 27.8942 17.4884 27.7096 17.3037C27.5249 17.1191 27.4212 16.8688 27.4212 16.6077V13.0879C27.4212 12.8268 27.5249 12.5764 27.7096 12.3918C27.8942 12.2072 28.1445 12.1035 28.4056 12.1035H34.5921C34.8532 12.1035 35.1035 12.2072 35.2882 12.3918C35.4728 12.5764 35.5765 12.8268 35.5765 13.0879V16.6077C35.5765 16.8688 35.4728 17.1191 35.2882 17.3037C35.1035 17.4884 34.8532 17.5921 34.5921 17.5921ZM34.5921 50.8945H28.4056C28.1445 50.8945 27.8942 50.7908 27.7096 50.6062C27.5249 50.4216 27.4212 50.1712 27.4212 49.9102V46.3902C27.4212 46.1291 27.5249 45.8787 27.7096 45.6941C27.8942 45.5095 28.1445 45.4058 28.4056 45.4058C28.6667 45.4058 28.9171 45.5095 29.1017 45.6941C29.2863 45.8787 29.39 46.1291 29.39 46.3902V48.9258H33.6077V46.3902C33.6077 46.1291 33.7114 45.8787 33.896 45.6941C34.0807 45.5095 34.331 45.4058 34.5921 45.4058C34.8532 45.4058 35.1035 45.5095 35.2882 45.6941C35.4728 45.8787 35.5765 46.1291 35.5765 46.3902V49.9102C35.5765 50.1712 35.4728 50.4216 35.2882 50.6062C35.1035 50.7908 34.8532 50.8945 34.5921 50.8945ZM18.783 24.1421C18.6538 24.1422 18.5257 24.1168 18.4062 24.0674C18.2868 24.0179 18.1783 23.9453 18.087 23.8537L15.5968 21.3636C15.5054 21.2722 15.4329 21.1637 15.3834 21.0442C15.334 20.9248 15.3085 20.7968 15.3085 20.6675C15.3085 20.5383 15.334 20.4103 15.3834 20.2908C15.4329 20.1714 15.5054 20.0629 15.5968 19.9715L19.9715 15.5968C20.0629 15.5054 20.1714 15.4329 20.2908 15.3834C20.4103 15.334 20.5383 15.3085 20.6675 15.3085C20.7968 15.3085 20.9248 15.334 21.0442 15.3834C21.1637 15.4329 21.2722 15.5054 21.3636 15.5968L23.8537 18.087C23.9452 18.1784 24.0177 18.2869 24.0671 18.4063C24.1166 18.5258 24.1421 18.6538 24.1421 18.783C24.1421 18.9123 24.1166 19.0403 24.0671 19.1598C24.0177 19.2792 23.9452 19.3877 23.8537 19.4791C23.7623 19.5705 23.6538 19.643 23.5344 19.6925C23.415 19.742 23.287 19.7674 23.1577 19.7674C23.0284 19.7674 22.9004 19.742 22.781 19.6925C22.6615 19.643 22.553 19.5705 22.4616 19.4791L20.6675 17.6849L17.685 20.6674L19.4793 22.4614C19.5707 22.5529 19.6432 22.6614 19.6927 22.7808C19.7421 22.9002 19.7676 23.0282 19.7676 23.1575C19.7676 23.2868 19.7421 23.4148 19.6927 23.5342C19.6432 23.6537 19.5707 23.7622 19.4793 23.8536C19.388 23.9452 19.2795 24.0178 19.16 24.0673C19.0405 24.1169 18.9124 24.1422 18.783 24.1421ZM42.3303 47.6893C42.201 47.6895 42.073 47.6641 41.9535 47.6147C41.8341 47.5652 41.7256 47.4926 41.6343 47.401L39.1441 44.9109C38.9595 44.7263 38.8558 44.4759 38.8558 44.2148C38.8558 43.9538 38.9595 43.7034 39.1441 43.5188C39.3287 43.3342 39.5791 43.2304 39.8402 43.2304C40.1013 43.2304 40.3517 43.3342 40.5363 43.5188L42.3303 45.3129L45.3128 42.3303L43.5188 40.5363C43.4274 40.4449 43.3548 40.3363 43.3054 40.2169C43.2559 40.0975 43.2304 39.9695 43.2304 39.8402C43.2304 39.7109 43.2559 39.5829 43.3054 39.4635C43.3548 39.3441 43.4274 39.2355 43.5188 39.1441C43.6102 39.0527 43.7187 38.9802 43.8381 38.9307C43.9576 38.8813 44.0856 38.8558 44.2148 38.8558C44.3441 38.8558 44.4721 38.8813 44.5915 38.9307C44.711 38.9802 44.8195 39.0527 44.9109 39.1441L47.401 41.6343C47.4925 41.7257 47.565 41.8342 47.6144 41.9536C47.6639 42.0731 47.6894 42.2011 47.6894 42.3303C47.6894 42.4596 47.6639 42.5876 47.6144 42.7071C47.565 42.8265 47.4925 42.935 47.401 43.0264L43.0264 47.401C42.9351 47.4926 42.8266 47.5651 42.7071 47.6146C42.5877 47.6641 42.4596 47.6895 42.3303 47.6893ZM16.6077 35.5766H13.0879C12.8268 35.5766 12.5764 35.4729 12.3918 35.2883C12.2072 35.1037 12.1035 34.8533 12.1035 34.5923V28.4058C12.1035 28.1447 12.2072 27.8943 12.3918 27.7097C12.5764 27.5251 12.8268 27.4214 13.0879 27.4214H16.6077C16.8688 27.4214 17.1191 27.5251 17.3037 27.7097C17.4884 27.8943 17.5921 28.1447 17.5921 28.4058C17.5921 28.6668 17.4884 28.9172 17.3037 29.1018C17.1191 29.2864 16.8688 29.3901 16.6077 29.3901H14.0723V33.6079H16.6077C16.8688 33.6079 17.1191 33.7116 17.3037 33.8962C17.4884 34.0808 17.5921 34.3312 17.5921 34.5923C17.5921 34.8533 17.4884 35.1037 17.3037 35.2883C17.1191 35.4729 16.8688 35.5766 16.6077 35.5766ZM49.91 35.5766H46.3902C46.1291 35.5766 45.8787 35.4729 45.6941 35.2883C45.5095 35.1037 45.4058 34.8533 45.4058 34.5923C45.4058 34.3312 45.5095 34.0808 45.6941 33.8962C45.8787 33.7116 46.1291 33.6079 46.3902 33.6079H48.9256V29.3901H46.3902C46.1291 29.3901 45.8787 29.2864 45.6941 29.1018C45.5095 28.9172 45.4058 28.6668 45.4058 28.4058C45.4058 28.1447 45.5095 27.8943 45.6941 27.7097C45.8787 27.5251 46.1291 27.4214 46.3902 27.4214H49.91C50.1711 27.4214 50.4214 27.5251 50.606 27.7097C50.7906 27.8943 50.8944 28.1447 50.8944 28.4058V34.5923C50.8944 34.8533 50.7906 35.1037 50.606 35.2883C50.4214 35.4729 50.1711 35.5766 49.91 35.5766Z" fill="url(#paint0_linear_2932_1171)"/>
<path id="Vector_2" fill-rule="evenodd" clip-rule="evenodd" d="M16.6077 35.5766H13.0879C12.8268 35.5766 12.5764 35.4728 12.3918 35.2882C12.2072 35.1036 12.1035 34.8533 12.1035 34.5922V28.4057C12.1035 28.1446 12.2072 27.8942 12.3918 27.7096C12.5764 27.525 12.8268 27.4213 13.0879 27.4213H16.6077C16.8688 27.4213 17.1191 27.525 17.3037 27.7096C17.4884 27.8942 17.5921 28.1446 17.5921 28.4057C17.5921 28.6668 17.4884 28.9171 17.3037 29.1017C17.1191 29.2864 16.8688 29.3901 16.6077 29.3901H14.0723V33.6078H16.6077C16.8688 33.6078 17.1191 33.7115 17.3037 33.8961C17.4884 34.0807 17.5921 34.3311 17.5921 34.5922C17.5921 34.8533 17.4884 35.1036 17.3037 35.2882C17.1191 35.4728 16.8688 35.5766 16.6077 35.5766ZM49.91 35.5766H46.3902C46.1291 35.5766 45.8787 35.4728 45.6941 35.2882C45.5095 35.1036 45.4058 34.8533 45.4058 34.5922C45.4058 34.3311 45.5095 34.0807 45.6941 33.8961C45.8787 33.7115 46.1291 33.6078 46.3902 33.6078H48.9256V29.3901H46.3902C46.1291 29.3901 45.8787 29.2864 45.6941 29.1017C45.5095 28.9171 45.4058 28.6668 45.4058 28.4057C45.4058 28.1446 45.5095 27.8942 45.6941 27.7096C45.8787 27.525 46.1291 27.4213 46.3902 27.4213H49.91C50.1711 27.4213 50.4214 27.525 50.606 27.7096C50.7906 27.8942 50.8944 28.1446 50.8944 28.4057V34.5922C50.8944 34.8533 50.7906 35.1036 50.606 35.2882C50.4214 35.4728 50.1711 35.5766 49.91 35.5766ZM20.6675 47.6893C20.5383 47.6893 20.4103 47.6638 20.2908 47.6143C20.1714 47.5649 20.0629 47.4924 19.9715 47.401L15.5968 43.0263C15.5054 42.9349 15.4329 42.8264 15.3834 42.707C15.334 42.5875 15.3085 42.4595 15.3085 42.3303C15.3085 42.201 15.334 42.073 15.3834 41.9535C15.4329 41.8341 15.5054 41.7256 15.5968 41.6342L18.087 39.144C18.2716 38.9594 18.522 38.8557 18.783 38.8557C19.0441 38.8557 19.2945 38.9594 19.4791 39.144C19.6637 39.3287 19.7674 39.579 19.7674 39.8401C19.7674 40.1012 19.6637 40.3516 19.4791 40.5362L17.6849 42.3303L20.6674 45.3128L22.4614 43.5187C22.6461 43.3341 22.8964 43.2304 23.1575 43.2304C23.4186 43.2304 23.669 43.3341 23.8536 43.5187C24.0382 43.7033 24.1419 43.9537 24.1419 44.2147C24.1419 44.4758 24.0382 44.7262 23.8536 44.9108L21.3634 47.401C21.2721 47.4924 21.1636 47.5649 21.0442 47.6143C20.9248 47.6638 20.7968 47.6893 20.6675 47.6893ZM44.2147 24.142C44.02 24.142 43.8296 24.0842 43.6678 23.9761C43.5059 23.8679 43.3797 23.7142 43.3052 23.5343C43.2307 23.3544 43.2112 23.1565 43.2492 22.9656C43.2872 22.7746 43.3809 22.5992 43.5186 22.4615L45.3127 20.6675L42.3302 17.6849L40.5361 19.4792C40.4447 19.5706 40.3362 19.6431 40.2167 19.6926C40.0973 19.7421 39.9693 19.7675 39.84 19.7675C39.7107 19.7675 39.5827 19.7421 39.4633 19.6926C39.3439 19.6431 39.2354 19.5706 39.144 19.4792C39.0525 19.3878 38.98 19.2793 38.9306 19.1598C38.8811 19.0404 38.8556 18.9124 38.8556 18.7831C38.8556 18.6539 38.8811 18.5259 38.9306 18.4064C38.98 18.287 39.0525 18.1785 39.144 18.0871L41.6341 15.5969C41.7255 15.5055 41.834 15.433 41.9535 15.3835C42.0729 15.3341 42.2009 15.3086 42.3302 15.3086C42.4594 15.3086 42.5874 15.3341 42.7069 15.3835C42.8263 15.433 42.9348 15.5055 43.0262 15.5969L47.4009 19.9716C47.4923 20.063 47.5648 20.1715 47.6143 20.2909C47.6637 20.4103 47.6892 20.5383 47.6892 20.6676C47.6892 20.7969 47.6637 20.9249 47.6143 21.0443C47.5648 21.1638 47.4923 21.2723 47.4009 21.3637L44.9107 23.8538C44.8194 23.9453 44.7109 24.0179 44.5914 24.0673C44.472 24.1168 44.3439 24.1422 44.2147 24.142Z" fill="url(#paint1_linear_2932_1171)"/>
<path id="Vector_3" fill-rule="evenodd" clip-rule="evenodd" d="M39.8409 19.7695C39.649 19.7696 39.4612 19.7132 39.3011 19.6075C37.8095 18.6243 36.1444 17.9341 34.3948 17.5734C34.1391 17.5206 33.9149 17.3684 33.7714 17.1502C33.628 16.9321 33.5771 16.6659 33.6299 16.4102C33.6827 16.1545 33.835 15.9303 34.0531 15.7869C34.2713 15.6434 34.5374 15.5925 34.7931 15.6454C36.7863 16.0561 38.6832 16.8424 40.3825 17.9622C40.6006 18.1057 40.7528 18.3299 40.8056 18.5855C40.8585 18.8412 40.8076 19.1073 40.6641 19.3255C40.5746 19.4621 40.4525 19.5742 40.3088 19.6517C40.165 19.7293 40.0042 19.7697 39.8409 19.7695ZM16.6105 29.392C16.4642 29.3922 16.3197 29.3597 16.1875 29.2971C16.0554 29.2344 15.9388 29.143 15.8464 29.0296C15.754 28.9163 15.688 28.7837 15.6532 28.6416C15.6184 28.4995 15.6158 28.3515 15.6454 28.2082C16.0561 26.215 16.8424 24.3181 17.9623 22.6188C18.1066 22.4028 18.3305 22.2525 18.5851 22.2008C18.8398 22.1491 19.1045 22.2002 19.3216 22.343C19.5388 22.4857 19.6906 22.7085 19.7442 22.9628C19.7977 23.217 19.7485 23.4821 19.6073 23.7003C18.6243 25.192 17.934 26.8571 17.5733 28.6067C17.5275 28.8284 17.4068 29.0275 17.2314 29.1705C17.0561 29.3135 16.8368 29.3918 16.6105 29.392ZM46.3909 29.392C46.1646 29.3917 45.9453 29.3135 45.7699 29.1705C45.5945 29.0274 45.4737 28.8284 45.4279 28.6067C45.0673 26.8571 44.377 25.192 43.3939 23.7004C43.3207 23.5925 43.2697 23.471 43.2439 23.3432C43.218 23.2153 43.2179 23.0836 43.2434 22.9557C43.2689 22.8278 43.3195 22.7062 43.3924 22.5981C43.4653 22.4899 43.559 22.3973 43.668 22.3256C43.7769 22.254 43.8991 22.2047 44.0273 22.1807C44.1555 22.1566 44.2872 22.1583 44.4147 22.1856C44.5423 22.2129 44.6631 22.2653 44.7703 22.3397C44.8774 22.4141 44.9687 22.509 45.0388 22.619C46.1586 24.3183 46.9449 26.2152 47.3556 28.2084C47.3852 28.3516 47.3826 28.4996 47.3478 28.6416C47.313 28.7837 47.2471 28.9162 47.1547 29.0296C47.0623 29.1429 46.9458 29.2343 46.8137 29.297C46.6816 29.3597 46.5372 29.3921 46.3909 29.392ZM34.593 47.3766C34.3667 47.3763 34.1474 47.2981 33.972 47.155C33.7966 47.012 33.6758 46.8129 33.63 46.5913C33.6038 46.4647 33.6028 46.3342 33.6271 46.2073C33.6514 46.0803 33.7004 45.9594 33.7714 45.8514C33.8425 45.7433 33.9341 45.6504 34.041 45.5778C34.148 45.5052 34.2682 45.4543 34.3948 45.4282C36.1444 45.0676 37.8095 44.3773 39.3011 43.3942C39.5192 43.2539 39.7839 43.2053 40.0376 43.2591C40.2913 43.3128 40.5136 43.4646 40.656 43.6812C40.7985 43.8979 40.8498 44.1621 40.7986 44.4164C40.7474 44.6706 40.5979 44.8944 40.3827 45.0391C38.6834 46.1589 36.7865 46.9452 34.7933 47.3559C34.7274 47.3697 34.6603 47.3766 34.593 47.3766ZM18.7858 40.8264C18.6225 40.8267 18.4618 40.7862 18.318 40.7088C18.1743 40.6313 18.0521 40.5193 17.9624 40.3828C16.8426 38.6835 16.0563 36.7866 15.6456 34.7934C15.5928 34.5377 15.6437 34.2715 15.7871 34.0534C15.9305 33.8353 16.1548 33.683 16.4104 33.6302C16.6661 33.5774 16.9323 33.6283 17.1505 33.7717C17.3686 33.9152 17.5208 34.1394 17.5737 34.3951C17.9343 36.1447 18.6246 37.8098 19.6077 39.3014C19.7052 39.4497 19.7608 39.6217 19.7685 39.7991C19.7763 39.9765 19.7359 40.1527 19.6517 40.309C19.5674 40.4654 19.4425 40.596 19.2901 40.6871C19.1376 40.7782 18.9634 40.8263 18.7858 40.8264ZM28.4084 47.3766C28.3423 47.3766 28.2754 47.3699 28.2081 47.3559C26.2149 46.9452 24.318 46.1589 22.6187 45.0391C22.4046 44.8939 22.2562 44.6704 22.2056 44.4167C22.155 44.163 22.2064 43.8996 22.3485 43.6834C22.4906 43.4673 22.7121 43.3158 22.965 43.2616C23.2179 43.2075 23.482 43.2551 23.7002 43.3942C25.1918 44.3772 26.8568 45.0675 28.6065 45.4282C28.8451 45.4775 29.057 45.6135 29.2011 45.81C29.3452 46.0064 29.4114 46.2494 29.3867 46.4918C29.3621 46.7342 29.2484 46.9589 29.0677 47.1223C28.887 47.2858 28.6521 47.3764 28.4084 47.3766ZM44.2156 40.8264C44.038 40.8263 43.8638 40.7781 43.7114 40.687C43.559 40.5958 43.434 40.4652 43.3498 40.3089C43.2656 40.1525 43.2253 39.9763 43.2331 39.7989C43.2409 39.6215 43.2965 39.4495 43.3941 39.3012C44.3771 37.8095 45.0674 36.1445 45.4281 34.3949C45.4833 34.1416 45.6362 33.9204 45.8536 33.7792C46.0709 33.6379 46.3352 33.5882 46.589 33.6406C46.8429 33.6931 47.0658 33.8435 47.2094 34.0593C47.353 34.2751 47.4056 34.5388 47.356 34.7932C46.9452 36.7865 46.159 38.6833 45.0391 40.3826C44.9495 40.5192 44.8273 40.6312 44.6835 40.7087C44.5397 40.7862 44.3789 40.8267 44.2156 40.8264ZM23.1605 19.7695C22.9485 19.7698 22.7422 19.7016 22.572 19.5752C22.4019 19.4488 22.2772 19.2709 22.2163 19.0678C22.1555 18.8648 22.1618 18.6476 22.2343 18.4484C22.3069 18.2493 22.4417 18.0789 22.6189 17.9626C24.3182 16.8428 26.2151 16.0565 28.2083 15.6457C28.4639 15.5929 28.7301 15.6437 28.9483 15.7872C29.1665 15.9306 29.3187 16.1548 29.3716 16.4105C29.4244 16.6661 29.3735 16.9324 29.2301 17.1505C29.0867 17.3687 28.8625 17.5209 28.6068 17.5738C26.8571 17.9344 25.192 18.6247 23.7003 19.6076C23.5401 19.7132 23.3524 19.7695 23.1605 19.7695Z" fill="url(#paint2_linear_2932_1171)"/>
<path id="Vector_4" fill-rule="evenodd" clip-rule="evenodd" d="M31.4974 40.823C29.0064 40.823 26.6646 39.8529 24.9033 38.0915C23.1419 36.3302 22.1719 33.9882 22.1719 31.4974C22.1719 29.0064 23.1419 26.6646 24.9033 24.9033C26.6648 23.1421 29.0064 22.1719 31.4974 22.1719C33.9884 22.1719 36.3302 23.1419 38.0915 24.9033C39.8528 26.6646 40.823 29.0066 40.823 31.4974C40.823 33.9884 39.8529 36.3302 38.0915 38.0915C36.3302 39.8529 33.9884 40.823 31.4974 40.823ZM31.4974 24.1406C27.4408 24.1406 24.1406 27.4408 24.1406 31.4974C24.1406 35.554 27.4408 38.8542 31.4974 38.8542C35.554 38.8542 38.8542 35.554 38.8542 31.4974C38.8542 27.441 35.554 24.1406 31.4974 24.1406Z" fill="url(#paint3_linear_2932_1171)"/>
<path id="Vector_5" fill-rule="evenodd" clip-rule="evenodd" d="M30.3563 34.8026C30.227 34.8028 30.099 34.7774 29.9795 34.728C29.8601 34.6785 29.7516 34.6059 29.6603 34.5143L27.3762 32.2303C27.2848 32.1389 27.2123 32.0304 27.1628 31.9109C27.1134 31.7915 27.0879 31.6635 27.0879 31.5342C27.0879 31.405 27.1134 31.277 27.1628 31.1575C27.2123 31.0381 27.2848 30.9296 27.3762 30.8382C27.4676 30.7468 27.5761 30.6742 27.6956 30.6248C27.815 30.5753 27.943 30.5498 28.0723 30.5498C28.2015 30.5498 28.3296 30.5753 28.449 30.6248C28.5684 30.6742 28.6769 30.7468 28.7683 30.8382L30.3563 32.4261L34.2285 28.5539C34.4131 28.3693 34.6635 28.2656 34.9246 28.2656C35.1857 28.2656 35.436 28.3693 35.6207 28.5539C35.8053 28.7386 35.909 28.9889 35.909 29.25C35.909 29.5111 35.8053 29.7615 35.6207 29.9461L31.0524 34.5143C30.9611 34.6059 30.8526 34.6785 30.7331 34.728C30.6137 34.7775 30.4856 34.8029 30.3563 34.8026Z" fill="url(#paint4_linear_2932_1171)"/>
<path id="Vector_6" fill-rule="evenodd" clip-rule="evenodd" d="M3.92773 48.4257C3.66666 48.4257 3.41628 48.322 3.23167 48.1374C3.04707 47.9528 2.94336 47.7024 2.94336 47.4413V12.0449C2.94336 7.3127 6.79334 3.46289 11.5253 3.46289H49.6997C49.9608 3.46289 50.2112 3.5666 50.3958 3.75121C50.5804 3.93581 50.6841 4.18619 50.6841 4.44726C50.6841 4.70833 50.5804 4.95871 50.3958 5.14332C50.2112 5.32792 49.9608 5.43163 49.6997 5.43163H11.5253C7.87871 5.43163 4.9121 8.39841 4.9121 12.0449V47.4413C4.9121 47.7024 4.80839 47.9528 4.62378 48.1374C4.43918 48.322 4.1888 48.4257 3.92773 48.4257Z" fill="url(#paint5_linear_2932_1171)"/>
<path id="Vector_7" fill-rule="evenodd" clip-rule="evenodd" d="M46.2355 8.89729C46.0408 8.89729 45.8505 8.83956 45.6886 8.7314C45.5267 8.62323 45.4005 8.4695 45.326 8.28962C45.2515 8.10975 45.232 7.91182 45.27 7.72087C45.308 7.52992 45.4017 7.35452 45.5394 7.21685L48.3076 4.44865L45.5394 1.68045C45.448 1.58904 45.3755 1.48053 45.326 1.36109C45.2766 1.24166 45.2511 1.11366 45.2511 0.984386C45.2511 0.855115 45.2766 0.727109 45.326 0.607678C45.3755 0.488247 45.448 0.379729 45.5394 0.288321C45.6308 0.196912 45.7393 0.124402 45.8588 0.074932C45.9782 0.025462 46.1062 0 46.2355 0C46.3648 0 46.4928 0.025462 46.6122 0.074932C46.7316 0.124402 46.8401 0.196912 46.9315 0.288321L50.3958 3.75259C50.4872 3.84399 50.5597 3.95251 50.6092 4.07194C50.6587 4.19137 50.6841 4.31938 50.6841 4.44865C50.6841 4.57792 50.6587 4.70593 50.6092 4.82536C50.5597 4.94479 50.4872 5.05331 50.3958 5.14472L46.9315 8.60898C46.8402 8.70053 46.7317 8.77312 46.6123 8.8226C46.4928 8.87208 46.3648 8.89746 46.2355 8.89729ZM3.92774 54.3142C1.76195 54.3142 0 52.5522 0 50.3864C0 48.2206 1.76195 46.4585 3.92774 46.4585C6.09352 46.4585 7.85548 48.2206 7.85548 50.3864C7.85548 52.5522 6.09352 54.3142 3.92774 54.3142ZM3.92774 48.4273C2.8475 48.4273 1.96874 49.3062 1.96874 50.3864C1.96874 51.4667 2.84767 52.3454 3.92774 52.3454C5.00781 52.3454 5.88674 51.4665 5.88674 50.3864C5.88674 49.3062 5.00798 48.4273 3.92774 48.4273ZM51.474 59.5356H13.2996C13.0385 59.5356 12.7881 59.4319 12.6035 59.2473C12.4189 59.0627 12.3152 58.8123 12.3152 58.5512C12.3152 58.2902 12.4189 58.0398 12.6035 57.8552C12.7881 57.6706 13.0385 57.5669 13.2996 57.5669H51.4742C55.1208 57.5669 58.0876 54.6001 58.0876 50.9536V15.557C58.0876 15.2959 58.1913 15.0455 58.3759 14.8609C58.5605 14.6763 58.8109 14.5726 59.0719 14.5726C59.333 14.5726 59.5834 14.6763 59.768 14.8609C59.9526 15.0455 60.0563 15.2959 60.0563 15.557V50.9535C60.0561 55.6856 56.2062 59.5356 51.474 59.5356Z" fill="url(#paint6_linear_2932_1171)"/>
<path id="Vector_8" fill-rule="evenodd" clip-rule="evenodd" d="M16.7631 62.9997C16.6338 62.9999 16.5058 62.9745 16.3863 62.925C16.2668 62.8755 16.1584 62.8029 16.067 62.7114L12.6028 59.2471C12.5114 59.1557 12.4389 59.0472 12.3894 58.9278C12.3399 58.8083 12.3145 58.6803 12.3145 58.5511C12.3145 58.4218 12.3399 58.2938 12.3894 58.1744C12.4389 58.0549 12.5114 57.9464 12.6028 57.855L16.067 54.3907C16.2517 54.2061 16.502 54.1024 16.7631 54.1024C17.0242 54.1024 17.2746 54.2061 17.4592 54.3907C17.6438 54.5754 17.7475 54.8257 17.7475 55.0868C17.7475 55.3479 17.6438 55.5983 17.4592 55.7829L14.691 58.5511L17.4592 61.3193C17.5968 61.4569 17.6906 61.6323 17.7286 61.8233C17.7666 62.0142 17.7471 62.2122 17.6726 62.392C17.5981 62.5719 17.4719 62.7257 17.31 62.8338C17.1481 62.942 16.9578 62.9997 16.7631 62.9997ZM59.0709 16.5412C56.9051 16.5412 55.1431 14.7792 55.1431 12.6133C55.1431 10.4475 56.9051 8.68555 59.0709 8.68555C61.2366 8.68555 62.9988 10.4475 62.9988 12.6133C62.9986 14.7791 61.2366 16.5412 59.0709 16.5412ZM59.0709 10.6543C57.9906 10.6543 57.1119 11.5332 57.1119 12.6133C57.1119 13.6935 57.9908 14.5725 59.0709 14.5725C60.1511 14.5725 61.03 13.6935 61.03 12.6133C61.0299 11.533 60.1511 10.6543 59.0709 10.6543Z" fill="url(#paint7_linear_2932_1171)"/>
</g>
<defs>
<linearGradient id="paint0_linear_2932_1171" x1="31.4989" y1="12.1035" x2="31.4989" y2="50.8945" gradientUnits="userSpaceOnUse">
<stop stop-color="#8451D7"/>
<stop offset="1" stop-color="#AE4EB9"/>
</linearGradient>
<linearGradient id="paint1_linear_2932_1171" x1="31.4989" y1="15.3086" x2="31.4989" y2="47.6893" gradientUnits="userSpaceOnUse">
<stop stop-color="#8451D7"/>
<stop offset="1" stop-color="#AE4EB9"/>
</linearGradient>
<linearGradient id="paint2_linear_2932_1171" x1="31.5005" y1="15.625" x2="31.5005" y2="47.3766" gradientUnits="userSpaceOnUse">
<stop stop-color="#8451D7"/>
<stop offset="1" stop-color="#AE4EB9"/>
</linearGradient>
<linearGradient id="paint3_linear_2932_1171" x1="31.4974" y1="22.1719" x2="31.4974" y2="40.823" gradientUnits="userSpaceOnUse">
<stop stop-color="#8451D7"/>
<stop offset="1" stop-color="#AE4EB9"/>
</linearGradient>
<linearGradient id="paint4_linear_2932_1171" x1="31.4984" y1="28.2656" x2="31.4984" y2="34.8026" gradientUnits="userSpaceOnUse">
<stop stop-color="#8451D7"/>
<stop offset="1" stop-color="#AE4EB9"/>
</linearGradient>
<linearGradient id="paint5_linear_2932_1171" x1="26.8137" y1="3.46289" x2="26.8137" y2="48.4257" gradientUnits="userSpaceOnUse">
<stop stop-color="#8451D7"/>
<stop offset="1" stop-color="#AE4EB9"/>
</linearGradient>
<linearGradient id="paint6_linear_2932_1171" x1="30.0282" y1="0" x2="30.0282" y2="59.5356" gradientUnits="userSpaceOnUse">
<stop stop-color="#8451D7"/>
<stop offset="1" stop-color="#AE4EB9"/>
</linearGradient>
<linearGradient id="paint7_linear_2932_1171" x1="37.6566" y1="8.68555" x2="37.6566" y2="62.9997" gradientUnits="userSpaceOnUse">
<stop stop-color="#8451D7"/>
<stop offset="1" stop-color="#AE4EB9"/>
</linearGradient>
</defs>
</svg>
