<svg width="27" height="28" viewBox="0 0 27 28" fill="none" xmlns="http://www.w3.org/2000/svg">
<path fill-rule="evenodd" clip-rule="evenodd" d="M15.3336 26.481C15.192 26.9244 14.9125 27.3064 14.5455 27.5764C14.1831 27.843 13.7361 28.0005 13.2529 28.0005C12.7697 28.0005 12.3226 27.843 11.9603 27.5764C11.589 27.3032 11.3072 26.9156 11.1673 26.4656C11.1559 26.4291 11.1533 26.3903 11.1596 26.3526C11.1659 26.3148 11.1811 26.2791 11.2037 26.2482C11.2264 26.2174 11.2561 26.1923 11.2902 26.1751C11.3244 26.1578 11.3621 26.1488 11.4004 26.1488V26.1484H15.1053C15.1451 26.1484 15.1842 26.1581 15.2193 26.1766C15.2545 26.1951 15.2846 26.2219 15.3071 26.2546C15.3295 26.2874 15.3437 26.3251 15.3483 26.3645C15.3529 26.404 15.3479 26.444 15.3336 26.481Z" fill="#3E3E42"/>
<path fill-rule="evenodd" clip-rule="evenodd" d="M10.6558 21.5586H15.8483C16.1261 21.5586 16.3786 21.6721 16.5614 21.8549C16.7442 22.0377 16.8577 22.2901 16.8577 22.568C16.8577 22.8459 16.7442 23.0983 16.5614 23.2811C16.5435 23.2991 16.5248 23.3164 16.5055 23.3329C16.5248 23.3495 16.5434 23.3667 16.5614 23.3847C16.7442 23.5676 16.8577 23.8199 16.8577 24.0978C16.8577 24.3756 16.7442 24.6281 16.5614 24.8109C16.4802 24.8922 16.3858 24.9591 16.2822 25.0088C16.4204 25.1854 16.4954 25.4033 16.4953 25.6276C16.4953 25.9054 16.3818 26.1579 16.199 26.3407C16.0162 26.5236 15.7637 26.637 15.4859 26.637H11.0183C10.7404 26.637 10.488 26.5235 10.3052 26.3407C10.1224 26.1579 10.0089 25.9054 10.0089 25.6276C10.0089 25.3948 10.0886 25.1799 10.222 25.0088C10.1184 24.9591 10.024 24.8922 9.94281 24.811C9.76001 24.6281 9.64648 24.3757 9.64648 24.0979C9.64648 23.82 9.75995 23.5676 9.94281 23.3848C9.96072 23.3669 9.97937 23.3495 9.99862 23.333C9.97939 23.3164 9.96077 23.2991 9.94281 23.2812C9.76001 23.0984 9.64648 22.8459 9.64648 22.5681C9.64648 22.2902 9.75995 22.0378 9.94281 21.855C10.1255 21.6721 10.378 21.5586 10.6558 21.5586Z" fill="#ECEFF1"/>
<path fill-rule="evenodd" clip-rule="evenodd" d="M14.9308 21.5586H15.8478C16.1257 21.5586 16.3781 21.6721 16.5609 21.8549C16.7437 22.0377 16.8572 22.2901 16.8572 22.568C16.8572 22.8459 16.7437 23.0983 16.5609 23.2811C16.543 23.2991 16.5243 23.3164 16.5051 23.3329C16.5243 23.3495 16.5429 23.3667 16.5609 23.3847C16.7437 23.5676 16.8572 23.8199 16.8572 24.0978C16.8572 24.3756 16.7437 24.6281 16.5609 24.8109C16.4797 24.8922 16.3853 24.9591 16.2817 25.0088C16.4199 25.1854 16.4949 25.4033 16.4948 25.6276C16.4948 25.9054 16.3813 26.1579 16.1985 26.3407C16.0157 26.5236 15.7632 26.637 15.4854 26.637H14.5684C14.8462 26.637 15.0986 26.5235 15.2814 26.3407C15.4643 26.1579 15.5778 25.9054 15.5778 25.6276C15.5778 25.3948 15.4981 25.1798 15.3647 25.0088C15.4683 24.9591 15.5627 24.8922 15.6439 24.8109C15.8267 24.6281 15.9402 24.3756 15.9402 24.0978C15.9402 23.8199 15.8267 23.5675 15.6439 23.3847C15.6259 23.3668 15.6073 23.3495 15.588 23.3329C15.6073 23.3164 15.6259 23.2991 15.6439 23.2811C15.8267 23.0983 15.9402 22.8459 15.9402 22.568C15.9402 22.2901 15.8267 22.0377 15.6439 21.8549C15.4611 21.6721 15.2086 21.5586 14.9308 21.5586Z" fill="#D4D7D9"/>
<path fill-rule="evenodd" clip-rule="evenodd" d="M16.7159 23.0879C16.6602 23.1798 16.5904 23.2623 16.5089 23.3324C16.5904 23.4025 16.6603 23.485 16.7159 23.577H9.79492C9.85057 23.485 9.92041 23.4025 10.0019 23.3324C9.92041 23.2623 9.85057 23.1798 9.79492 23.0879H16.7159ZM16.7159 24.6177C16.6734 24.6878 16.6227 24.7525 16.5647 24.8104C16.4835 24.8917 16.3892 24.9586 16.2856 25.0083C16.31 25.0397 16.3327 25.0726 16.3534 25.1068H10.1574C10.1781 25.0726 10.2007 25.0397 10.2252 25.0083C10.0468 24.9227 9.89729 24.787 9.79492 24.6177H16.7159Z" fill="#BFC2C3"/>
<path fill-rule="evenodd" clip-rule="evenodd" d="M13.2544 5.73438C15.3305 5.73438 17.21 6.5759 18.5705 7.9364C19.931 9.29691 20.7725 11.1764 20.7725 13.2525C20.7725 14.1899 20.6003 15.0881 20.2858 15.9172C19.9619 16.7694 19.4857 17.5557 18.8805 18.2375C18.5943 18.5601 18.3811 18.9061 18.2398 19.2785C18.0988 19.65 18.0288 20.0506 18.0288 20.4832C18.0288 20.9138 17.8529 21.305 17.5694 21.5884C17.2859 21.8719 16.8947 22.0479 16.4642 22.0479H10.0447C9.61413 22.0479 9.22293 21.8719 8.93945 21.5884C8.65596 21.305 8.48002 20.9138 8.48002 20.4832C8.48002 20.0506 8.41008 19.65 8.26904 19.2785C8.12769 18.9061 7.91451 18.5601 7.6284 18.2375C7.02312 17.5557 6.54693 16.7694 6.22309 15.9172C5.90855 15.0881 5.73633 14.1899 5.73633 13.2525C5.73633 11.1764 6.57785 9.29691 7.93836 7.9364C9.29886 6.5759 11.1784 5.73438 13.2544 5.73438Z" fill="#FFD266"/>
<path fill-rule="evenodd" clip-rule="evenodd" d="M8.97934 12.7236C8.97557 12.7555 8.96553 12.7864 8.94979 12.8145C8.93405 12.8426 8.91292 12.8673 8.88761 12.8871C8.86231 12.907 8.83333 12.9217 8.80233 12.9304C8.77133 12.939 8.73893 12.9415 8.70699 12.9376C8.67504 12.9337 8.64418 12.9235 8.61618 12.9076C8.58817 12.8918 8.56357 12.8706 8.54379 12.8452C8.52402 12.8198 8.50945 12.7907 8.50092 12.7597C8.49239 12.7287 8.49008 12.6963 8.49411 12.6643C8.60861 11.7362 8.9923 10.8618 9.59785 10.1491C10.203 9.43594 11.0036 8.9155 11.9011 8.65197C11.963 8.63428 12.0293 8.64178 12.0857 8.67283C12.1421 8.70388 12.184 8.75596 12.2021 8.81773C12.2203 8.8795 12.2133 8.94593 12.1826 9.00256C12.152 9.05918 12.1002 9.10141 12.0386 9.12002C11.2328 9.35666 10.5138 9.82396 9.97034 10.4643C9.42658 11.1045 9.08209 11.8899 8.97934 12.7236Z" fill="#ECEFF1"/>
<path fill-rule="evenodd" clip-rule="evenodd" d="M13.0077 0.244541C13.0077 0.179685 13.0334 0.117485 13.0793 0.0716244C13.1252 0.0257641 13.1874 0 13.2522 0C13.3171 0 13.3793 0.0257641 13.4251 0.0716244C13.471 0.117485 13.4968 0.179685 13.4968 0.244541V3.47554C13.4968 3.54039 13.471 3.60259 13.4251 3.64845C13.3793 3.69431 13.3171 3.72008 13.2522 3.72008C13.1874 3.72008 13.1252 3.69431 13.0793 3.64845C13.0334 3.60259 13.0077 3.54039 13.0077 3.47554V0.244541ZM19.545 1.86591C19.5776 1.81084 19.6306 1.77083 19.6925 1.75456C19.7545 1.73828 19.8203 1.74704 19.8758 1.77894C19.9313 1.81083 19.972 1.86331 19.9891 1.925C20.0062 1.98669 19.9983 2.05263 19.9672 2.10855L18.3517 4.90665C18.3189 4.96145 18.2659 5.00118 18.2042 5.01729C18.1424 5.03341 18.0768 5.02462 18.0214 4.99281C17.966 4.961 17.9254 4.90872 17.9082 4.84724C17.891 4.78575 17.8987 4.71997 17.9295 4.66407L19.545 1.86591ZM24.3949 6.53731C24.4509 6.50488 24.5175 6.49602 24.58 6.51268C24.6425 6.52934 24.6958 6.57015 24.7283 6.62614C24.7607 6.68213 24.7696 6.7487 24.7529 6.81122C24.7362 6.87374 24.6954 6.92708 24.6394 6.95951L21.8413 8.57501C21.7854 8.60744 21.7188 8.61629 21.6563 8.59964C21.5937 8.58298 21.5404 8.54217 21.508 8.48618C21.4755 8.43019 21.4667 8.36362 21.4833 8.3011C21.5 8.23858 21.5408 8.18524 21.5968 8.15281L24.3949 6.53731ZM26.2599 13.0077C26.3248 13.0077 26.3869 13.0335 26.4328 13.0794C26.4787 13.1252 26.5044 13.1874 26.5044 13.2523C26.5044 13.3171 26.4787 13.3793 26.4328 13.4252C26.3869 13.4711 26.3248 13.4968 26.2599 13.4968H23.0289C22.964 13.4968 22.9018 13.4711 22.856 13.4252C22.8101 13.3793 22.7844 13.3171 22.7844 13.2523C22.7844 13.1874 22.8101 13.1252 22.856 13.0794C22.9018 13.0335 22.964 13.0077 23.0289 13.0077H26.2599ZM24.6395 19.545C24.6672 19.561 24.6915 19.5824 24.711 19.6078C24.7305 19.6333 24.7447 19.6623 24.753 19.6933C24.7612 19.7242 24.7633 19.7565 24.7591 19.7883C24.7548 19.82 24.7444 19.8506 24.7283 19.8784C24.7123 19.9061 24.6909 19.9304 24.6655 19.9498C24.64 19.9693 24.611 19.9836 24.58 19.9918C24.5491 20.0001 24.5168 20.0021 24.4851 19.9979C24.4533 19.9937 24.4227 19.9832 24.395 19.9672L21.5969 18.3517C21.5691 18.3356 21.5449 18.3143 21.5254 18.2888C21.5059 18.2634 21.4917 18.2344 21.4834 18.2034C21.4752 18.1724 21.4731 18.1402 21.4773 18.1084C21.4815 18.0767 21.492 18.046 21.508 18.0183C21.5241 17.9906 21.5455 17.9663 21.5709 17.9468C21.5963 17.9274 21.6254 17.9131 21.6563 17.9049C21.6873 17.8966 21.7196 17.8945 21.7513 17.8988C21.7831 17.903 21.8137 17.9134 21.8414 17.9295L24.6395 19.545ZM2.10953 19.9672C2.05354 19.9996 1.98697 20.0085 1.92445 19.9918C1.86193 19.9752 1.80859 19.9343 1.77616 19.8784C1.74373 19.8224 1.73487 19.7558 1.75153 19.6933C1.76819 19.6308 1.809 19.5774 1.86499 19.545L4.66309 17.9295C4.71907 17.8971 4.78565 17.8882 4.84817 17.9049C4.91069 17.9215 4.96403 17.9623 4.99646 18.0183C5.02889 18.0743 5.03775 18.1409 5.02109 18.2034C5.00443 18.2659 4.96362 18.3193 4.90763 18.3517L2.10953 19.9672ZM0.244541 13.4968C0.179685 13.4968 0.117485 13.4711 0.0716244 13.4252C0.0257641 13.3793 0 13.3171 0 13.2523C0 13.1874 0.0257641 13.1252 0.0716244 13.0794C0.117485 13.0335 0.179685 13.0077 0.244541 13.0077H3.47554C3.54039 13.0077 3.60259 13.0335 3.64845 13.0794C3.69431 13.1252 3.72008 13.1874 3.72008 13.2523C3.72008 13.3171 3.69431 13.3793 3.64845 13.4252C3.60259 13.4711 3.54039 13.4968 3.47554 13.4968H0.244541ZM1.86493 6.95951C1.80894 6.92708 1.76813 6.87374 1.75147 6.81122C1.73481 6.7487 1.74367 6.68213 1.7761 6.62614C1.80853 6.57015 1.86187 6.52934 1.92439 6.51268C1.98691 6.49602 2.05348 6.50488 2.10947 6.53731L4.90757 8.15281C4.93529 8.16886 4.95958 8.19022 4.97904 8.21567C4.99851 8.24111 5.01278 8.27014 5.02103 8.3011C5.02927 8.33205 5.03134 8.36433 5.02712 8.39609C5.02289 8.42784 5.01245 8.45846 4.9964 8.48618C4.98034 8.5139 4.95898 8.53819 4.93354 8.55766C4.90809 8.57712 4.87907 8.59139 4.84811 8.59964C4.81715 8.60788 4.78487 8.60995 4.75312 8.60573C4.72136 8.6015 4.69075 8.59106 4.66303 8.57501L1.86493 6.95951ZM6.53725 2.10855C6.5061 2.05263 6.49822 1.98669 6.51532 1.925C6.53243 1.86331 6.57314 1.81083 6.62864 1.77894C6.68414 1.74704 6.74997 1.73828 6.81189 1.75456C6.8738 1.77083 6.92681 1.81084 6.95945 1.86591L8.57495 4.66401C8.59087 4.69173 8.60119 4.72232 8.60529 4.75403C8.6094 4.78575 8.60722 4.81795 8.59887 4.84882C8.59053 4.87969 8.57619 4.90861 8.55667 4.93394C8.53715 4.95927 8.51283 4.9805 8.48511 4.99643C8.45738 5.01236 8.42679 5.02267 8.39508 5.02677C8.36337 5.03088 8.33116 5.0287 8.30029 5.02036C8.26942 5.01201 8.2405 4.99767 8.21517 4.97815C8.18985 4.95863 8.16861 4.93432 8.15269 4.90659L6.53725 2.10855Z" fill="#FFD266"/>
<path fill-rule="evenodd" clip-rule="evenodd" d="M17.3222 19.2785C17.1812 19.65 17.1112 20.0506 17.1112 20.4832C17.1112 21.4974 16.4089 21.3369 15.9281 21.3369H8.73438C8.79375 21.4275 8.8623 21.5118 8.93893 21.5884C9.22242 21.8719 9.61362 22.0479 10.0442 22.0479H16.4636C16.8821 22.0452 17.2714 21.886 17.5689 21.5884C17.8524 21.305 18.0283 20.9138 18.0283 20.4832C18.0283 20.0506 18.0983 19.65 18.2393 19.2785C18.3807 18.9061 18.5938 18.5601 18.8799 18.2375C19.4852 17.5557 19.9614 16.7694 20.2853 15.9172C20.5998 15.0881 20.772 14.1899 20.772 13.2525C20.772 11.1764 19.9305 9.29691 18.57 7.9364C17.2095 6.5759 15.3299 5.73438 13.2539 5.73438C13.1 5.73438 12.9471 5.73902 12.7954 5.74813C14.6888 5.86203 16.3933 6.67677 17.653 7.9364C19.0135 9.29691 19.855 11.1764 19.855 13.2525C19.855 14.1899 19.6828 15.0881 19.3682 15.9172C19.0444 16.7694 18.5682 17.5557 17.9629 18.2375C17.6767 18.5601 17.4636 18.9061 17.3222 19.2785Z" fill="#E6BD5C"/>
<path fill-rule="evenodd" clip-rule="evenodd" d="M14.7036 26.6367C14.5549 27.0378 14.2919 27.3865 13.9472 27.6398C13.7191 27.8078 13.4604 27.9297 13.1855 27.9986C13.6728 28.0138 14.1509 27.8648 14.5433 27.5756C14.869 27.3361 15.1222 27.0111 15.2747 26.6367H14.7036Z" fill="#323235"/>
</svg>
