<svg width="73" height="73" viewBox="0 0 73 73" fill="none" xmlns="http://www.w3.org/2000/svg">
<g id="Group">
<path id="Vector" fill-rule="evenodd" clip-rule="evenodd" d="M36.5 73H30.5592C30.2567 73 29.9666 72.8798 29.7527 72.6659C29.5388 72.452 29.4186 72.1619 29.4186 71.8594V66.0137C26.3178 65.2743 23.3546 64.0458 20.6402 62.3744L16.5044 66.5101C16.3985 66.616 16.2727 66.7001 16.1344 66.7574C15.996 66.8147 15.8476 66.8442 15.6979 66.8442C15.5481 66.8442 15.3997 66.8147 15.2613 66.7574C15.123 66.7001 14.9972 66.616 14.8913 66.5101L6.48968 58.1085C6.38376 58.0026 6.29974 57.8768 6.24241 57.7385C6.18509 57.6001 6.15559 57.4517 6.15559 57.3019C6.15559 57.1522 6.18509 57.0038 6.24241 56.8654C6.29974 56.7271 6.38376 56.6013 6.48968 56.4954L10.6254 52.3596C8.95413 49.6452 7.72565 46.6819 6.98613 43.5812H1.14062C0.838112 43.5812 0.54799 43.461 0.334081 43.2471C0.120173 43.0332 0 42.7431 0 42.4406V30.559C0 30.2565 0.120173 29.9664 0.334081 29.7525C0.54799 29.5386 0.838112 29.4184 1.14062 29.4184H6.98633C7.72571 26.3176 8.9542 23.3544 10.6256 20.64L6.48988 16.5042C6.38396 16.3983 6.29994 16.2725 6.24261 16.1342C6.18529 15.9958 6.15578 15.8474 6.15578 15.6977C6.15578 15.5479 6.18529 15.3995 6.24261 15.2611C6.29994 15.1228 6.38396 14.997 6.48988 14.8911L14.8915 6.48948C14.9974 6.38356 15.1232 6.29954 15.2615 6.24222C15.3999 6.18489 15.5483 6.15539 15.698 6.15539C15.8478 6.15539 15.9962 6.18489 16.1346 6.24222C16.2729 6.29954 16.3987 6.38356 16.5046 6.48948L20.6404 10.6252C23.3548 8.95393 26.3181 7.72545 29.4188 6.98593V1.14063C29.4188 0.838113 29.539 0.54799 29.7529 0.334081C29.9668 0.120173 30.2569 0 30.5594 0H36.5002C36.8027 0 37.0928 0.120173 37.3067 0.334081C37.5206 0.54799 37.6408 0.838113 37.6408 1.14063V17.7831C37.6408 18.0856 37.5206 18.3757 37.3067 18.5896C37.0928 18.8035 36.8027 18.9237 36.5002 18.9237C26.8086 18.9237 18.9239 26.8083 18.9239 36.4998C18.9239 46.1913 26.8086 54.0761 36.5002 54.0761C36.8027 54.0761 37.0928 54.1963 37.3067 54.4102C37.5206 54.6241 37.6408 54.9142 37.6408 55.2167V71.8594C37.6408 72.1619 37.5205 72.452 37.3066 72.6659C37.0927 72.8798 36.8025 73 36.5 73ZM31.6999 70.7188H35.3594V56.3255C33.0912 56.1998 30.8618 55.6825 28.7701 54.7963C26.4053 53.7961 24.2818 52.3646 22.4586 50.5412C20.6352 48.718 19.2037 46.5943 18.2035 44.2297C17.1678 41.7809 16.6424 39.1801 16.6424 36.4998C16.6424 33.8195 17.1676 31.2189 18.2035 28.7701C19.2037 26.4053 20.6352 24.2818 22.4586 22.4586C24.2818 20.6352 26.4055 19.2037 28.7701 18.2035C30.8618 17.3174 33.0912 16.8001 35.3594 16.6745V2.28125H31.6999V7.90081C31.6999 8.16324 31.6094 8.41765 31.4437 8.62114C31.278 8.82463 31.0471 8.96474 30.7901 9.01787C27.3277 9.73353 24.0698 11.0841 21.1071 13.0318C20.8878 13.176 20.6256 13.2402 20.3645 13.2135C20.1034 13.1868 19.8595 13.0709 19.674 12.8853L15.698 8.90935L8.90935 15.698L12.8853 19.674C13.0709 19.8596 13.1867 20.1034 13.2134 20.3645C13.2401 20.6255 13.176 20.8878 13.0318 21.1071C11.0839 24.0698 9.73353 27.3277 9.01787 30.7901C8.96478 31.0472 8.82468 31.278 8.62119 31.4438C8.4177 31.6096 8.16327 31.7001 7.90081 31.7001H2.28125V41.3003H7.90081C8.16324 41.3003 8.41765 41.3908 8.62114 41.5565C8.82463 41.7222 8.96474 41.9531 9.01787 42.2101C9.73353 45.6725 11.0841 48.9304 13.0318 51.8931C13.176 52.1124 13.2402 52.3746 13.2135 52.6357C13.1868 52.8968 13.0709 53.1406 12.8853 53.3262L8.90935 57.3021L15.698 64.0909L19.674 60.1149C19.8596 59.9293 20.1035 59.8134 20.3646 59.7867C20.6257 59.76 20.888 59.8242 21.1073 59.9684C24.07 61.9163 27.3279 63.2669 30.7903 63.9825C31.0473 64.0357 31.2782 64.1758 31.4439 64.3793C31.6096 64.5827 31.7001 64.8372 31.7001 65.0996L31.6999 70.7188ZM66.4275 37.6406H45.3594C45.0569 37.6406 44.7668 37.5205 44.5529 37.3065C44.339 37.0926 44.2188 36.8025 44.2188 36.5C44.2188 36.1975 44.339 35.9074 44.5529 35.6935C44.7668 35.4795 45.0569 35.3594 45.3594 35.3594H66.4275C66.73 35.3594 67.0202 35.4795 67.2341 35.6935C67.448 35.9074 67.5682 36.1975 67.5682 36.5C67.5682 36.8025 67.448 37.0926 67.2341 37.3065C67.0202 37.5205 66.73 37.6406 66.4275 37.6406ZM42.7645 31.3761C42.5389 31.3761 42.3184 31.3092 42.1308 31.1839C41.9432 31.0585 41.797 30.8804 41.7107 30.672C41.6244 30.4636 41.6018 30.2342 41.6458 30.0129C41.6898 29.7917 41.7984 29.5884 41.958 29.4289L52.0155 19.3714C52.1214 19.2655 52.2471 19.1815 52.3855 19.1242C52.5239 19.0668 52.6722 19.0373 52.822 19.0373H65.002C65.3045 19.0373 65.5946 19.1575 65.8085 19.3714C66.0224 19.5853 66.1426 19.8755 66.1426 20.178C66.1426 20.4805 66.0224 20.7706 65.8085 20.9845C65.5946 21.1984 65.3045 21.3186 65.002 21.3186H53.2945L43.5711 31.042C43.4653 31.1481 43.3396 31.2322 43.2011 31.2896C43.0627 31.3469 42.9143 31.3763 42.7645 31.3761ZM65.002 53.9625H52.822C52.6722 53.9625 52.5239 53.933 52.3855 53.8756C52.2471 53.8183 52.1214 53.7343 52.0155 53.6284L41.958 43.5709C41.852 43.465 41.768 43.3392 41.7107 43.2008C41.6534 43.0624 41.6239 42.9141 41.6239 42.7643C41.6239 42.6145 41.6534 42.4662 41.7107 42.3278C41.768 42.1894 41.852 42.0637 41.958 41.9578C42.0639 41.8519 42.1896 41.7678 42.328 41.7105C42.4664 41.6532 42.6147 41.6237 42.7645 41.6237C42.9143 41.6237 43.0626 41.6532 43.201 41.7105C43.3394 41.7678 43.4652 41.8519 43.5711 41.9578L53.2945 51.6812H65.002C65.3045 51.6812 65.5946 51.8014 65.8085 52.0153C66.0224 52.2292 66.1426 52.5193 66.1426 52.8218C66.1426 53.1243 66.0224 53.4145 65.8085 53.6284C65.5946 53.8423 65.3045 53.9625 65.002 53.9625Z" fill="white"/>
<path id="Vector_2" fill-rule="evenodd" clip-rule="evenodd" d="M67.7179 24.0353C65.5915 24.0353 63.8613 22.3054 63.8613 20.1788C63.8613 18.0522 65.5913 16.3223 67.7179 16.3223C69.8445 16.3223 71.5744 18.0524 71.5744 20.1788C71.5744 22.3052 69.8445 24.0353 67.7179 24.0353ZM67.7179 18.6033C66.8491 18.6033 66.1426 19.3101 66.1426 20.1786C66.1426 21.0471 66.8491 21.7539 67.7179 21.7539C68.5866 21.7539 69.2934 21.0473 69.2934 20.1786C69.2932 19.3101 68.5866 18.6033 67.7179 18.6033ZM69.1437 40.357C67.0173 40.357 65.2871 38.627 65.2871 36.5004C65.2871 34.3738 67.0171 32.6439 69.1437 32.6439C71.2702 32.6439 73.0002 34.3738 73.0002 36.5004C73.0002 38.6268 71.2702 40.357 69.1437 40.357ZM69.1437 34.9251C68.2749 34.9251 67.5684 35.6319 67.5684 36.5004C67.5684 37.369 68.2751 38.0757 69.1437 38.0757C70.0124 38.0757 70.7191 37.369 70.7191 36.5004C70.7191 35.6319 70.0124 34.9251 69.1437 34.9251ZM67.7179 56.6786C65.5915 56.6786 63.8613 54.9487 63.8613 52.8221C63.8613 50.6955 65.5913 48.9655 67.7179 48.9655C69.8445 48.9655 71.5744 50.6955 71.5744 52.8221C71.5744 54.9487 69.8445 56.6786 67.7179 56.6786ZM67.7179 51.2468C66.8491 51.2468 66.1426 51.9535 66.1426 52.8221C66.1426 53.6906 66.8491 54.3974 67.7179 54.3974C68.5866 54.3974 69.2932 53.6906 69.2932 52.8221C69.2932 51.9533 68.5866 51.2468 67.7179 51.2468Z" fill="#E9FFEA"/>
</g>
</svg>
