<svg width="33" height="50" viewBox="0 0 33 50" fill="none" xmlns="http://www.w3.org/2000/svg">
<path fill-rule="evenodd" clip-rule="evenodd" d="M16.5321 1C7.68991 1 1 5.31381 1 8.29151V37.5275C1 46.9036 9.49238 48.9859 16.5321 48.9999C23.9845 49.0162 31.6339 46.4862 31.6339 37.5275V8.29151C31.6339 5.31381 25.3742 1 16.5321 1Z" stroke="white"/>
<path fill-rule="evenodd" clip-rule="evenodd" d="M9.10863 8.2915H24.0707L24.2886 8.77628L16.5725 11.352L8.85645 8.83749L9.10863 8.2915Z" fill="white"/>
<path fill-rule="evenodd" clip-rule="evenodd" d="M6.83805 34.2778C5.6535 34.2778 4.70117 33.3171 4.70117 32.1348V19.2381C4.70117 18.0536 5.6535 17.0952 6.83805 17.0952H25.8186C27.0031 17.0952 27.9615 18.0536 27.9615 19.2381V32.1348C27.9615 33.3171 27.0031 34.2778 25.8186 34.2778H6.83805Z" stroke="white"/>
</svg>
