<svg width="33" height="55" viewBox="0 0 33 55" fill="none" xmlns="http://www.w3.org/2000/svg">
<path d="M27.6912 52.872H12.1633C9.93528 52.872 7.70706 52.8801 5.47908 52.872C3.86503 52.866 2.37089 52.0191 1.73194 50.4894C1.45878 49.8355 1.43707 49.1732 1.43707 48.4859V7.28162C1.43707 5.68465 1.25441 4.02434 2.41632 2.72757C3.95197 1.01365 6.5021 1.42309 8.57434 1.42309H26.6972C27.4516 1.42309 28.1938 1.38513 28.9245 1.62212C30.5541 2.15053 31.5563 3.70361 31.5744 5.37756C31.6178 9.39965 31.5744 13.4247 31.5744 17.4469V37.9084C31.5744 41.5989 31.6315 45.2945 31.5744 48.9846C31.541 51.133 29.8377 52.8341 27.6912 52.872C26.7763 52.8881 26.7734 54.3114 27.6912 54.2953C30.1902 54.2513 32.4482 52.4883 32.9014 49.9864C33.0016 49.4331 32.9977 48.8923 32.9977 48.3362V6.47471C32.9977 6.09445 33.0029 5.71383 32.9977 5.33368C32.9696 3.27923 31.8092 1.3435 29.9102 0.48915C28.9305 0.0483929 27.9404 0 26.8978 0H5.7048C4.25419 0 2.9063 0.369235 1.79196 1.34469C0.607629 2.38134 0.0201502 3.88971 0.0137453 5.44244C0.00781473 6.87123 0.0137453 8.30013 0.0137453 9.72891V46.684C0.0137453 48.2563 -0.138194 49.8907 0.56825 51.3489C1.4602 53.1902 3.37422 54.2732 5.38668 54.2954C6.09989 54.3032 6.81357 54.2954 7.52666 54.2954L27.6912 54.2953C28.607 54.2952 28.6085 52.872 27.6912 52.872Z" fill="white"/>
<path d="M22.3782 3.74015H16.8025C14.7661 3.74015 12.7093 3.82602 10.6746 3.74015C9.03038 3.67076 9.32845 1.8623 9.32845 0.711663L8.61678 1.42333H24.3972L23.6855 0.711663C23.6855 1.82043 23.9894 3.67503 22.3782 3.74015C21.4655 3.77703 21.4608 5.2006 22.3782 5.16347C23.7482 5.10808 24.9122 4.15196 25.0824 2.7603C25.1646 2.08814 25.1089 1.38798 25.1089 0.711663C25.1089 0.327009 24.7828 0 24.3972 0H8.61678C8.23213 0 7.90512 0.32606 7.90512 0.711663C7.90512 2.1918 7.73195 3.78119 9.14863 4.72022C9.9489 5.25077 10.8881 5.16335 11.7971 5.16335H22.3783C23.2941 5.16347 23.2955 3.74015 22.3782 3.74015ZM24.3972 47.3682H8.61678C7.70099 47.3682 7.69945 48.7915 8.61678 48.7915H24.3972C25.313 48.7915 25.3145 47.3682 24.3972 47.3682Z" fill="white"/>
</svg>
