<svg width="53" height="53" viewBox="0 0 53 53" fill="none" xmlns="http://www.w3.org/2000/svg">
<path d="M51.8873 46.375H18.6497C18.1373 43.8575 15.9069 41.9583 13.2414 41.9583C10.576 41.9583 8.34557 43.8575 7.83323 46.375H1.09561C-0.366307 46.375 -0.364099 48.5833 1.09561 48.5833H7.83323C8.34557 51.1008 10.576 53 13.2414 53C15.9069 53 18.1373 51.1008 18.6497 48.5833H51.8873C53.3492 48.5833 53.347 46.375 51.8873 46.375ZM13.2414 50.7917C11.4152 50.7917 9.92894 49.3055 9.92894 47.4792C9.92894 45.6529 11.4152 44.1667 13.2414 44.1667C15.0677 44.1667 16.5539 45.6529 16.5539 47.4792C16.5539 49.3055 15.0677 50.7917 13.2414 50.7917ZM51.8873 25.3958H45.1496C44.6373 22.8783 42.4069 20.9792 39.7414 20.9792C37.076 20.9792 34.8456 22.8783 34.3332 25.3958H1.09561C-0.366307 25.3958 -0.364099 27.6042 1.09561 27.6042H34.3332C34.8456 30.1217 37.076 32.0208 39.7414 32.0208C42.4069 32.0208 44.6373 30.1217 45.1496 27.6042H51.8873C53.3492 27.6042 53.347 25.3958 51.8873 25.3958ZM39.7414 29.8125C37.9151 29.8125 36.4289 28.3263 36.4289 26.5C36.4289 24.6737 37.9151 23.1875 39.7414 23.1875C41.5677 23.1875 43.0539 24.6737 43.0539 26.5C43.0539 28.3263 41.5677 29.8125 39.7414 29.8125ZM1.09561 6.625H18.8749C19.3872 9.1425 21.6177 11.0417 24.2831 11.0417C26.9486 11.0417 29.179 9.1425 29.6913 6.625H51.8873C53.3492 6.625 53.347 4.41667 51.8873 4.41667H29.6913C29.179 1.89917 26.9486 0 24.2831 0C21.6177 0 19.3872 1.89917 18.8749 4.41667H1.09561C-0.366307 4.41667 -0.364099 6.625 1.09561 6.625ZM24.2831 2.20833C26.1094 2.20833 27.5956 3.69454 27.5956 5.52083C27.5956 7.34712 26.1094 8.83333 24.2831 8.83333C22.4568 8.83333 20.9706 7.34712 20.9706 5.52083C20.9706 3.69454 22.4568 2.20833 24.2831 2.20833Z" fill="white"/>
</svg>
