<svg width="52" height="60" viewBox="0 0 52 60" fill="none" xmlns="http://www.w3.org/2000/svg">
<path fill-rule="evenodd" clip-rule="evenodd" d="M41.4217 59.9993C41.2916 59.9993 41.1619 59.9631 41.0473 59.891C29.5063 52.6283 30.824 42.9552 31.9265 39.134C32.5266 37.0527 32.8262 36.9515 33.1777 36.9469C37.4591 36.2891 40.6816 33.6393 40.714 33.6126C40.8326 33.5133 40.9808 33.4561 41.1354 33.4498C41.29 33.4435 41.4423 33.4885 41.5686 33.5778C41.607 33.6052 45.4939 36.3074 49.8182 36.955C50.0531 36.9898 50.2545 37.141 50.3533 37.3565C50.4145 37.4894 56.2966 50.7664 41.7961 59.8914C41.684 59.9619 41.5542 59.9993 41.4217 59.9993ZM33.709 38.2853C32.983 40.0477 29.3432 50.6012 41.422 58.4612C53.1898 50.7963 49.9655 40.2843 49.2111 38.2804C45.5417 37.6335 42.334 35.747 41.1953 35.0175C40.1631 35.7786 37.3372 37.6476 33.709 38.2853Z" fill="white"/>
<path fill-rule="evenodd" clip-rule="evenodd" d="M41.4223 55.8996C41.2809 55.8996 41.1403 55.8571 41.0194 55.7727C35.5936 51.9821 33.2381 46.4118 35.1088 40.4949C35.4168 39.5207 37.3993 40.3085 40.9139 37.7572C41.0249 37.6767 41.157 37.6303 41.2939 37.6238C41.4309 37.6173 41.5668 37.651 41.6849 37.7206C43.3967 38.7314 45.4267 39.5463 47.2538 39.9577C48.3637 40.2069 48.395 44.5305 48.3158 45.4872C47.9812 49.5365 45.7976 52.9974 41.8252 55.7737C41.7042 55.8578 41.5636 55.9003 41.4223 55.9003V55.8996ZM36.334 41.3137C34.966 46.371 36.848 50.9629 41.4223 54.3309C45.992 50.9667 47.8999 46.3039 46.539 41.2325C44.8251 40.8018 42.9818 40.0624 41.3643 39.1579C39.8648 40.1697 38.0739 40.9375 36.334 41.314V41.3137Z" fill="white"/>
<path fill-rule="evenodd" clip-rule="evenodd" d="M38.5584 57.9309H3.14655C1.41155 57.9309 0 56.5186 0 54.784V26.3008C0 24.5658 1.41155 23.1543 3.14655 23.1543H39.0358C40.7698 23.1543 42.1869 24.5673 42.1827 26.3023L42.1627 34.3511C42.1588 35.7176 39.8754 34.7652 40.5905 33.7481C40.6363 33.683 40.6928 33.6261 40.7575 33.5797L40.7757 26.2984C40.7786 25.3421 39.9907 24.5602 39.0362 24.5602L3.1469 24.5606C2.18747 24.5606 1.40663 25.3414 1.40663 26.3008V54.784C1.40663 55.7441 2.18747 56.5242 3.1469 56.5242H38.5587C39.4848 56.5242 39.4834 57.9312 38.5587 57.9312L38.5584 57.9309Z" fill="white"/>
<path fill-rule="evenodd" clip-rule="evenodd" d="M34.8485 24.5606C34.4604 24.5606 34.1454 24.2456 34.1454 23.8575V12.583C34.1454 6.42001 29.1317 1.40628 22.9694 1.40628H19.2139C13.0509 1.40628 8.03714 6.42036 8.03714 12.583V23.8575C8.03714 24.7832 6.63086 24.7832 6.63086 23.8575V12.583C6.63086 5.64515 12.276 0 19.2139 0H22.9694C29.9076 0 35.5524 5.64515 35.5524 12.583V23.8575C35.5517 24.2463 35.237 24.5606 34.8485 24.5606ZM30.4701 24.5606C30.082 24.5606 29.767 24.2456 29.767 23.8575V12.583C29.767 8.83459 26.7174 5.78473 22.969 5.78473H19.2135C15.4644 5.78473 12.4145 8.83459 12.4145 12.583V23.8575C12.4145 24.7832 11.0083 24.7832 11.0083 23.8575V12.583C11.0083 8.05903 14.6888 4.37845 19.2135 4.37845H22.969C27.493 4.37845 31.1736 8.05903 31.1736 12.583V23.8575C31.1729 24.2463 30.8582 24.5606 30.4697 24.5606H30.4701ZM25.3003 50.7856H16.8911C16.4506 50.7856 16.1173 50.382 16.2006 49.9496L18.3325 38.8896C16.2238 36.5232 17.8976 32.7329 21.0913 32.7329C24.2846 32.7329 25.958 36.5242 23.8493 38.8896L26.0038 50.0832C26.003 50.471 25.6887 50.7856 25.2999 50.7856H25.3003ZM17.7426 49.379H24.4389L22.3977 38.7904C22.2458 38.0036 23.381 37.9667 23.381 36.4279C23.381 33.4139 18.8004 33.4153 18.8004 36.4279C18.8004 37.966 19.9353 38.004 19.7834 38.7904L17.7422 49.379H17.7426Z" fill="white"/>
</svg>
