<svg width="52" height="67" viewBox="0 0 52 67" fill="none" xmlns="http://www.w3.org/2000/svg">
<path d="M13.4484 56.7975C17.0827 63.0904 23.8548 66.9997 31.1217 66.9997C42.3751 66.9997 51.5305 57.8444 51.5305 46.591V30.6117C51.5305 27.7453 49.1985 25.4134 46.3321 25.4134C45.2334 25.4121 44.1629 25.7609 43.2758 26.4091C42.6921 24.1772 40.6582 22.5254 38.2458 22.5254C37.0844 22.5242 35.9564 22.9139 35.0434 23.6317C34.3147 21.6403 32.4005 20.2151 30.1596 20.2151C29.1311 20.2139 28.1255 20.5196 27.2717 21.0931V10.9737C27.2717 8.10731 24.9398 5.77539 22.0733 5.77539C19.2069 5.77539 16.875 8.10731 16.875 10.9737V38.533C16.8746 38.7072 16.8246 38.8777 16.731 39.0245C16.6373 39.1714 16.5038 39.2886 16.3461 39.3624C16.1389 39.4599 15.9027 39.4758 15.6844 39.4068C15.4661 39.3379 15.2818 39.1892 15.1683 38.9904L11.7021 32.9868C9.63204 29.4012 5.03114 28.1684 1.44532 30.2385C1.11622 30.4273 0.827832 30.6795 0.596856 30.9806C0.36588 31.2816 0.196898 31.6255 0.0996889 31.9922C0.000546473 32.3585 -0.0249763 32.7408 0.0245971 33.117C0.0741706 33.4932 0.197856 33.8558 0.388496 34.1839L13.4484 56.7975ZM2.33176 32.5901C2.35129 32.5168 2.38512 32.4481 2.43132 32.3879C2.47752 32.3277 2.53516 32.2772 2.60094 32.2394C3.40194 31.777 4.29073 31.5408 5.19144 31.5408C5.64291 31.5408 6.09752 31.6002 6.54519 31.7202C7.88637 32.0795 9.00731 32.9397 9.70152 34.1421L13.1677 40.1457C14.0094 41.6034 15.7949 42.1671 17.3208 41.4575C18.4537 40.9305 19.1857 39.7827 19.1857 38.5333V10.9737C19.1857 9.38123 20.4812 8.08572 22.0737 8.08572C23.6661 8.08572 24.9616 9.38123 24.9616 10.9737V32.3444C24.9616 32.6508 25.0833 32.9446 25.3 33.1612C25.5166 33.3779 25.8105 33.4996 26.1168 33.4996C26.4232 33.4996 26.7171 33.3779 26.9337 33.1612C27.1504 32.9446 27.2721 32.6508 27.2721 32.3444V25.4134C27.2721 23.821 28.5676 22.5254 30.16 22.5254C31.7524 22.5254 33.048 23.821 33.048 25.4134V32.3444C33.048 32.6508 33.1697 32.9446 33.3863 33.1612C33.603 33.3779 33.8968 33.4996 34.2032 33.4996C34.5096 33.4996 34.8034 33.3779 35.0201 33.1612C35.2367 32.9446 35.3584 32.6508 35.3584 32.3444V27.7237C35.3584 26.1313 36.6539 24.8358 38.2464 24.8358C39.8388 24.8358 41.1343 26.1313 41.1343 27.7237V32.922C41.1343 33.2284 41.256 33.5222 41.4727 33.7389C41.6893 33.9555 41.9832 34.0772 42.2895 34.0772C42.5959 34.0772 42.8898 33.9555 43.1064 33.7389C43.3231 33.5222 43.4448 33.2284 43.4448 32.922V30.6117C43.4448 29.0192 44.7403 27.7237 46.3327 27.7237C47.9251 27.7237 49.2207 29.0192 49.2207 30.6117V46.591C49.2207 56.5704 41.1017 64.6894 31.1221 64.6894C24.6778 64.6894 18.6725 61.2226 15.4495 55.642L2.38947 33.0284C2.35139 32.9628 2.32668 32.8902 2.31678 32.815C2.30687 32.7398 2.31197 32.6634 2.33176 32.5901Z" fill="white"/>
<path d="M14.192 16.9436C14.3227 16.8666 14.437 16.7647 14.5283 16.6436C14.6196 16.5225 14.6862 16.3845 14.7242 16.2377C14.7622 16.0908 14.771 15.9379 14.7499 15.7877C14.7288 15.6375 14.6784 15.4929 14.6014 15.3622C13.822 14.038 13.4099 12.5207 13.4099 10.9742C13.4099 6.19687 17.2965 2.31033 22.0738 2.31033C26.8511 2.31033 30.7376 6.19687 30.7376 10.9742C30.7376 12.5264 30.3225 14.049 29.5374 15.3769C29.3831 15.6406 29.3396 15.9546 29.4163 16.2502C29.493 16.5459 29.6837 16.7992 29.9466 16.9546C30.2095 17.1101 30.5233 17.1551 30.8193 17.0798C31.1153 17.0045 31.3695 16.815 31.5262 16.5528C32.5219 14.8691 33.0481 12.9399 33.0481 10.9742C33.0479 4.92295 28.125 0 22.0738 0C16.0226 0 11.0996 4.92295 11.0996 10.9742C11.0996 12.9325 11.622 14.8551 12.6104 16.5341C12.9343 17.084 13.6425 17.2672 14.192 16.9436Z" fill="white"/>
</svg>
