<svg width="73" height="71" viewBox="0 0 73 71" fill="none" xmlns="http://www.w3.org/2000/svg">
<g id="Group">
<path id="Vector" d="M43.165 38.3751H38.235L37.4573 37.6808L35.2227 18.0924L36.0004 17.2207H45.3996L46.1766 18.0924L43.9427 37.6808L43.165 38.3751ZM38.9331 36.8091H42.4661L44.5226 18.786H36.8774L38.9331 36.8091Z" fill="url(#paint0_linear_2932_1188)"/>
<g id="Group_2">
<path id="Vector_2" d="M45.8773 38.3746H35.5215C34.9706 38.374 34.4425 38.1549 34.053 37.7654C33.6635 37.3759 33.4444 36.8478 33.4438 36.2969C33.4438 34.0191 32.35 31.8808 30.4421 30.4285C26.1897 27.1918 23.752 22.2746 23.752 16.9383C23.7536 14.5512 24.259 12.1914 25.2351 10.0131C26.2113 7.83478 27.6361 5.88698 29.4165 4.29702C33.017 1.08611 37.8561 -0.440513 42.6854 0.110556C50.4549 0.995905 56.7032 7.27901 57.5446 15.0486C58.1964 21.08 55.7109 26.8469 50.8946 30.4762C49.0541 31.8634 47.955 34.0388 47.955 36.2954C47.9546 36.8465 47.7357 37.3749 47.3461 37.7647C46.9566 38.1545 46.4284 38.3738 45.8773 38.3746ZM40.6767 1.56062C36.8904 1.56062 33.3172 2.91517 30.4603 5.4651C28.844 6.90791 27.5504 8.67564 26.6641 10.6527C25.7779 12.6298 25.3189 14.7716 25.3172 16.9383C25.3172 21.7819 27.5306 26.2443 31.3904 29.1823C33.6902 30.9333 35.0091 33.5264 35.0091 36.2969C35.0091 36.5789 35.2388 36.8086 35.5215 36.8086H45.8773C46.0131 36.8084 46.1432 36.7544 46.2392 36.6586C46.3352 36.5627 46.3894 36.4326 46.3898 36.2969C46.3898 33.5507 47.7216 30.9075 49.9524 29.2263C54.3246 25.932 56.5804 20.6949 55.9884 15.2168C55.2258 8.16815 49.5567 2.46871 42.5073 1.66522C41.8993 1.59598 41.2886 1.56106 40.6767 1.56062Z" fill="url(#paint1_linear_2932_1188)"/>
<path id="Vector_3" d="M35.0957 37.5879H36.661V40.3516H35.0957V37.5879ZM46.2725 42.5551L44.7239 42.3277C44.7345 42.2534 44.739 42.1753 44.739 42.0965V37.5879H46.3051V42.0965C46.3053 42.25 46.2944 42.4032 46.2725 42.5551Z" fill="url(#paint2_linear_2932_1188)"/>
</g>
<g id="Group_3">
<path id="Vector_4" d="M63.8582 15.2583H69.2696V16.8236H63.8582V15.2583ZM61.8555 7.36062L66.8826 5.36328L67.4602 6.81865L62.4331 8.81523L61.8555 7.36062ZM61.901 24.7386L62.4801 23.284L67.5072 25.2867L66.9281 26.7405L61.901 24.7386ZM12.1289 15.2583H17.5403V16.8236H12.1289V15.2583ZM13.9155 6.82547L14.4954 5.3701L19.5225 7.37275L18.9434 8.82812L13.9155 6.82547ZM13.9042 25.2723L18.932 23.2696L19.5111 24.7242L14.4833 26.7261L13.9042 25.2723Z" fill="url(#paint3_linear_2932_1188)"/>
</g>
<g id="Group_4">
<path id="Vector_5" d="M24.3119 62.0261L23.3105 60.8224L25.6164 58.9024L26.1167 58.7212H46.1492C47.406 58.7212 48.618 58.4559 49.7535 57.9298L53.1077 56.379C54.1138 55.9199 55.0197 55.2672 55.7736 54.4582L62.106 47.7074C62.4357 47.3534 62.7245 46.9903 62.9625 46.6295L70.3288 35.6801C70.3851 35.5966 70.4223 35.5016 70.4378 35.4021C70.4532 35.3025 70.4466 35.2007 70.4183 35.104C70.3914 35.0059 70.3432 34.9149 70.2772 34.8375C70.2112 34.76 70.1289 34.6981 70.0362 34.6561L69.614 34.4688C68.1826 33.8045 66.5552 33.6968 65.0488 34.1667C63.5423 34.6365 62.2647 35.6502 61.4647 37.0104L58.7298 41.6312L58.4274 41.9223L50.8473 46.0057L50.1045 44.6261L57.4935 40.6466L60.117 36.2138C61.1126 34.5215 62.7017 33.2598 64.5756 32.6736C66.4494 32.0873 68.4742 32.2185 70.2568 33.0415L70.6828 33.2295C70.982 33.3654 71.2481 33.5648 71.4627 33.8138C71.6772 34.0628 71.835 34.3554 71.9251 34.6715C72.0152 34.9875 72.0356 35.3194 71.9847 35.6441C71.9338 35.9688 71.8128 36.2785 71.6303 36.5518L64.2655 47.4974C63.9624 47.9504 63.6227 48.3778 63.2498 48.7754L56.9174 55.5277C56.0249 56.4848 54.953 57.2572 53.7626 57.801L50.4107 59.3503C49.0757 59.97 47.6211 60.2896 46.1492 60.2865H26.4002L24.3119 62.0261Z" fill="url(#paint4_linear_2932_1188)"/>
<path id="Vector_6" d="M20.521 70.9996C20.0876 71.0008 19.6583 70.916 19.2579 70.7501C18.8576 70.5842 18.4941 70.3405 18.1886 70.0332L0.964457 52.809C0.346838 52.1898 0 51.3509 0 50.4763C0 49.6017 0.346838 48.7628 0.964457 48.1435L3.96919 45.1395C4.59227 44.5164 5.42001 44.1738 6.30157 44.1738C7.18313 44.1738 8.01087 44.5164 8.63395 45.1395L25.8581 62.3637C26.4812 62.9867 26.8245 63.8145 26.8245 64.696C26.8245 65.5776 26.4812 66.4053 25.8581 67.0284L22.8534 70.0332C22.5478 70.3405 22.1844 70.5842 21.784 70.7501C21.3836 70.916 20.9543 71.0008 20.521 70.9996ZM6.30157 45.7391C5.83918 45.7391 5.40333 45.9188 5.07663 46.247L2.07114 49.2502C1.74704 49.5758 1.56508 50.0165 1.56508 50.4759C1.56508 50.9353 1.74704 51.376 2.07114 51.7016L19.2953 68.9257C19.9502 69.5799 21.0918 69.5799 21.7467 68.9257L24.7514 65.921C25.0781 65.5935 25.2593 65.1584 25.2593 64.6953C25.2593 64.2321 25.0781 63.7971 24.7514 63.4704L7.52726 46.2462C7.36679 46.0846 7.17579 45.9565 6.96538 45.8693C6.75497 45.7821 6.52933 45.7383 6.30157 45.7391Z" fill="url(#paint5_linear_2932_1188)"/>
<path id="Vector_7" d="M49.3415 50.5876H37.1657V49.0223H49.3423C49.8554 49.0223 50.2723 48.6054 50.2723 48.0915V47.7178C50.2723 45.2391 48.2568 43.2236 45.7789 43.2236H38.477L37.9517 43.0212L37.3279 42.4565C34.449 39.8503 30.7037 38.4083 26.8204 38.411H26.7295C24.5747 38.4139 22.4435 38.8598 20.4684 39.7211C18.4933 40.5824 16.7163 41.8406 15.248 43.4176L10.1762 48.879L9.0293 47.814L14.1011 42.3518C15.7162 40.6174 17.6707 39.2337 19.8431 38.2864C22.0155 37.3392 24.3595 36.8488 26.7295 36.8457H26.8204C31.0994 36.8457 35.204 38.4254 38.3777 41.2952L38.7787 41.6583H45.7781C49.1194 41.6583 51.8376 44.3765 51.8376 47.7178V48.0915C51.8368 48.7532 51.5736 49.3877 51.1056 49.8556C50.6377 50.3235 50.0033 50.5868 49.3415 50.5876Z" fill="url(#paint6_linear_2932_1188)"/>
</g>
</g>
<defs>
<linearGradient id="paint0_linear_2932_1188" x1="40.6996" y1="17.2207" x2="40.1127" y2="47.305" gradientUnits="userSpaceOnUse">
<stop stop-color="#7D52DD"/>
<stop offset="1" stop-color="#CE4DA4"/>
</linearGradient>
<linearGradient id="paint1_linear_2932_1188" x1="40.6995" y1="1.64356e-08" x2="40.0752" y2="54.5873" gradientUnits="userSpaceOnUse">
<stop stop-color="#7D52DD"/>
<stop offset="1" stop-color="#CE4DA4"/>
</linearGradient>
<linearGradient id="paint2_linear_2932_1188" x1="40.7004" y1="37.5879" x2="40.6688" y2="44.6544" gradientUnits="userSpaceOnUse">
<stop stop-color="#7D52DD"/>
<stop offset="1" stop-color="#CE4DA4"/>
</linearGradient>
<linearGradient id="paint3_linear_2932_1188" x1="40.6992" y1="5.36328" x2="40.5843" y2="35.7756" gradientUnits="userSpaceOnUse">
<stop stop-color="#7D52DD"/>
<stop offset="1" stop-color="#CE4DA4"/>
</linearGradient>
<linearGradient id="paint4_linear_2932_1188" x1="47.6613" y1="32.3125" x2="47.4007" y2="74.5835" gradientUnits="userSpaceOnUse">
<stop stop-color="#7D52DD"/>
<stop offset="1" stop-color="#CE4DA4"/>
</linearGradient>
<linearGradient id="paint5_linear_2932_1188" x1="13.4123" y1="44.1738" x2="13.0267" y2="82.3342" gradientUnits="userSpaceOnUse">
<stop stop-color="#7D52DD"/>
<stop offset="1" stop-color="#CE4DA4"/>
</linearGradient>
<linearGradient id="paint6_linear_2932_1188" x1="30.4335" y1="36.8457" x2="30.3701" y2="56.3956" gradientUnits="userSpaceOnUse">
<stop stop-color="#7D52DD"/>
<stop offset="1" stop-color="#CE4DA4"/>
</linearGradient>
</defs>
</svg>
