<svg width="63" height="63" viewBox="0 0 63 63" fill="none" xmlns="http://www.w3.org/2000/svg">
<g id="Group">
<path id="Vector" d="M10.8351 31.2766C10.3883 31.7234 9.71809 31.7234 9.27128 31.2766C8.82447 30.8298 8.82447 30.1596 9.27128 29.7128C12.1755 26.8085 15.6383 24.5745 19.2128 23.0106C23.0106 21.4468 26.9202 20.5532 30.9415 20.5532C31.6117 20.5532 32.0585 21 32.0585 21.6702C32.0585 22.3404 31.5 22.7872 30.9415 22.7872C27.2553 22.7872 23.4574 23.5691 19.9947 25.0213C16.7553 26.4734 13.6277 28.484 10.8351 31.2766ZM2.23404 20.8883C1.78723 21.3351 1.11702 21.3351 0.670213 20.8883C0.223404 20.4415 0.223404 19.7713 0.670213 19.3245C6.36702 13.6277 13.2926 9.82979 20.6649 7.93085C28.2606 6.03191 36.1915 6.14362 43.7872 8.26596C44.3457 8.48936 44.6809 9.04787 44.5691 9.60638C44.3457 10.1649 43.7872 10.5 43.2287 10.3883C36.0798 8.26596 28.484 8.15425 21.3351 10.0532C14.1862 11.8404 7.59575 15.4149 2.23404 20.8883ZM52.5 11.9521C54.0638 12.8457 55.516 13.7394 56.9681 14.8564C58.7553 16.1968 60.5426 17.6489 62.1064 19.3245C62.5532 19.7713 62.5532 20.4415 62.1064 20.8883C61.6596 21.3351 60.9894 21.3351 60.5426 20.8883C58.9787 19.3245 57.3032 17.8723 55.6277 16.6436C54.0638 15.5266 52.5 14.5213 50.8245 13.6277L42 22.4521C43.7872 23.1223 45.5745 23.9043 47.3617 24.9096C49.5957 26.25 51.6064 27.8138 53.5053 29.7128C53.9521 30.1596 53.9521 30.8298 53.5053 31.2766C53.0585 31.7234 52.3883 31.7234 51.9415 31.2766C50.1543 29.4894 48.2553 28.0372 46.2447 26.9202C44.3457 25.8032 42.3351 24.9096 40.3245 24.2394L30.1596 34.4043C32.5053 34.2925 34.8511 34.516 37.0851 35.1862C40.3245 36.0798 43.4521 37.867 46.0213 40.4362C46.4681 40.883 46.4681 41.5532 46.0213 42C45.5745 42.4468 44.9043 42.4468 44.4574 42C42.2234 39.6543 39.4309 38.0904 36.5266 37.3085C33.6223 36.5266 30.6064 36.4149 27.5904 36.9734L1.89894 62.6649C1.45213 63.1117 0.781915 63.1117 0.335106 62.6649C-0.111702 62.2181 -0.111702 61.5479 0.335106 61.1011L60.8777 0.335106C61.3245 -0.111702 61.9947 -0.111702 62.4415 0.335106C62.8883 0.781915 62.8883 1.45213 62.4415 1.89894L52.5 11.9521ZM31.3883 44.4574C34.7394 44.4574 37.4202 47.1383 37.4202 50.4894C37.4202 53.7287 34.7394 56.5213 31.3883 56.5213C28.0372 56.5213 25.3564 53.8404 25.3564 50.4894C25.3564 47.1383 28.0372 44.4574 31.3883 44.4574ZM31.3883 46.6915C29.266 46.6915 27.5904 48.367 27.5904 50.4894C27.5904 52.5 29.266 54.1755 31.3883 54.1755C33.5106 54.1755 35.1862 52.5 35.1862 50.4894C35.1862 48.367 33.5106 46.6915 31.3883 46.6915Z" fill="url(#paint0_linear_2932_1180)"/>
</g>
<defs>
<linearGradient id="paint0_linear_2932_1180" x1="31.3883" y1="0" x2="31.3883" y2="63" gradientUnits="userSpaceOnUse">
<stop stop-color="#8251D9"/>
<stop offset="1" stop-color="#AE4EBA"/>
</linearGradient>
</defs>
</svg>
