<svg width="32" height="23" viewBox="0 0 32 23" fill="none" xmlns="http://www.w3.org/2000/svg">
<path d="M30.2857 0H1.71429C1.25977 0.000419586 0.823996 0.167535 0.502604 0.464673C0.181211 0.76181 0.000453837 1.16469 0 1.58491V4.75473C0 4.89484 0.060204 5.02922 0.167368 5.12829C0.274531 5.22737 0.419876 5.28303 0.571429 5.28303H13.1749C13.6183 5.28242 14.0555 5.18714 14.4526 5.00461L18.0583 3.33676C18.2966 3.22723 18.559 3.17009 18.8251 3.16982H29.1429C29.2944 3.16982 29.4398 3.11416 29.5469 3.01508C29.6541 2.91601 29.7143 2.78163 29.7143 2.64152C29.7143 2.5014 29.6541 2.36702 29.5469 2.26795C29.4398 2.16887 29.2944 2.11321 29.1429 2.11321H18.8251C18.3817 2.11383 17.9445 2.20911 17.5474 2.39163L13.9417 4.05948C13.7034 4.16901 13.441 4.22615 13.1749 4.22642H1.14286V1.58491C1.14301 1.44484 1.20326 1.31054 1.31039 1.2115C1.41752 1.11245 1.56278 1.05675 1.71429 1.05661H30.2857C30.4372 1.05675 30.5825 1.11245 30.6896 1.2115C30.7967 1.31054 30.857 1.44484 30.8571 1.58491V20.6038C30.857 20.7439 30.7967 20.8782 30.6896 20.9772C30.5825 21.0763 30.4372 21.132 30.2857 21.1321H1.71429C1.56278 21.132 1.41752 21.0763 1.31039 20.9772C1.20326 20.8782 1.14301 20.7439 1.14286 20.6038V6.86794C1.14286 6.72783 1.08265 6.59345 0.975489 6.49437C0.868326 6.3953 0.722981 6.33964 0.571429 6.33964C0.419876 6.33964 0.274531 6.3953 0.167368 6.49437C0.060204 6.59345 0 6.72783 0 6.86794V20.6038C0.000453837 21.024 0.181211 21.4269 0.502604 21.7241C0.823996 22.0212 1.25977 22.1883 1.71429 22.1887H30.2857C30.7402 22.1883 31.176 22.0212 31.4974 21.7241C31.8188 21.4269 31.9995 21.024 32 20.6038V1.58491C31.9995 1.16469 31.8188 0.76181 31.4974 0.464673C31.176 0.167535 30.7402 0.000419586 30.2857 0Z" fill="#F0F0F0"/>
<path d="M2.86848 3.16989C3.02003 3.16919 3.16508 3.11286 3.27171 3.01329C3.37833 2.91372 3.43781 2.77906 3.43705 2.63895C3.4363 2.49883 3.37537 2.36474 3.26767 2.26616C3.15997 2.16758 3.01432 2.11259 2.86277 2.11329C2.71122 2.11399 2.56617 2.17032 2.45954 2.26989C2.35292 2.36946 2.29344 2.50412 2.2942 2.64423C2.29495 2.78435 2.35588 2.91844 2.46358 3.01703C2.57128 3.11561 2.71693 3.17059 2.86848 3.16989ZM5.1542 3.16989C5.30575 3.16919 5.45079 3.11286 5.55742 3.01329C5.66405 2.91372 5.72353 2.77906 5.72277 2.63895C5.72201 2.49883 5.66108 2.36474 5.55338 2.26616C5.44568 2.16758 5.30003 2.11259 5.14848 2.11329C4.99693 2.11399 4.85189 2.17032 4.74526 2.26989C4.63863 2.36946 4.57915 2.50412 4.57991 2.64423C4.58067 2.78435 4.6416 2.91844 4.7493 3.01703C4.857 3.11561 5.00264 3.17059 5.1542 3.16989ZM7.43991 3.16989C7.59146 3.16919 7.73651 3.11286 7.84314 3.01329C7.94976 2.91372 8.00924 2.77906 8.00848 2.63895C8.00772 2.49883 7.94679 2.36474 7.83909 2.26616C7.73139 2.16758 7.58575 2.11259 7.4342 2.11329C7.28264 2.11399 7.1376 2.17032 7.03097 2.26989C6.92434 2.36946 6.86487 2.50412 6.86562 2.64423C6.86638 2.78435 6.92731 2.91844 7.03501 3.01703C7.14271 3.11561 7.28836 3.17059 7.43991 3.16989ZM8.79877 19.5034L12.7976 17.8969C12.8684 17.8701 12.9327 17.8306 12.9868 17.7806L23.3633 8.18719C25.3371 6.27632 22.3731 3.51435 20.2873 5.34333L9.9102 14.9373C9.85639 14.9872 9.81385 15.0464 9.78505 15.1117L8.04734 18.8087C8.00397 18.9059 7.9927 19.0127 8.01495 19.1158C8.0372 19.2189 8.09198 19.3135 8.17236 19.3879C8.25275 19.4622 8.35514 19.5128 8.46662 19.5334C8.57811 19.554 8.69368 19.5435 8.79877 19.5034ZM21.0953 6.09035C21.2889 5.91136 21.5515 5.8108 21.8253 5.8108C22.0991 5.8108 22.3617 5.91136 22.5553 6.09035C22.7489 6.26935 22.8577 6.51212 22.8577 6.76526C22.8577 7.0184 22.7489 7.26117 22.5553 7.44017L21.9342 8.01443L20.4742 6.66462L21.0953 6.09035ZM19.6668 7.41164L21.1262 8.76145L12.5828 16.6601L11.1228 15.3108L19.6668 7.41164ZM10.5039 16.2327L11.5845 17.2317L9.67305 17.9999L10.5039 16.2327Z" fill="#F0F0F0"/>
</svg>
