<svg width="26" height="40" viewBox="0 0 26 40" fill="none" xmlns="http://www.w3.org/2000/svg">
<path d="M5.40234 18.453V38.5375C5.40234 38.6967 5.47073 38.8493 5.59247 38.9619C5.7142 39.0744 5.87931 39.1377 6.05147 39.1377H19.0616C19.2338 39.1377 19.3989 39.0744 19.5206 38.9619C19.6423 38.8493 19.7107 38.6967 19.7107 38.5375V18.453C19.7107 18.2938 19.6423 18.1412 19.5206 18.0286C19.3989 17.9161 19.2338 17.8528 19.0616 17.8528H6.05147C5.87931 17.8528 5.7142 17.9161 5.59247 18.0286C5.47073 18.1412 5.40234 18.2938 5.40234 18.453ZM6.7006 19.0531H18.4125V37.9374H6.7006V19.0531ZM8.06845 12.3373C9.25966 11.2386 10.8736 10.6215 12.5563 10.6215C14.2389 10.6215 15.8529 11.2386 17.0441 12.3373C17.1658 12.4499 17.331 12.5131 17.5032 12.5131C17.6753 12.5131 17.8405 12.4499 17.9622 12.3373C18.084 12.2248 18.1524 12.0721 18.1524 11.9129C18.1524 11.7537 18.084 11.601 17.9622 11.4885C16.5274 10.1651 14.5833 9.42188 12.5565 9.42188C10.5298 9.42188 8.58571 10.1651 7.15084 11.4885C7.03256 11.6016 6.96709 11.7532 6.96852 11.9106C6.96995 12.0679 7.03817 12.2185 7.15849 12.3298C7.27881 12.4411 7.4416 12.5042 7.6118 12.5056C7.782 12.5071 7.94599 12.4466 8.06845 12.3373Z" fill="#F0F0F0"/>
<path d="M21.0453 9.23795C21.1736 9.23775 21.299 9.20243 21.4056 9.13645C21.5122 9.07046 21.5953 8.97678 21.6444 8.8672C21.6935 8.75762 21.7064 8.63705 21.6815 8.5207C21.6565 8.40434 21.5949 8.29741 21.5044 8.21339C19.129 6.02303 15.9111 4.79297 12.5562 4.79297C9.20138 4.79297 5.98344 6.02303 3.60812 8.21339C3.48991 8.32661 3.42452 8.47823 3.42605 8.63558C3.42758 8.79294 3.49589 8.94344 3.61628 9.05468C3.73667 9.16592 3.8995 9.22899 4.0697 9.23032C4.2399 9.23164 4.40385 9.1711 4.52625 9.06175C6.65811 7.0964 9.54589 5.99275 12.5565 5.99275C15.5671 5.99275 18.4549 7.0964 20.5868 9.06175C20.6469 9.11757 20.7184 9.16187 20.797 9.1921C20.8757 9.22234 20.9601 9.23792 21.0453 9.23795Z" fill="#F0F0F0"/>
<path d="M24.4717 6.06967C24.6001 6.06969 24.7257 6.03451 24.8324 5.96856C24.9392 5.90262 25.0224 5.80888 25.0716 5.69921C25.1207 5.58953 25.1336 5.46885 25.1085 5.35242C25.0835 5.23599 25.0216 5.12904 24.9308 5.04511C21.6489 2.01111 17.1978 0.306641 12.5566 0.306641C7.9154 0.306641 3.46429 2.01111 0.182347 5.04511C0.0640677 5.15827 -0.00140769 5.30985 2.29609e-05 5.4672C0.00145361 5.62456 0.0696766 5.7751 0.189997 5.8864C0.310317 5.9977 0.473107 6.06086 0.643307 6.06227C0.813506 6.06369 0.977496 6.00324 1.09996 5.89395C4.13844 3.08496 8.25939 1.50691 12.5563 1.50691C16.8532 1.50691 20.9742 3.08496 24.0127 5.89395C24.0729 5.94976 24.1445 5.99401 24.2232 6.02417C24.302 6.05433 24.3865 6.06979 24.4717 6.06967ZM12.3761 21.4381C11.7775 21.4381 11.1923 21.6022 10.6946 21.9097C10.1969 22.2171 9.809 22.6542 9.57995 23.1655C9.35089 23.6768 9.29099 24.2394 9.40781 24.7822C9.52463 25.325 9.81293 25.8236 10.2362 26.2149C10.6596 26.6062 11.1989 26.8726 11.786 26.9805C12.3731 27.0885 12.9817 27.033 13.5347 26.8211C14.0877 26.6093 14.5603 26.2506 14.8928 25.7903C15.2253 25.3301 15.4027 24.7891 15.4026 24.2357C15.4017 23.4939 15.0825 22.7828 14.5151 22.2583C13.9477 21.7338 13.1785 21.4388 12.3761 21.4381ZM12.3761 25.8335C12.0343 25.8335 11.7002 25.7398 11.416 25.5642C11.1318 25.3886 10.9102 25.1391 10.7794 24.8471C10.6486 24.5552 10.6144 24.2339 10.6811 23.924C10.7478 23.614 10.9124 23.3293 11.1541 23.1059C11.3958 22.8824 11.7037 22.7302 12.039 22.6686C12.3742 22.6069 12.7217 22.6386 13.0375 22.7595C13.3533 22.8804 13.6232 23.0852 13.8131 23.348C14.003 23.6107 14.1044 23.9197 14.1044 24.2357C14.1038 24.6593 13.9216 25.0654 13.5976 25.3649C13.2736 25.6645 12.8343 25.833 12.3761 25.8335ZM14.7535 34.7593H9.99875C9.82659 34.7593 9.66148 34.8225 9.53974 34.935C9.41801 35.0476 9.34962 35.2002 9.34962 35.3594C9.34962 35.5186 9.41801 35.6712 9.53974 35.7838C9.66148 35.8963 9.82659 35.9595 9.99875 35.9595H14.7535C14.9257 35.9595 15.0908 35.8963 15.2125 35.7838C15.3342 35.6712 15.4026 35.5186 15.4026 35.3594C15.4026 35.2002 15.3342 35.0476 15.2125 34.935C15.0908 34.8225 14.9257 34.7593 14.7535 34.7593ZM14.7535 31.7974H9.99875C9.82659 31.7974 9.66148 31.8607 9.53974 31.9732C9.41801 32.0858 9.34962 32.2384 9.34962 32.3976C9.34962 32.5568 9.41801 32.7094 9.53974 32.822C9.66148 32.9345 9.82659 32.9977 9.99875 32.9977H14.7535C14.9257 32.9977 15.0908 32.9345 15.2125 32.822C15.3342 32.7094 15.4026 32.5568 15.4026 32.3976C15.4026 32.2384 15.3342 32.0858 15.2125 31.9732C15.0908 31.8607 14.9257 31.7974 14.7535 31.7974Z" fill="#F0F0F0"/>
</svg>
