<svg width="46" height="41" viewBox="0 0 46 41" fill="none" xmlns="http://www.w3.org/2000/svg">
<path fill-rule="evenodd" clip-rule="evenodd" d="M29.5399 18.732L30.9579 22.763L35.3079 11.5L37.6429 19.5L41.5879 20.5L36.6779 20.521L35.3079 16.415L30.9579 27.5L30.1399 24.922L28.4939 19.75L25.5879 18.732H29.5399Z" fill="white"/>
<path d="M39.5373 37H27.5987M25.1296 1C28.7373 1 31.443 1 33.2469 1C35.0507 1 38.0186 1 42.1506 1C43.8435 1 45.0881 2.34624 45.0881 4.03922V36.681C45.0881 38.3761 43.8435 40 42.1506 40C41.0219 40 35.3594 40 25.1631 40C23.4701 40 22.0625 38.3761 22.0625 36.681V4.03922C22.0625 2.34624 23.4366 1 25.1296 1Z" stroke="white"/>
<path d="M38.0879 1.52686V2.36032C38.0879 2.66599 37.3936 3.00012 37.0879 3.00012H30.1555C29.8518 3.00012 29.0879 2.66599 29.0879 2.36032V1.52686" stroke="white"/>
<path d="M17.8804 15.4202L14.2281 9.51252M15.0879 19.9875H6.58788M17.6397 25.4096L14.6051 30.5044M18.7345 14.9384C16.5165 15.6682 14.9145 17.757 14.9145 20.2187C14.9145 22.6675 16.4977 24.7465 18.6954 25.4879M5 19.9362C5 18.8325 4.10241 17.9375 2.9987 17.9375C1.89759 17.9375 1 18.8325 1 19.9362C1 21.0399 1.89759 21.9375 2.9987 21.9375C4.10241 21.9375 5 21.0399 5 19.9362ZM14.2281 6.6237C14.2281 5.51998 13.3306 4.625 12.2268 4.625C11.1257 4.625 10.2281 5.51998 10.2281 6.6237C10.2281 7.72741 11.1257 8.625 12.2268 8.625C13.3306 8.625 14.2281 7.72741 14.2281 6.6237ZM14.6051 33.4168C14.6051 34.5212 13.7095 35.4168 12.6025 35.4168C11.5007 35.4168 10.6051 34.5212 10.6051 33.4168C10.6051 32.3123 11.5007 31.4142 12.6025 31.4142C13.7095 31.4142 14.6051 32.3123 14.6051 33.4168Z" stroke="white"/>
</svg>
