<svg width="39" height="38" viewBox="0 0 39 38" fill="none" xmlns="http://www.w3.org/2000/svg">
<path fill-rule="evenodd" clip-rule="evenodd" d="M19.4995 0.333984C9.07284 0.333984 0.620117 8.69157 0.620117 19.0008C0.620117 28.4663 7.74575 36.285 16.9824 37.5019V33.7406C16.9824 32.6799 16.3059 31.7268 15.289 31.3893C9.95967 29.6192 6.14709 24.5829 6.28767 18.6859C6.45854 11.5067 12.3732 5.86227 19.6357 5.93464C26.8717 6.00701 32.7153 11.8291 32.7153 19.0008C32.7153 19.1642 32.7112 19.3269 32.7051 19.4886L32.7011 19.5978C32.6942 19.7477 32.6847 19.8975 32.6728 20.0471C32.6693 20.0945 32.6645 20.1419 32.6602 20.1893C32.6404 20.4101 32.6146 20.6304 32.5828 20.8498C32.5756 20.9028 32.5682 20.956 32.5601 21.0088C30.9421 31.5469 17.06 37.4698 16.984 37.5023C17.8071 37.6105 18.6467 37.6673 19.4995 37.6673C29.9262 37.6673 38.3792 29.3102 38.3792 19.0008C38.3792 8.69157 29.9264 0.333984 19.4995 0.333984Z" fill="#5FCAF4"/>
</svg>
