<svg width="33" height="26" viewBox="0 0 33 26" fill="none" xmlns="http://www.w3.org/2000/svg">
<path d="M32 4.6V21.4C32 22.3548 31.6231 23.2705 30.9523 23.9456C30.2815 24.6207 29.3717 25 28.4231 25H4.57692C3.62826 25 2.71846 24.6207 2.04766 23.9456C1.37685 23.2705 1 22.3548 1 21.4V4.6M32 4.6C32 3.64522 31.6231 2.72955 30.9523 2.05442C30.2815 1.37928 29.3717 1 28.4231 1H4.57692C3.62826 1 2.71846 1.37928 2.04766 2.05442C1.37685 2.72955 1 3.64522 1 4.6M32 4.6V4.9888C32.0001 5.60343 31.8438 6.20785 31.546 6.74447C31.2483 7.2811 30.8189 7.73206 30.299 8.0544L18.3759 15.4384C17.8119 15.7881 17.1624 15.9732 16.5 15.9732C15.8376 15.9732 15.1881 15.7881 14.6241 15.4384L2.70103 8.056C2.18105 7.73366 1.75174 7.2827 1.45398 6.74607C1.15622 6.20945 0.999932 5.60503 1 4.9904V4.6" stroke="white" stroke-width="1.5" stroke-linecap="round" stroke-linejoin="round"/>
</svg>
