<svg width="33" height="40" viewBox="0 0 33 40" fill="none" xmlns="http://www.w3.org/2000/svg">
<path d="M22.2791 16.2001C22.2791 17.8126 21.6386 19.3591 20.4984 20.4993C19.3581 21.6395 17.8117 22.2801 16.1991 22.2801C14.5866 22.2801 13.0402 21.6395 11.8999 20.4993C10.7597 19.3591 10.1191 17.8126 10.1191 16.2001C10.1191 14.5876 10.7597 13.0411 11.8999 11.9009C13.0402 10.7607 14.5866 10.1201 16.1991 10.1201C17.8117 10.1201 19.3581 10.7607 20.4984 11.9009C21.6386 13.0411 22.2791 14.5876 22.2791 16.2001Z" stroke="white" stroke-width="1.5" stroke-linecap="round" stroke-linejoin="round"/>
<path d="M31.4 16.2C31.4 30.6745 16.2 39 16.2 39C16.2 39 1 30.6745 1 16.2C1 12.1687 2.60142 8.30253 5.45198 5.45198C8.30253 2.60142 12.1687 1 16.2 1C20.2313 1 24.0975 2.60142 26.948 5.45198C29.7986 8.30253 31.4 12.1687 31.4 16.2Z" stroke="white" stroke-width="1.5" stroke-linecap="round" stroke-linejoin="round"/>
</svg>
