<svg width="26" height="40" viewBox="0 0 26 40" fill="none" xmlns="http://www.w3.org/2000/svg">
<path d="M5.40234 18.4518V38.5363C5.40234 38.6955 5.47073 38.8481 5.59247 38.9607C5.7142 39.0732 5.87931 39.1364 6.05147 39.1364H19.0616C19.2338 39.1364 19.3989 39.0732 19.5206 38.9607C19.6423 38.8481 19.7107 38.6955 19.7107 38.5363V18.4518C19.7107 18.2926 19.6423 18.14 19.5206 18.0274C19.3989 17.9149 19.2338 17.8516 19.0616 17.8516H6.05147C5.87931 17.8516 5.7142 17.9149 5.59247 18.0274C5.47073 18.14 5.40234 18.2926 5.40234 18.4518ZM6.7006 19.0519H18.4125V37.9362H6.7006V19.0519ZM8.06845 12.3361C9.25966 11.2374 10.8736 10.6203 12.5563 10.6203C14.2389 10.6203 15.8529 11.2374 17.0441 12.3361C17.1658 12.4487 17.331 12.5119 17.5032 12.5119C17.6753 12.5119 17.8405 12.4487 17.9622 12.3361C18.084 12.2235 18.1524 12.0709 18.1524 11.9117C18.1524 11.7525 18.084 11.5998 17.9622 11.4873C16.5274 10.1639 14.5833 9.42065 12.5565 9.42065C10.5298 9.42065 8.58571 10.1639 7.15084 11.4873C7.03256 11.6004 6.96709 11.752 6.96852 11.9094C6.96995 12.0667 7.03817 12.2172 7.15849 12.3285C7.27881 12.4399 7.4416 12.503 7.6118 12.5044C7.782 12.5058 7.94599 12.4454 8.06845 12.3361Z" fill="#F0F0F0"/>
<path d="M21.0455 9.23698C21.1738 9.23677 21.2992 9.20145 21.4058 9.13547C21.5124 9.06949 21.5955 8.9758 21.6446 8.86622C21.6937 8.75664 21.7066 8.63607 21.6817 8.51972C21.6568 8.40337 21.5952 8.29644 21.5046 8.21242C19.1293 6.02205 15.9114 4.79199 12.5565 4.79199C9.20162 4.79199 5.98369 6.02205 3.60836 8.21242C3.49015 8.32564 3.42477 8.47725 3.4263 8.6346C3.42782 8.79196 3.49614 8.94246 3.61653 9.0537C3.73691 9.16494 3.89974 9.22802 4.06994 9.22934C4.24014 9.23066 4.4041 9.17013 4.52649 9.06078C6.65835 7.09543 9.54613 5.99178 12.5567 5.99178C15.5674 5.99178 18.4551 7.09543 20.587 9.06078C20.6471 9.11659 20.7186 9.16089 20.7973 9.19113C20.876 9.22136 20.9603 9.23694 21.0455 9.23698Z" fill="#F0F0F0"/>
<path d="M24.4717 6.06918C24.6001 6.0692 24.7257 6.03402 24.8324 5.96808C24.9392 5.90213 25.0224 5.8084 25.0716 5.69872C25.1207 5.58905 25.1336 5.46836 25.1085 5.35193C25.0835 5.2355 25.0216 5.12855 24.9308 5.04462C21.6489 2.01062 17.1978 0.306152 12.5566 0.306152C7.9154 0.306152 3.46429 2.01062 0.182347 5.04462C0.0640677 5.15778 -0.00140769 5.30936 2.29609e-05 5.46671C0.00145361 5.62407 0.0696766 5.77461 0.189997 5.88591C0.310317 5.99722 0.473107 6.06037 0.643307 6.06179C0.813506 6.0632 0.977496 6.00275 1.09996 5.89346C4.13844 3.08447 8.25939 1.50642 12.5563 1.50642C16.8532 1.50642 20.9742 3.08447 24.0127 5.89346C24.0729 5.94927 24.1445 5.99353 24.2232 6.02368C24.302 6.05384 24.3865 6.0693 24.4717 6.06918ZM12.3761 21.4376C11.7775 21.4376 11.1923 21.6017 10.6946 21.9092C10.1969 22.2167 9.809 22.6537 9.57995 23.165C9.35089 23.6763 9.29099 24.2389 9.40781 24.7817C9.52463 25.3245 9.81293 25.8231 10.2362 26.2144C10.6596 26.6057 11.1989 26.8721 11.786 26.9801C12.3731 27.088 12.9817 27.0325 13.5347 26.8206C14.0877 26.6088 14.5603 26.2501 14.8928 25.7899C15.2253 25.3297 15.4027 24.7886 15.4026 24.2352C15.4017 23.4934 15.0825 22.7823 14.5151 22.2578C13.9477 21.7333 13.1785 21.4383 12.3761 21.4376ZM12.3761 25.833C12.0343 25.833 11.7002 25.7393 11.416 25.5637C11.1318 25.3882 10.9102 25.1386 10.7794 24.8466C10.6486 24.5547 10.6144 24.2334 10.6811 23.9235C10.7478 23.6135 10.9124 23.3288 11.1541 23.1054C11.3958 22.8819 11.7037 22.7297 12.039 22.6681C12.3742 22.6064 12.7217 22.6381 13.0375 22.759C13.3533 22.8799 13.6232 23.0847 13.8131 23.3475C14.003 23.6103 14.1044 23.9192 14.1044 24.2352C14.1038 24.6588 13.9216 25.0649 13.5976 25.3645C13.2736 25.664 12.8343 25.8325 12.3761 25.833ZM14.7535 34.7588H9.99875C9.82659 34.7588 9.66148 34.822 9.53974 34.9345C9.41801 35.0471 9.34962 35.1997 9.34962 35.3589C9.34962 35.5181 9.41801 35.6707 9.53974 35.7833C9.66148 35.8958 9.82659 35.9591 9.99875 35.9591H14.7535C14.9257 35.9591 15.0908 35.8958 15.2125 35.7833C15.3342 35.6707 15.4026 35.5181 15.4026 35.3589C15.4026 35.1997 15.3342 35.0471 15.2125 34.9345C15.0908 34.822 14.9257 34.7588 14.7535 34.7588ZM14.7535 31.797H9.99875C9.82659 31.797 9.66148 31.8602 9.53974 31.9727C9.41801 32.0853 9.34962 32.2379 9.34962 32.3971C9.34962 32.5563 9.41801 32.7089 9.53974 32.8215C9.66148 32.934 9.82659 32.9972 9.99875 32.9972H14.7535C14.9257 32.9972 15.0908 32.934 15.2125 32.8215C15.3342 32.7089 15.4026 32.5563 15.4026 32.3971C15.4026 32.2379 15.3342 32.0853 15.2125 31.9727C15.0908 31.8602 14.9257 31.797 14.7535 31.797Z" fill="#F0F0F0"/>
</svg>
