<svg width="30" height="30" viewBox="0 0 30 30" fill="none" xmlns="http://www.w3.org/2000/svg">
<path d="M15 1V4.5M24.8996 5.10044L22.4247 7.57533M29 15H25.5M24.8996 24.8996L22.4247 22.4247M15 25.5V29M7.57533 22.4247L5.10044 24.8996M4.5 15H1M7.57533 7.57533L5.10044 5.10044M20.8333 15C20.8333 16.5471 20.2188 18.0308 19.1248 19.1248C18.0308 20.2188 16.5471 20.8333 15 20.8333C13.4529 20.8333 11.9692 20.2188 10.8752 19.1248C9.78125 18.0308 9.16667 16.5471 9.16667 15C9.16667 13.4529 9.78125 11.9692 10.8752 10.8752C11.9692 9.78125 13.4529 9.16667 15 9.16667C16.5471 9.16667 18.0308 9.78125 19.1248 10.8752C20.2188 11.9692 20.8333 13.4529 20.8333 15Z" stroke="#F0F0F0" stroke-width="1.5" stroke-linecap="round" stroke-linejoin="round"/>
</svg>
