<svg width="120" height="112" viewBox="0 0 120 112" fill="none" xmlns="http://www.w3.org/2000/svg">
<path d="M101.996 13.7513C100.629 12.3843 98.4121 12.3843 97.0449 13.7513C95.6777 15.1183 95.6777 17.335 97.0449 18.7022C117.611 39.2678 117.611 72.7309 97.0449 93.297C95.6777 94.6639 95.6777 96.8807 97.0449 98.2479C97.7285 98.9315 98.6245 99.2734 99.5203 99.2734C100.416 99.2734 101.312 98.9315 101.996 98.2479C113.28 86.963 119.495 71.9589 119.495 55.9995C119.495 40.0401 113.28 25.0361 101.996 13.7513Z" fill="white"/>
<path d="M91.3893 24.3576C90.0223 22.9906 87.8056 22.9906 86.4384 24.3576C85.0712 25.7248 85.0712 27.9413 86.4384 29.3085C93.5682 36.438 97.4947 45.9172 97.4947 55.9998C97.4947 66.0823 93.5682 75.5614 86.4384 82.6907C85.0714 84.0577 85.0712 86.2742 86.4384 87.6416C87.122 88.3254 88.018 88.6671 88.9137 88.6671C89.8095 88.6671 90.7057 88.3252 91.389 87.6416C99.8412 79.1899 104.496 67.9526 104.496 55.9998C104.496 44.0468 99.8415 32.8095 91.3893 24.3576ZM73.2771 0.905422C70.6465 -0.550929 67.3063 -0.239354 64.1116 1.76033L24.9939 26.2504H12.8752C5.77569 26.2504 0 32.0261 0 39.1255V72.8741C0 79.9736 5.77569 85.7493 12.8752 85.7493H24.9939L64.1114 110.24C65.9778 111.408 67.8937 112 69.6889 112C70.9665 112 72.1832 111.7 73.2768 111.094C75.9071 109.638 77.4155 106.641 77.4155 102.872V9.12727C77.4158 5.35873 75.9071 2.36201 73.2771 0.905422ZM22.4985 78.7476H12.8752C9.63642 78.7476 7.00169 76.1129 7.00169 72.8741V39.1255C7.00169 35.8868 9.63642 33.252 12.8752 33.252H22.4985V78.7476ZM70.4141 102.872C70.4141 104.355 69.99 104.911 69.885 104.969C69.7797 105.027 69.0845 105.092 67.827 104.305L29.5002 80.3097V31.69L67.827 7.69472C69.0847 6.90727 69.7797 6.97285 69.885 7.0305C69.9898 7.08861 70.4141 7.64431 70.4141 9.12704V102.872Z" fill="white"/>
</svg>
