<svg width="133" height="116" viewBox="0 0 133 116" fill="none" xmlns="http://www.w3.org/2000/svg">
<path d="M74.8108 0H73.2772C70.7003 0 68.2274 0.776096 66.1258 2.24543L27.7825 29H12.4685C5.5928 29 0 34.5749 0 41.4286V74.5714C0 81.4251 5.5928 87 12.4685 87H27.7825L66.1203 113.753C68.2161 115.22 70.7161 116.005 73.2772 116H74.8108C81.6864 116 87.2793 110.425 87.2793 103.571V12.4286C87.2793 5.5749 81.6864 0 74.8108 0ZM24.9369 78.7143H12.4685C10.1757 78.7143 8.31231 76.8555 8.31231 74.5714V41.4286C8.31231 39.1445 10.1757 37.2857 12.4685 37.2857H24.9369V78.7143ZM78.9669 103.571C78.9669 105.855 77.1036 107.714 74.8108 107.714H73.2772C72.4232 107.716 71.5895 107.454 70.8901 106.966L33.2492 80.7001V35.2999L70.8943 9.03281C71.5922 8.54464 72.4246 8.28368 73.2772 8.28571H74.8108C77.1036 8.28571 78.9669 10.1445 78.9669 12.4286V103.571ZM131.779 67.4996C132.362 68.0784 132.759 68.8166 132.92 69.6206C133.081 70.4246 132.999 71.2581 132.684 72.0155C132.369 72.773 131.836 73.4202 131.152 73.8753C130.468 74.3303 129.663 74.5726 128.841 74.5714C128.295 74.572 127.754 74.4651 127.25 74.2568C126.746 74.0485 126.288 73.7429 125.902 73.3576L116.372 63.858L106.842 73.3576C106.03 74.1668 104.968 74.5714 103.904 74.5714C102.84 74.5714 101.777 74.1668 100.965 73.3576C100.579 72.9731 100.273 72.5165 100.064 72.0139C99.855 71.5113 99.7475 70.9726 99.7475 70.4286C99.7475 69.8845 99.855 69.3458 100.064 68.8432C100.273 68.3406 100.579 67.8841 100.965 67.4996L110.496 58L100.965 48.5004C99.3418 46.8819 99.3418 44.2609 100.965 42.6424C102.589 41.0239 105.219 41.0239 106.842 42.6424L116.372 52.142L125.902 42.6424C127.526 41.0239 130.156 41.0239 131.779 42.6424C133.403 44.2609 133.403 46.8819 131.779 48.5004L122.249 58L131.779 67.4996Z" fill="white"/>
</svg>
