<svg width="54" height="33" viewBox="0 0 54 33" fill="none" xmlns="http://www.w3.org/2000/svg">
<path fill-rule="evenodd" clip-rule="evenodd" d="M33.6875 17.8763C33.9163 17.8763 34.1035 18.0635 34.1035 18.2923V19.0203C34.1035 19.2491 33.9163 19.4363 33.6875 19.4363H31.6803C31.516 20.3099 31.1291 21.0983 30.5966 21.768L32.1005 23.2719C32.2627 23.4341 32.2627 23.6983 32.1005 23.8605L31.5847 24.3764C31.4224 24.5386 31.1582 24.5386 30.996 24.3764L29.4714 22.8517C28.7974 23.326 28.0091 23.6317 27.1584 23.7565V25.9655C27.1584 26.1943 26.9712 26.3815 26.7445 26.3815H26.0144C25.7876 26.3815 25.5984 26.1943 25.5984 25.9655V23.7565C24.7497 23.6317 23.9614 23.326 23.2875 22.8517L21.7628 24.3764C21.6006 24.5386 21.3364 24.5386 21.1742 24.3764L20.6604 23.8605C20.4982 23.6983 20.4982 23.4341 20.6604 23.2719L22.1622 21.7701C21.6297 21.0983 21.2428 20.312 21.0785 19.4363H19.0692C18.8425 19.4363 18.6553 19.2491 18.6553 19.0203V18.2923C18.6553 18.0635 18.8425 17.8763 19.0692 17.8763H21.0348C21.1326 16.9403 21.4487 16.073 21.9625 15.3408L20.6604 14.0408C20.4982 13.8785 20.4982 13.6144 20.6604 13.4501L21.1742 12.9363C21.3364 12.774 21.6006 12.774 21.7628 12.9363L23.042 14.2176C23.77 13.6414 24.6395 13.2524 25.5984 13.111V11.3492C25.5984 11.1184 25.7876 10.9312 26.0144 10.9312H26.7445C26.9712 10.9312 27.1584 11.1184 27.1584 11.3492V13.111C28.1193 13.2524 28.9888 13.6414 29.7147 14.2176L30.996 12.9363C31.1582 12.774 31.4224 12.774 31.5847 12.9363L32.1005 13.4521C32.2627 13.6144 32.2627 13.8785 32.1005 14.0408L30.7984 15.3429C31.3101 16.073 31.6263 16.9403 31.724 17.8763H33.6875ZM26.3784 21.3749C28.0029 21.3749 29.3195 20.0583 29.3195 18.4338C29.3195 16.8114 28.0029 15.4926 26.3784 15.4926C24.756 15.4926 23.4393 16.8114 23.4393 18.4338C23.4393 20.0583 24.756 21.3749 26.3784 21.3749Z" fill="white"/>
<path fill-rule="evenodd" clip-rule="evenodd" d="M39.9799 32.4483H12.2745C6.04874 32.4483 1 27.492 1 21.2661C1 15.1004 5.95306 10.0984 12.0965 10.0027C14.6287 4.68475 20.0401 1 26.3216 1C34.0382 1 40.4509 6.54493 41.8127 13.8677H44.0196C48.9437 14.1414 52.8621 18.1844 52.8621 23.1753C52.8621 28.3464 48.67 32.4483 43.5011 32.4483H39.9799Z" stroke="white" stroke-linecap="round"/>
</svg>
