<svg width="30" height="40" viewBox="0 0 30 40" fill="none" xmlns="http://www.w3.org/2000/svg">
<path d="M0 2.50039V37.5004C0 38.8752 1.12478 40 2.49961 40H26.8063C28.1815 40 29.3067 38.8748 29.3067 37.4996V9.20745C29.3067 8.43984 29.0017 7.70367 28.459 7.16086L22.1458 0.847686C21.603 0.30493 20.8668 1.14703e-05 20.0992 0L2.50039 0C1.12518 0 0 1.12518 0 2.50039Z" fill="url(#paint0_linear_1914_916)"/>
<path d="M6.66266 19.297H22.6453C22.8365 19.297 23.02 19.221 23.1553 19.0858C23.2905 18.9505 23.3665 18.7671 23.3665 18.5758V16.817C23.3665 16.6257 23.2905 16.4422 23.1553 16.307C23.02 16.1717 22.8365 16.0957 22.6453 16.0957H6.66266C6.47137 16.0957 6.28792 16.1717 6.15266 16.307C6.0174 16.4422 5.94141 16.6257 5.94141 16.817V18.5758C5.94141 18.7671 6.0174 18.9505 6.15266 19.0858C6.28792 19.221 6.47137 19.297 6.66266 19.297ZM6.66266 24.2943H22.6453C22.8365 24.2943 23.02 24.2183 23.1553 24.083C23.2905 23.9478 23.3665 23.7643 23.3665 23.573V21.8142C23.3665 21.6229 23.2905 21.4395 23.1553 21.3042C23.02 21.1689 22.8365 21.093 22.6453 21.093H6.66266C6.47137 21.093 6.28792 21.1689 6.15266 21.3042C6.0174 21.4395 5.94141 21.6229 5.94141 21.8142V23.573C5.94141 23.7643 6.0174 23.9478 6.15266 24.083C6.28792 24.2183 6.47137 24.2943 6.66266 24.2943ZM6.66266 29.2915H22.6453C22.8365 29.2915 23.02 29.2155 23.1553 29.0802C23.2905 28.945 23.3665 28.7615 23.3665 28.5702V26.8115C23.3665 26.6202 23.2905 26.4367 23.1553 26.3015C23.02 26.1662 22.8365 26.0902 22.6453 26.0902H6.66266C6.47137 26.0902 6.28792 26.1662 6.15266 26.3015C6.0174 26.4367 5.94141 26.6202 5.94141 26.8115V28.5703C5.94143 28.7616 6.01743 28.945 6.15268 29.0802C6.28794 29.2155 6.47139 29.2915 6.66266 29.2915ZM6.4636 34.2887H14.5542C14.6927 34.2887 14.8255 34.2337 14.9234 34.1358C15.0214 34.0378 15.0764 33.905 15.0764 33.7665V31.6097C15.0764 31.4712 15.0214 31.3383 14.9234 31.2404C14.8255 31.1425 14.6927 31.0875 14.5542 31.0875H6.4636C6.32511 31.0875 6.19229 31.1425 6.09435 31.2404C5.99642 31.3383 5.94141 31.4712 5.94141 31.6097V33.7665C5.94141 33.905 5.99642 34.0378 6.09435 34.1358C6.19229 34.2337 6.32511 34.2887 6.4636 34.2887Z" fill="#EBEFF0"/>
<path d="M22.1441 0.847769C21.7754 0.479134 21.314 0.216933 20.8086 0.0888672V8.23961L29.3051 16.7361V9.20745C29.3051 8.43984 29.0001 7.70367 28.4574 7.16087L22.1441 0.847769Z" fill="url(#paint1_linear_1914_916)"/>
<path d="M29.2205 8.50566C29.2298 8.54582 29.2383 8.58496 29.2461 8.62268H21.5874C21.0452 8.62268 20.6055 8.18308 20.6055 7.64072V0.0458984C20.6683 0.0571031 20.7308 0.0696025 20.7931 0.0833886C21.364 0.209663 21.8845 0.503232 22.298 0.916644L28.3886 7.00723C28.8008 7.4189 29.0891 7.93811 29.2205 8.50566Z" fill="url(#paint2_linear_1914_916)"/>
<path d="M29.3067 35.0752V37.5002C29.3067 38.8754 28.1815 40.0006 26.8063 40.0006H2.49961C1.12478 40.0006 0 38.8757 0 37.501V35.0752H29.3067Z" fill="url(#paint3_linear_1914_916)"/>
<defs>
<linearGradient id="paint0_linear_1914_916" x1="6.97906" y1="15.5958" x2="26.0061" y2="34.6228" gradientUnits="userSpaceOnUse">
<stop stop-color="#7FAEF4"/>
<stop offset="1" stop-color="#4C8DF1"/>
</linearGradient>
<linearGradient id="paint1_linear_1914_916" x1="26.8169" y1="13.6258" x2="23.7973" y2="4.80228" gradientUnits="userSpaceOnUse">
<stop stop-color="#4C8DF1" stop-opacity="0"/>
<stop offset="1" stop-color="#4256AC"/>
</linearGradient>
<linearGradient id="paint2_linear_1914_916" x1="21.5762" y1="4.60645" x2="25.0837" y2="8.11406" gradientUnits="userSpaceOnUse">
<stop stop-color="#A7C5FD"/>
<stop offset="1" stop-color="#7FAEF4"/>
</linearGradient>
<linearGradient id="paint3_linear_1914_916" x1="14.6533" y1="36.3692" x2="14.6533" y2="40.2585" gradientUnits="userSpaceOnUse">
<stop stop-color="#4C8DF1" stop-opacity="0"/>
<stop offset="1" stop-color="#4256AC"/>
</linearGradient>
</defs>
</svg>
