<svg width="23" height="15" viewBox="0 0 23 15" fill="none" xmlns="http://www.w3.org/2000/svg">
<path d="M21.7857 0H20.3571C20.2624 0 20.1716 0.0376275 20.1046 0.104605C20.0376 0.171582 20 0.262423 20 0.357143V1.42857H2.14286V0.357143C2.14286 0.262423 2.10523 0.171582 2.03825 0.104605C1.97127 0.0376275 1.88043 0 1.78571 0H0.357143C0.262423 0 0.171582 0.0376275 0.104605 0.104605C0.0376274 0.171582 0 0.262423 0 0.357143V14.6429C0 14.7376 0.0376274 14.8284 0.104605 14.8954C0.171582 14.9624 0.262423 15 0.357143 15H21.7857C21.8804 15 21.9713 14.9624 22.0383 14.8954C22.1052 14.8284 22.1429 14.7376 22.1429 14.6429V0.357143C22.1429 0.262423 22.1052 0.171582 22.0383 0.104605C21.9713 0.0376275 21.8804 0 21.7857 0ZM1.42857 14.2857H0.714286V0.714286H1.42857V14.2857ZM10 14.2857H2.14286V2.14286H10V14.2857ZM11.4286 14.2857H10.7143V2.14286H11.4286V14.2857ZM20 14.2857H12.1429V2.14286H20V14.2857ZM21.4286 14.2857H20.7143V0.714286H21.4286V14.2857Z" fill="white"/>
<path d="M9.28585 6.78613C9.19113 6.78613 9.10029 6.82376 9.03332 6.89074C8.96634 6.95771 8.92871 7.04856 8.92871 7.14328V9.28613C8.92871 9.38085 8.96634 9.47169 9.03332 9.53867C9.10029 9.60565 9.19113 9.64328 9.28585 9.64328C9.38057 9.64328 9.47141 9.60565 9.53839 9.53867C9.60537 9.47169 9.643 9.38085 9.643 9.28613V7.14328C9.643 7.04856 9.60537 6.95771 9.53839 6.89074C9.47141 6.82376 9.38057 6.78613 9.28585 6.78613Z" fill="white"/>
<path d="M8.46726 6.89074C8.4341 6.85758 8.39473 6.83127 8.35139 6.81332C8.30806 6.79537 8.26162 6.78613 8.21472 6.78613C8.16781 6.78613 8.12137 6.79537 8.07804 6.81332C8.03471 6.83127 7.99534 6.85758 7.96217 6.89074L6.89074 7.96217C6.85758 7.99534 6.83127 8.03471 6.81332 8.07804C6.79537 8.12137 6.78613 8.16781 6.78613 8.21472C6.78613 8.26162 6.79537 8.30806 6.81332 8.35139C6.83127 8.39473 6.85758 8.4341 6.89074 8.46726L7.96217 9.53869C8.02915 9.60567 8.11999 9.6433 8.21472 9.6433C8.30944 9.6433 8.40028 9.60567 8.46726 9.53869C8.53424 9.47171 8.57187 9.38087 8.57187 9.28615C8.57187 9.19142 8.53424 9.10058 8.46726 9.0336L7.64833 8.21472L8.46726 7.39583C8.50043 7.36267 8.52674 7.3233 8.54469 7.27997C8.56263 7.23663 8.57187 7.19019 8.57187 7.14329C8.57187 7.09639 8.56263 7.04994 8.54469 7.00661C8.52674 6.96328 8.50043 6.92391 8.46726 6.89074Z" fill="white"/>
<path d="M12.8571 9.64328C12.9519 9.64328 13.0427 9.60565 13.1097 9.53867C13.1767 9.47169 13.2143 9.38085 13.2143 9.28613V7.14328C13.2143 7.04856 13.1767 6.95771 13.1097 6.89074C13.0427 6.82376 12.9519 6.78613 12.8571 6.78613C12.7624 6.78613 12.6716 6.82376 12.6046 6.89074C12.5376 6.95771 12.5 7.04856 12.5 7.14328V9.28613C12.5 9.38085 12.5376 9.47169 12.6046 9.53867C12.6716 9.60565 12.7624 9.64328 12.8571 9.64328Z" fill="white"/>
<path d="M13.6759 9.53869C13.7091 9.57185 13.7484 9.59816 13.7918 9.61611C13.8351 9.63406 13.8815 9.6433 13.9284 9.6433C13.9753 9.6433 14.0218 9.63406 14.0651 9.61611C14.1085 9.59816 14.1478 9.57185 14.181 9.53869L15.2524 8.46726C15.2856 8.4341 15.3119 8.39472 15.3298 8.35139C15.3478 8.30806 15.357 8.26162 15.357 8.21471C15.357 8.16781 15.3478 8.12137 15.3298 8.07804C15.3119 8.03471 15.2856 7.99533 15.2524 7.96217L14.181 6.89074C14.114 6.82376 14.0232 6.78613 13.9284 6.78613C13.8337 6.78613 13.7429 6.82376 13.6759 6.89074C13.6089 6.95772 13.5713 7.04856 13.5713 7.14329C13.5713 7.23801 13.6089 7.32885 13.6759 7.39583L14.4948 8.21471L13.6759 9.0336C13.6427 9.06676 13.6164 9.10613 13.5985 9.14947C13.5805 9.1928 13.5713 9.23924 13.5713 9.28614C13.5713 9.33304 13.5805 9.37949 13.5985 9.42282C13.6164 9.46615 13.6427 9.50552 13.6759 9.53869Z" fill="white"/>
</svg>
