<svg width="22" height="16" viewBox="0 0 22 16" fill="none" xmlns="http://www.w3.org/2000/svg">
<path d="M14.5 6.25L19.22 1.53C19.3249 1.42524 19.4585 1.35392 19.6039 1.32503C19.7493 1.29615 19.9 1.311 20.0369 1.36771C20.1739 1.42442 20.291 1.52045 20.3734 1.64367C20.4558 1.76688 20.4999 1.91176 20.5 2.06V13.44C20.4999 13.5882 20.4558 13.7331 20.3734 13.8563C20.291 13.9795 20.1739 14.0756 20.0369 14.1323C19.9 14.189 19.7493 14.2038 19.6039 14.175C19.4585 14.1461 19.3249 14.0748 19.22 13.97L14.5 9.25M3.25 14.5H12.25C12.8467 14.5 13.419 14.2629 13.841 13.841C14.2629 13.419 14.5 12.8467 14.5 12.25V3.25C14.5 2.65326 14.2629 2.08097 13.841 1.65901C13.419 1.23705 12.8467 1 12.25 1H3.25C2.65326 1 2.08097 1.23705 1.65901 1.65901C1.23705 2.08097 1 2.65326 1 3.25V12.25C1 12.8467 1.23705 13.419 1.65901 13.841C2.08097 14.2629 2.65326 14.5 3.25 14.5Z" stroke="white" stroke-width="1.5" stroke-linecap="round"/>
</svg>
