<svg width="35" height="35" viewBox="0 0 35 35" fill="none" xmlns="http://www.w3.org/2000/svg">
<path d="M1 8.61538C1 22.6345 12.3655 34 26.3846 34H30.1923C31.2022 34 32.1707 33.5988 32.8848 32.8848C33.5988 32.1707 34 31.2022 34 30.1923V27.8705C34 26.9972 33.406 26.2357 32.5582 26.0242L25.0731 24.1525C24.3285 23.9663 23.5466 24.2455 23.088 24.8582L21.4465 27.0463C20.9692 27.6826 20.1451 27.9635 19.3988 27.6894C16.6283 26.6708 14.1123 25.0622 12.025 22.975C9.93777 20.8877 8.32917 18.3717 7.31062 15.6012C7.03646 14.8549 7.31739 14.0308 7.95369 13.5535L10.1418 11.912C10.7562 11.4534 11.0337 10.6698 10.8475 9.92692L8.97585 2.44185C8.87285 2.0301 8.63522 1.66457 8.3007 1.40334C7.96619 1.1421 7.55397 1.00014 7.12954 1H4.80769C3.79783 1 2.82933 1.40117 2.11525 2.11525C1.40117 2.82933 1 3.79783 1 4.80769V8.61538Z" stroke="white" stroke-width="1.5" stroke-linecap="round" stroke-linejoin="round"/>
</svg>
