<svg width="64" height="63" viewBox="0 0 64 63" fill="none" xmlns="http://www.w3.org/2000/svg">
<g id="Group">
<path id="Vector" fill-rule="evenodd" clip-rule="evenodd" d="M35.0921 17.5921C34.831 17.5921 34.5807 17.4884 34.396 17.3037C34.2114 17.1191 34.1077 16.8688 34.1077 16.6077V14.0723H29.89V16.6077C29.89 16.8688 29.7863 17.1191 29.6017 17.3037C29.4171 17.4884 29.1667 17.5921 28.9056 17.5921C28.6445 17.5921 28.3942 17.4884 28.2096 17.3037C28.0249 17.1191 27.9212 16.8688 27.9212 16.6077V13.0879C27.9212 12.8268 28.0249 12.5764 28.2096 12.3918C28.3942 12.2072 28.6445 12.1035 28.9056 12.1035H35.0921C35.3532 12.1035 35.6035 12.2072 35.7882 12.3918C35.9728 12.5764 36.0765 12.8268 36.0765 13.0879V16.6077C36.0765 16.8688 35.9728 17.1191 35.7882 17.3037C35.6035 17.4884 35.3532 17.5921 35.0921 17.5921ZM35.0921 50.8945H28.9056C28.6445 50.8945 28.3942 50.7908 28.2096 50.6062C28.0249 50.4216 27.9212 50.1712 27.9212 49.9102V46.3902C27.9212 46.1291 28.0249 45.8787 28.2096 45.6941C28.3942 45.5095 28.6445 45.4058 28.9056 45.4058C29.1667 45.4058 29.4171 45.5095 29.6017 45.6941C29.7863 45.8787 29.89 46.1291 29.89 46.3902V48.9258H34.1077V46.3902C34.1077 46.1291 34.2114 45.8787 34.396 45.6941C34.5807 45.5095 34.831 45.4058 35.0921 45.4058C35.3532 45.4058 35.6035 45.5095 35.7882 45.6941C35.9728 45.8787 36.0765 46.1291 36.0765 46.3902V49.9102C36.0765 50.1712 35.9728 50.4216 35.7882 50.6062C35.6035 50.7908 35.3532 50.8945 35.0921 50.8945ZM19.283 24.1421C19.1538 24.1422 19.0257 24.1168 18.9062 24.0674C18.7868 24.0179 18.6783 23.9453 18.587 23.8537L16.0968 21.3636C16.0054 21.2722 15.9329 21.1637 15.8834 21.0442C15.834 20.9248 15.8085 20.7968 15.8085 20.6675C15.8085 20.5383 15.834 20.4103 15.8834 20.2908C15.9329 20.1714 16.0054 20.0629 16.0968 19.9715L20.4715 15.5968C20.5629 15.5054 20.6714 15.4329 20.7908 15.3834C20.9103 15.334 21.0383 15.3085 21.1675 15.3085C21.2968 15.3085 21.4248 15.334 21.5442 15.3834C21.6637 15.4329 21.7722 15.5054 21.8636 15.5968L24.3537 18.087C24.4452 18.1784 24.5177 18.2869 24.5671 18.4063C24.6166 18.5258 24.6421 18.6538 24.6421 18.783C24.6421 18.9123 24.6166 19.0403 24.5671 19.1598C24.5177 19.2792 24.4452 19.3877 24.3537 19.4791C24.2623 19.5705 24.1538 19.643 24.0344 19.6925C23.915 19.742 23.787 19.7674 23.6577 19.7674C23.5284 19.7674 23.4004 19.742 23.281 19.6925C23.1615 19.643 23.053 19.5705 22.9616 19.4791L21.1675 17.6849L18.185 20.6674L19.9793 22.4614C20.0707 22.5529 20.1432 22.6614 20.1927 22.7808C20.2421 22.9002 20.2676 23.0282 20.2676 23.1575C20.2676 23.2868 20.2421 23.4148 20.1927 23.5342C20.1432 23.6537 20.0707 23.7622 19.9793 23.8536C19.888 23.9452 19.7795 24.0178 19.66 24.0673C19.5405 24.1169 19.4124 24.1422 19.283 24.1421ZM42.8303 47.6893C42.701 47.6895 42.573 47.6641 42.4535 47.6147C42.3341 47.5652 42.2256 47.4926 42.1343 47.401L39.6441 44.9109C39.4595 44.7263 39.3558 44.4759 39.3558 44.2148C39.3558 43.9538 39.4595 43.7034 39.6441 43.5188C39.8287 43.3342 40.0791 43.2304 40.3402 43.2304C40.6013 43.2304 40.8517 43.3342 41.0363 43.5188L42.8303 45.3129L45.8128 42.3303L44.0188 40.5363C43.9274 40.4449 43.8548 40.3363 43.8054 40.2169C43.7559 40.0975 43.7304 39.9695 43.7304 39.8402C43.7304 39.7109 43.7559 39.5829 43.8054 39.4635C43.8548 39.3441 43.9274 39.2355 44.0188 39.1441C44.1102 39.0527 44.2187 38.9802 44.3381 38.9307C44.4576 38.8813 44.5856 38.8558 44.7148 38.8558C44.8441 38.8558 44.9721 38.8813 45.0915 38.9307C45.211 38.9802 45.3195 39.0527 45.4109 39.1441L47.901 41.6343C47.9925 41.7257 48.065 41.8342 48.1144 41.9536C48.1639 42.0731 48.1894 42.2011 48.1894 42.3303C48.1894 42.4596 48.1639 42.5876 48.1144 42.7071C48.065 42.8265 47.9925 42.935 47.901 43.0264L43.5264 47.401C43.4351 47.4926 43.3266 47.5651 43.2071 47.6146C43.0877 47.6641 42.9596 47.6895 42.8303 47.6893ZM17.1077 35.5766H13.5879C13.3268 35.5766 13.0764 35.4729 12.8918 35.2883C12.7072 35.1037 12.6035 34.8533 12.6035 34.5923V28.4058C12.6035 28.1447 12.7072 27.8943 12.8918 27.7097C13.0764 27.5251 13.3268 27.4214 13.5879 27.4214H17.1077C17.3688 27.4214 17.6191 27.5251 17.8037 27.7097C17.9884 27.8943 18.0921 28.1447 18.0921 28.4058C18.0921 28.6668 17.9884 28.9172 17.8037 29.1018C17.6191 29.2864 17.3688 29.3901 17.1077 29.3901H14.5723V33.6079H17.1077C17.3688 33.6079 17.6191 33.7116 17.8037 33.8962C17.9884 34.0808 18.0921 34.3312 18.0921 34.5923C18.0921 34.8533 17.9884 35.1037 17.8037 35.2883C17.6191 35.4729 17.3688 35.5766 17.1077 35.5766ZM50.41 35.5766H46.8902C46.6291 35.5766 46.3787 35.4729 46.1941 35.2883C46.0095 35.1037 45.9058 34.8533 45.9058 34.5923C45.9058 34.3312 46.0095 34.0808 46.1941 33.8962C46.3787 33.7116 46.6291 33.6079 46.8902 33.6079H49.4256V29.3901H46.8902C46.6291 29.3901 46.3787 29.2864 46.1941 29.1018C46.0095 28.9172 45.9058 28.6668 45.9058 28.4058C45.9058 28.1447 46.0095 27.8943 46.1941 27.7097C46.3787 27.5251 46.6291 27.4214 46.8902 27.4214H50.41C50.6711 27.4214 50.9214 27.5251 51.106 27.7097C51.2906 27.8943 51.3944 28.1447 51.3944 28.4058V34.5923C51.3944 34.8533 51.2906 35.1037 51.106 35.2883C50.9214 35.4729 50.6711 35.5766 50.41 35.5766Z" fill="white"/>
<path id="Vector_2" fill-rule="evenodd" clip-rule="evenodd" d="M17.1077 35.5766H13.5879C13.3268 35.5766 13.0764 35.4728 12.8918 35.2882C12.7072 35.1036 12.6035 34.8533 12.6035 34.5922V28.4057C12.6035 28.1446 12.7072 27.8942 12.8918 27.7096C13.0764 27.525 13.3268 27.4213 13.5879 27.4213H17.1077C17.3688 27.4213 17.6191 27.525 17.8037 27.7096C17.9884 27.8942 18.0921 28.1446 18.0921 28.4057C18.0921 28.6668 17.9884 28.9171 17.8037 29.1017C17.6191 29.2864 17.3688 29.3901 17.1077 29.3901H14.5723V33.6078H17.1077C17.3688 33.6078 17.6191 33.7115 17.8037 33.8961C17.9884 34.0807 18.0921 34.3311 18.0921 34.5922C18.0921 34.8533 17.9884 35.1036 17.8037 35.2882C17.6191 35.4728 17.3688 35.5766 17.1077 35.5766ZM50.41 35.5766H46.8902C46.6291 35.5766 46.3787 35.4728 46.1941 35.2882C46.0095 35.1036 45.9058 34.8533 45.9058 34.5922C45.9058 34.3311 46.0095 34.0807 46.1941 33.8961C46.3787 33.7115 46.6291 33.6078 46.8902 33.6078H49.4256V29.3901H46.8902C46.6291 29.3901 46.3787 29.2864 46.1941 29.1017C46.0095 28.9171 45.9058 28.6668 45.9058 28.4057C45.9058 28.1446 46.0095 27.8942 46.1941 27.7096C46.3787 27.525 46.6291 27.4213 46.8902 27.4213H50.41C50.6711 27.4213 50.9214 27.525 51.106 27.7096C51.2906 27.8942 51.3944 28.1446 51.3944 28.4057V34.5922C51.3944 34.8533 51.2906 35.1036 51.106 35.2882C50.9214 35.4728 50.6711 35.5766 50.41 35.5766ZM21.1675 47.6893C21.0383 47.6893 20.9103 47.6638 20.7908 47.6143C20.6714 47.5649 20.5629 47.4924 20.4715 47.401L16.0968 43.0263C16.0054 42.9349 15.9329 42.8264 15.8834 42.707C15.834 42.5875 15.8085 42.4595 15.8085 42.3303C15.8085 42.201 15.834 42.073 15.8834 41.9535C15.9329 41.8341 16.0054 41.7256 16.0968 41.6342L18.587 39.144C18.7716 38.9594 19.022 38.8557 19.283 38.8557C19.5441 38.8557 19.7945 38.9594 19.9791 39.144C20.1637 39.3287 20.2674 39.579 20.2674 39.8401C20.2674 40.1012 20.1637 40.3516 19.9791 40.5362L18.1849 42.3303L21.1674 45.3128L22.9614 43.5187C23.1461 43.3341 23.3964 43.2304 23.6575 43.2304C23.9186 43.2304 24.169 43.3341 24.3536 43.5187C24.5382 43.7033 24.6419 43.9537 24.6419 44.2147C24.6419 44.4758 24.5382 44.7262 24.3536 44.9108L21.8634 47.401C21.7721 47.4924 21.6636 47.5649 21.5442 47.6143C21.4248 47.6638 21.2968 47.6893 21.1675 47.6893ZM44.7147 24.142C44.52 24.142 44.3296 24.0842 44.1678 23.9761C44.0059 23.8679 43.8797 23.7142 43.8052 23.5343C43.7307 23.3544 43.7112 23.1565 43.7492 22.9656C43.7872 22.7746 43.8809 22.5992 44.0186 22.4615L45.8127 20.6675L42.8302 17.6849L41.0361 19.4792C40.9447 19.5706 40.8362 19.6431 40.7167 19.6926C40.5973 19.7421 40.4693 19.7675 40.34 19.7675C40.2107 19.7675 40.0827 19.7421 39.9633 19.6926C39.8439 19.6431 39.7354 19.5706 39.644 19.4792C39.5525 19.3878 39.48 19.2793 39.4306 19.1598C39.3811 19.0404 39.3556 18.9124 39.3556 18.7831C39.3556 18.6539 39.3811 18.5259 39.4306 18.4064C39.48 18.287 39.5525 18.1785 39.644 18.0871L42.1341 15.5969C42.2255 15.5055 42.334 15.433 42.4535 15.3835C42.5729 15.3341 42.7009 15.3086 42.8302 15.3086C42.9594 15.3086 43.0874 15.3341 43.2069 15.3835C43.3263 15.433 43.4348 15.5055 43.5262 15.5969L47.9009 19.9716C47.9923 20.063 48.0648 20.1715 48.1143 20.2909C48.1637 20.4103 48.1892 20.5383 48.1892 20.6676C48.1892 20.7969 48.1637 20.9249 48.1143 21.0443C48.0648 21.1638 47.9923 21.2723 47.9009 21.3637L45.4107 23.8538C45.3194 23.9453 45.2109 24.0179 45.0914 24.0673C44.972 24.1168 44.8439 24.1422 44.7147 24.142Z" fill="white"/>
<path id="Vector_3" fill-rule="evenodd" clip-rule="evenodd" d="M40.3409 19.7695C40.149 19.7696 39.9612 19.7132 39.8011 19.6075C38.3095 18.6243 36.6444 17.9341 34.8948 17.5734C34.6391 17.5206 34.4149 17.3684 34.2714 17.1502C34.128 16.9321 34.0771 16.6659 34.1299 16.4102C34.1827 16.1545 34.335 15.9303 34.5531 15.7869C34.7713 15.6434 35.0374 15.5925 35.2931 15.6454C37.2863 16.0561 39.1832 16.8424 40.8825 17.9622C41.1006 18.1057 41.2528 18.3299 41.3056 18.5855C41.3585 18.8412 41.3076 19.1073 41.1641 19.3255C41.0746 19.4621 40.9525 19.5742 40.8088 19.6517C40.665 19.7293 40.5042 19.7697 40.3409 19.7695ZM17.1105 29.392C16.9642 29.3922 16.8197 29.3597 16.6875 29.2971C16.5554 29.2344 16.4388 29.143 16.3464 29.0296C16.254 28.9163 16.188 28.7837 16.1532 28.6416C16.1184 28.4995 16.1158 28.3515 16.1454 28.2082C16.5561 26.215 17.3424 24.3181 18.4623 22.6188C18.6066 22.4028 18.8305 22.2525 19.0851 22.2008C19.3398 22.1491 19.6045 22.2002 19.8216 22.343C20.0388 22.4857 20.1906 22.7085 20.2442 22.9628C20.2977 23.217 20.2485 23.4821 20.1073 23.7003C19.1243 25.192 18.434 26.8571 18.0733 28.6067C18.0275 28.8284 17.9068 29.0275 17.7314 29.1705C17.5561 29.3135 17.3368 29.3918 17.1105 29.392ZM46.8909 29.392C46.6646 29.3917 46.4453 29.3135 46.2699 29.1705C46.0945 29.0274 45.9737 28.8284 45.9279 28.6067C45.5673 26.8571 44.877 25.192 43.8939 23.7004C43.8207 23.5925 43.7697 23.471 43.7439 23.3432C43.718 23.2153 43.7179 23.0836 43.7434 22.9557C43.7689 22.8278 43.8195 22.7062 43.8924 22.5981C43.9653 22.4899 44.059 22.3973 44.168 22.3256C44.2769 22.254 44.3991 22.2047 44.5273 22.1807C44.6555 22.1566 44.7872 22.1583 44.9147 22.1856C45.0423 22.2129 45.1631 22.2653 45.2703 22.3397C45.3774 22.4141 45.4687 22.509 45.5388 22.619C46.6586 24.3183 47.4449 26.2152 47.8556 28.2084C47.8852 28.3516 47.8826 28.4996 47.8478 28.6416C47.813 28.7837 47.7471 28.9162 47.6547 29.0296C47.5623 29.1429 47.4458 29.2343 47.3137 29.297C47.1816 29.3597 47.0372 29.3921 46.8909 29.392ZM35.093 47.3766C34.8667 47.3763 34.6474 47.2981 34.472 47.155C34.2966 47.012 34.1758 46.8129 34.13 46.5913C34.1038 46.4647 34.1028 46.3342 34.1271 46.2073C34.1514 46.0803 34.2004 45.9594 34.2714 45.8514C34.3425 45.7433 34.4341 45.6504 34.541 45.5778C34.648 45.5052 34.7682 45.4543 34.8948 45.4282C36.6444 45.0676 38.3095 44.3773 39.8011 43.3942C40.0192 43.2539 40.2839 43.2053 40.5376 43.2591C40.7913 43.3128 41.0136 43.4646 41.156 43.6812C41.2985 43.8979 41.3498 44.1621 41.2986 44.4164C41.2474 44.6706 41.0979 44.8944 40.8827 45.0391C39.1834 46.1589 37.2865 46.9452 35.2933 47.3559C35.2274 47.3697 35.1603 47.3766 35.093 47.3766ZM19.2858 40.8264C19.1225 40.8267 18.9618 40.7862 18.818 40.7088C18.6743 40.6313 18.5521 40.5193 18.4624 40.3828C17.3426 38.6835 16.5563 36.7866 16.1456 34.7934C16.0928 34.5377 16.1437 34.2715 16.2871 34.0534C16.4305 33.8353 16.6548 33.683 16.9104 33.6302C17.1661 33.5774 17.4323 33.6283 17.6505 33.7717C17.8686 33.9152 18.0208 34.1394 18.0737 34.3951C18.4343 36.1447 19.1246 37.8098 20.1077 39.3014C20.2052 39.4497 20.2608 39.6217 20.2685 39.7991C20.2763 39.9765 20.2359 40.1527 20.1517 40.309C20.0674 40.4654 19.9425 40.596 19.7901 40.6871C19.6376 40.7782 19.4634 40.8263 19.2858 40.8264ZM28.9084 47.3766C28.8423 47.3766 28.7754 47.3699 28.7081 47.3559C26.7149 46.9452 24.818 46.1589 23.1187 45.0391C22.9046 44.8939 22.7562 44.6704 22.7056 44.4167C22.655 44.163 22.7064 43.8996 22.8485 43.6834C22.9906 43.4673 23.2121 43.3158 23.465 43.2616C23.7179 43.2075 23.982 43.2551 24.2002 43.3942C25.6918 44.3772 27.3568 45.0675 29.1065 45.4282C29.3451 45.4775 29.557 45.6135 29.7011 45.81C29.8452 46.0064 29.9114 46.2494 29.8867 46.4918C29.8621 46.7342 29.7484 46.9589 29.5677 47.1223C29.387 47.2858 29.1521 47.3764 28.9084 47.3766ZM44.7156 40.8264C44.538 40.8263 44.3638 40.7781 44.2114 40.687C44.059 40.5958 43.934 40.4652 43.8498 40.3089C43.7656 40.1525 43.7253 39.9763 43.7331 39.7989C43.7409 39.6215 43.7965 39.4495 43.8941 39.3012C44.8771 37.8095 45.5674 36.1445 45.9281 34.3949C45.9833 34.1416 46.1362 33.9204 46.3536 33.7792C46.5709 33.6379 46.8352 33.5882 47.089 33.6406C47.3429 33.6931 47.5658 33.8435 47.7094 34.0593C47.853 34.2751 47.9056 34.5388 47.856 34.7932C47.4452 36.7865 46.659 38.6833 45.5391 40.3826C45.4495 40.5192 45.3273 40.6312 45.1835 40.7087C45.0397 40.7862 44.8789 40.8267 44.7156 40.8264ZM23.6605 19.7695C23.4485 19.7698 23.2422 19.7016 23.072 19.5752C22.9019 19.4488 22.7772 19.2709 22.7163 19.0678C22.6555 18.8648 22.6618 18.6476 22.7343 18.4484C22.8069 18.2493 22.9417 18.0789 23.1189 17.9626C24.8182 16.8428 26.7151 16.0565 28.7083 15.6457C28.9639 15.5929 29.2301 15.6437 29.4483 15.7872C29.6665 15.9306 29.8187 16.1548 29.8716 16.4105C29.9244 16.6661 29.8735 16.9324 29.7301 17.1505C29.5867 17.3687 29.3625 17.5209 29.1068 17.5738C27.3571 17.9344 25.692 18.6247 24.2003 19.6076C24.0401 19.7132 23.8524 19.7695 23.6605 19.7695Z" fill="white"/>
<path id="Vector_4" fill-rule="evenodd" clip-rule="evenodd" d="M31.9974 40.823C29.5064 40.823 27.1646 39.8529 25.4033 38.0915C23.6419 36.3302 22.6719 33.9882 22.6719 31.4974C22.6719 29.0064 23.6419 26.6646 25.4033 24.9033C27.1648 23.1421 29.5064 22.1719 31.9974 22.1719C34.4884 22.1719 36.8302 23.1419 38.5915 24.9033C40.3528 26.6646 41.323 29.0066 41.323 31.4974C41.323 33.9884 40.3529 36.3302 38.5915 38.0915C36.8302 39.8529 34.4884 40.823 31.9974 40.823ZM31.9974 24.1406C27.9408 24.1406 24.6406 27.4408 24.6406 31.4974C24.6406 35.554 27.9408 38.8542 31.9974 38.8542C36.054 38.8542 39.3542 35.554 39.3542 31.4974C39.3542 27.441 36.054 24.1406 31.9974 24.1406Z" fill="white"/>
<path id="Vector_5" fill-rule="evenodd" clip-rule="evenodd" d="M30.8563 34.8026C30.727 34.8028 30.599 34.7774 30.4795 34.728C30.3601 34.6785 30.2516 34.6059 30.1603 34.5143L27.8762 32.2303C27.7848 32.1389 27.7123 32.0304 27.6628 31.9109C27.6134 31.7915 27.5879 31.6635 27.5879 31.5342C27.5879 31.405 27.6134 31.277 27.6628 31.1575C27.7123 31.0381 27.7848 30.9296 27.8762 30.8382C27.9676 30.7468 28.0761 30.6742 28.1956 30.6248C28.315 30.5753 28.443 30.5498 28.5723 30.5498C28.7015 30.5498 28.8296 30.5753 28.949 30.6248C29.0684 30.6742 29.1769 30.7468 29.2683 30.8382L30.8563 32.4261L34.7285 28.5539C34.9131 28.3693 35.1635 28.2656 35.4246 28.2656C35.6857 28.2656 35.936 28.3693 36.1207 28.5539C36.3053 28.7386 36.409 28.9889 36.409 29.25C36.409 29.5111 36.3053 29.7615 36.1207 29.9461L31.5524 34.5143C31.4611 34.6059 31.3526 34.6785 31.2331 34.728C31.1137 34.7775 30.9856 34.8029 30.8563 34.8026Z" fill="white"/>
<path id="Vector_6" fill-rule="evenodd" clip-rule="evenodd" d="M4.42773 48.4257C4.16666 48.4257 3.91628 48.322 3.73167 48.1374C3.54707 47.9528 3.44336 47.7024 3.44336 47.4413V12.0449C3.44336 7.3127 7.29334 3.46289 12.0253 3.46289H50.1997C50.4608 3.46289 50.7112 3.5666 50.8958 3.75121C51.0804 3.93581 51.1841 4.18619 51.1841 4.44726C51.1841 4.70833 51.0804 4.95871 50.8958 5.14332C50.7112 5.32792 50.4608 5.43163 50.1997 5.43163H12.0253C8.37871 5.43163 5.4121 8.39841 5.4121 12.0449V47.4413C5.4121 47.7024 5.30839 47.9528 5.12378 48.1374C4.93918 48.322 4.6888 48.4257 4.42773 48.4257Z" fill="white"/>
<path id="Vector_7" fill-rule="evenodd" clip-rule="evenodd" d="M46.7355 8.89729C46.5408 8.89729 46.3505 8.83956 46.1886 8.7314C46.0267 8.62323 45.9005 8.4695 45.826 8.28962C45.7515 8.10975 45.732 7.91182 45.77 7.72087C45.808 7.52992 45.9017 7.35452 46.0394 7.21685L48.8076 4.44865L46.0394 1.68045C45.948 1.58904 45.8755 1.48053 45.826 1.36109C45.7766 1.24166 45.7511 1.11366 45.7511 0.984386C45.7511 0.855115 45.7766 0.727109 45.826 0.607678C45.8755 0.488247 45.948 0.379729 46.0394 0.288321C46.1308 0.196912 46.2393 0.124402 46.3588 0.074932C46.4782 0.025462 46.6062 0 46.7355 0C46.8648 0 46.9928 0.025462 47.1122 0.074932C47.2316 0.124402 47.3401 0.196912 47.4315 0.288321L50.8958 3.75259C50.9872 3.84399 51.0597 3.95251 51.1092 4.07194C51.1587 4.19137 51.1841 4.31938 51.1841 4.44865C51.1841 4.57792 51.1587 4.70593 51.1092 4.82536C51.0597 4.94479 50.9872 5.05331 50.8958 5.14472L47.4315 8.60898C47.3402 8.70053 47.2317 8.77312 47.1123 8.8226C46.9928 8.87208 46.8648 8.89746 46.7355 8.89729ZM4.42774 54.3142C2.26195 54.3142 0.5 52.5522 0.5 50.3864C0.5 48.2206 2.26195 46.4585 4.42774 46.4585C6.59352 46.4585 8.35548 48.2206 8.35548 50.3864C8.35548 52.5522 6.59352 54.3142 4.42774 54.3142ZM4.42774 48.4273C3.3475 48.4273 2.46874 49.3062 2.46874 50.3864C2.46874 51.4667 3.34767 52.3454 4.42774 52.3454C5.50781 52.3454 6.38674 51.4665 6.38674 50.3864C6.38674 49.3062 5.50798 48.4273 4.42774 48.4273ZM51.974 59.5356H13.7996C13.5385 59.5356 13.2881 59.4319 13.1035 59.2473C12.9189 59.0627 12.8152 58.8123 12.8152 58.5512C12.8152 58.2902 12.9189 58.0398 13.1035 57.8552C13.2881 57.6706 13.5385 57.5669 13.7996 57.5669H51.9742C55.6208 57.5669 58.5876 54.6001 58.5876 50.9536V15.557C58.5876 15.2959 58.6913 15.0455 58.8759 14.8609C59.0605 14.6763 59.3109 14.5726 59.5719 14.5726C59.833 14.5726 60.0834 14.6763 60.268 14.8609C60.4526 15.0455 60.5563 15.2959 60.5563 15.557V50.9535C60.5561 55.6856 56.7062 59.5356 51.974 59.5356Z" fill="white"/>
<path id="Vector_8" fill-rule="evenodd" clip-rule="evenodd" d="M17.2631 62.9997C17.1338 62.9999 17.0058 62.9745 16.8863 62.925C16.7668 62.8755 16.6584 62.8029 16.567 62.7114L13.1028 59.2471C13.0114 59.1557 12.9389 59.0472 12.8894 58.9278C12.8399 58.8083 12.8145 58.6803 12.8145 58.5511C12.8145 58.4218 12.8399 58.2938 12.8894 58.1744C12.9389 58.0549 13.0114 57.9464 13.1028 57.855L16.567 54.3907C16.7517 54.2061 17.002 54.1024 17.2631 54.1024C17.5242 54.1024 17.7746 54.2061 17.9592 54.3907C18.1438 54.5754 18.2475 54.8257 18.2475 55.0868C18.2475 55.3479 18.1438 55.5983 17.9592 55.7829L15.191 58.5511L17.9592 61.3193C18.0968 61.4569 18.1906 61.6323 18.2286 61.8233C18.2666 62.0142 18.2471 62.2122 18.1726 62.392C18.0981 62.5719 17.9719 62.7257 17.81 62.8338C17.6481 62.942 17.4578 62.9997 17.2631 62.9997ZM59.5709 16.5412C57.4051 16.5412 55.6431 14.7792 55.6431 12.6133C55.6431 10.4475 57.4051 8.68555 59.5709 8.68555C61.7366 8.68555 63.4988 10.4475 63.4988 12.6133C63.4986 14.7791 61.7366 16.5412 59.5709 16.5412ZM59.5709 10.6543C58.4906 10.6543 57.6119 11.5332 57.6119 12.6133C57.6119 13.6935 58.4908 14.5725 59.5709 14.5725C60.6511 14.5725 61.53 13.6935 61.53 12.6133C61.5299 11.533 60.6511 10.6543 59.5709 10.6543Z" fill="white"/>
</g>
</svg>
