<svg width="66" height="66" viewBox="0 0 66 66" fill="none" xmlns="http://www.w3.org/2000/svg">
<g id="Group">
<path id="Vector" d="M32.9986 17.1211C30.1739 17.1197 27.4 17.8723 24.9633 19.3011C22.5266 20.7299 20.5155 22.7833 19.1375 25.2491C17.7595 27.7149 17.0647 30.5038 17.1247 33.3279C17.1847 36.152 17.9974 38.9088 19.4789 41.3139C19.5075 41.3704 19.5418 41.424 19.581 41.4738C20.8445 43.4649 22.5326 45.1521 24.5245 46.4145C24.5731 46.4533 24.6255 46.4869 24.681 46.5149C26.7711 47.8028 29.1313 48.5883 31.5763 48.81C34.0212 49.0316 36.4842 48.6833 38.7718 47.7923C41.0594 46.9013 43.1092 45.492 44.7601 43.6751C46.4111 41.8581 47.6182 39.6831 48.2867 37.3209C48.9551 34.9587 49.0666 32.4736 48.6125 30.061C48.1584 27.6484 47.151 25.374 45.6694 23.4165C44.1879 21.459 42.2726 19.8717 40.0741 18.7793C37.8755 17.687 35.4536 17.1194 32.9986 17.1211ZM21.5956 40.9947L24.5933 37.9969C24.735 37.8552 24.8295 37.6732 24.8637 37.4757C24.8978 37.2782 24.8701 37.075 24.7843 36.8939C24.0297 35.3084 23.7506 33.5383 23.9807 31.7976C24.2109 30.0568 24.9404 28.42 26.0811 27.0852C27.2219 25.7503 28.7249 24.7745 30.4085 24.2758C32.0921 23.7771 33.8841 23.7769 35.5678 24.2751L29.9215 29.9214C29.8313 30.0116 29.7598 30.1186 29.711 30.2364C29.6622 30.3543 29.6372 30.4806 29.6373 30.6081V35.3878C29.6373 35.6455 29.7396 35.8926 29.9218 36.0748C30.104 36.2569 30.3511 36.3593 30.6088 36.3593H35.389C35.5166 36.3593 35.6429 36.3341 35.7607 36.2853C35.8786 36.2364 35.9856 36.1648 36.0757 36.0745L41.7215 30.4293C42.2202 32.1133 42.2203 33.9058 41.7217 35.5898C41.2231 37.2739 40.2472 38.7773 38.912 39.9183C37.5768 41.0593 35.9395 41.7889 34.1983 42.0188C32.4571 42.2488 30.6866 41.9692 29.101 41.214C28.92 41.1277 28.7167 41.0998 28.5191 41.134C28.3215 41.1682 28.1394 41.2628 27.998 41.4049L25.0002 44.4027C23.6777 43.471 22.526 42.3181 21.5956 40.9947ZM32.9986 46.9318C30.8163 46.9341 28.6644 46.4205 26.7184 45.433L28.9039 43.2469C30.9639 44.0728 33.2251 44.2581 35.3921 43.7787C37.5591 43.2992 39.5311 42.1773 41.0504 40.5594C42.5697 38.9416 43.5656 36.903 43.9081 34.7102C44.2505 32.5174 43.9236 30.2723 42.9699 28.2682C42.9034 28.1275 42.8039 28.0049 42.68 27.9107C42.5561 27.8165 42.4114 27.7535 42.258 27.7269C42.1047 27.7004 41.9472 27.7111 41.7988 27.7581C41.6505 27.8052 41.5156 27.8872 41.4056 27.9973L34.9866 34.4163H31.5802V31.0106L37.9993 24.591C38.1094 24.481 38.1914 24.3461 38.2385 24.1977C38.2855 24.0494 38.2962 23.8919 38.2697 23.7385C38.2431 23.5852 38.1801 23.4404 38.0859 23.3165C37.9916 23.1926 37.869 23.0932 37.7284 23.0266C35.7243 22.073 33.4792 21.746 31.2864 22.0885C29.0935 22.431 27.055 23.4269 25.4372 24.9462C23.8193 26.4655 22.6973 28.4374 22.2179 30.6044C21.7384 32.7714 21.9238 35.0326 22.7497 37.0926L20.5636 39.2788C19.196 36.5704 18.7497 33.4897 19.2926 30.5046C19.8356 27.5195 21.338 24.7931 23.5717 22.7398C25.8054 20.6865 28.6483 19.4183 31.6684 19.128C34.6886 18.8377 37.721 19.5411 40.3049 21.1314C42.8888 22.7216 44.8831 25.1118 45.9847 27.9389C47.0863 30.7659 47.235 33.8752 46.4083 36.7945C45.5816 39.7138 43.8247 42.2835 41.4044 44.1131C38.9841 45.9428 36.0327 46.9325 32.9986 46.9318Z" fill="url(#paint0_linear_2932_1185)"/>
<path id="Vector_2" d="M65.0268 26.7075H58.7627C58.1217 24.0702 57.0754 21.5482 55.6612 19.2315L60.095 14.7982C60.2771 14.616 60.3794 14.3689 60.3794 14.1113C60.3794 13.8536 60.2771 13.6065 60.095 13.4243L52.5718 5.90331C52.3863 5.72761 52.1404 5.6297 51.8849 5.6297C51.6293 5.6297 51.3835 5.72761 51.1979 5.90331L46.7668 10.3366C44.4501 8.9226 41.9281 7.87633 39.2908 7.23507V0.971486C39.2909 0.843888 39.2658 0.717527 39.217 0.599628C39.1682 0.481729 39.0966 0.374605 39.0064 0.284379C38.9162 0.194154 38.8091 0.122597 38.6912 0.0738016C38.5733 0.0250056 38.4469 -7.28169e-05 38.3193 1.58806e-07H27.6796C27.4219 1.58806e-07 27.1748 0.102353 26.9926 0.284542C26.8105 0.466731 26.7081 0.713832 26.7081 0.971486V7.23507C24.0708 7.87633 21.5488 8.9226 19.2321 10.3366L14.7988 5.90331C14.7086 5.81302 14.6015 5.74139 14.4836 5.69252C14.3658 5.64365 14.2394 5.6185 14.1118 5.6185C13.9842 5.6185 13.8578 5.64365 13.74 5.69252C13.6221 5.74139 13.515 5.81302 13.4248 5.90331L5.90386 13.4265C5.81357 13.5167 5.74195 13.6238 5.69308 13.7416C5.64421 13.8595 5.61905 13.9859 5.61905 14.1135C5.61905 14.2411 5.64421 14.3674 5.69308 14.4853C5.74195 14.6032 5.81357 14.7103 5.90386 14.8005L10.3372 19.2315C8.92316 21.5483 7.87688 24.0702 7.23563 26.7075H0.971486C0.713877 26.7077 0.466861 26.8101 0.284704 26.9923C0.102547 27.1744 0.000147079 27.4214 0 27.679V38.3187C0.000147079 38.5764 0.102547 38.8234 0.284704 39.0055C0.466861 39.1877 0.713877 39.2901 0.971486 39.2902H7.23563C7.87688 41.9276 8.92316 44.4495 10.3372 46.7662L5.90386 51.1996C5.81357 51.2897 5.74195 51.3968 5.69308 51.5147C5.64421 51.6326 5.61905 51.7589 5.61905 51.8865C5.61905 52.0141 5.64421 52.1405 5.69308 52.2584C5.74195 52.3762 5.81357 52.4833 5.90386 52.5735L13.4271 60.0967C13.5172 60.187 13.6243 60.2586 13.7422 60.3075C13.8601 60.3563 13.9864 60.3815 14.114 60.3815C14.2416 60.3815 14.368 60.3563 14.4859 60.3075C14.6037 60.2586 14.7108 60.187 14.801 60.0967L19.2343 55.6634C21.5503 57.0773 24.0715 58.1234 26.7081 58.7644V65.0285C26.7081 65.2862 26.8105 65.5333 26.9926 65.7155C27.1748 65.8977 27.4219 66 27.6796 66H38.3193C38.4469 66.0001 38.5733 65.975 38.6912 65.9262C38.8091 65.8774 38.9162 65.8058 39.0064 65.7156C39.0966 65.6254 39.1682 65.5183 39.217 65.4004C39.2658 65.2825 39.2909 65.1561 39.2908 65.0285V58.7621C41.9281 58.1213 44.4501 57.0752 46.7668 55.6612L51.2001 60.0945C51.3857 60.2702 51.6315 60.3681 51.8871 60.3681C52.1426 60.3681 52.3885 60.2702 52.5741 60.0945L60.0973 52.5713C60.2793 52.389 60.3816 52.1419 60.3816 51.8843C60.3816 51.6267 60.2793 51.3796 60.0973 51.1973L55.6612 46.7662C57.0752 44.4503 58.1214 41.9291 58.7627 39.2925H65.0268C65.2845 39.2925 65.5316 39.1901 65.7138 39.0079C65.896 38.8257 65.9983 38.5786 65.9983 38.321V27.679C65.9983 27.4214 65.896 27.1743 65.7138 26.9921C65.5316 26.8099 65.2845 26.7075 65.0268 26.7075ZM64.0554 37.3473H57.9877C57.765 37.347 57.5489 37.4234 57.3757 37.5636C57.2026 37.7038 57.0829 37.8993 57.0368 38.1172C56.4143 41.057 55.253 43.8561 53.6116 46.3732C53.49 46.5598 53.4363 46.7824 53.4595 47.0039C53.4826 47.2254 53.5812 47.4321 53.7387 47.5895L58.036 51.8846L51.8846 58.0355L47.5901 53.741C47.4327 53.5833 47.226 53.4846 47.0046 53.4614C46.7831 53.4381 46.5604 53.4918 46.3738 53.6133C43.8569 55.2546 41.0579 56.4159 38.1183 57.0385C37.9004 57.0844 37.7048 57.204 37.5645 57.377C37.4243 57.5501 37.3477 57.7661 37.3478 57.9888V64.0565H28.6511V57.9888C28.6516 57.7658 28.5753 57.5494 28.4351 57.3759C28.2949 57.2024 28.0993 57.0825 27.8811 57.0362C24.9413 56.4139 22.1421 55.2526 19.6251 53.6111C19.4385 53.4897 19.2158 53.4362 18.9944 53.4595C18.773 53.4827 18.5662 53.5813 18.4088 53.7387L14.1138 58.0355L7.96286 51.8846L12.2574 47.5895C12.415 47.4322 12.5137 47.2255 12.5369 47.004C12.5602 46.7825 12.5066 46.5598 12.3851 46.3732C10.7443 43.8561 9.58373 41.0569 8.9621 38.1172C8.91572 37.8995 8.79606 37.7043 8.62309 37.5642C8.45012 37.424 8.23432 37.3475 8.01171 37.3473H1.94297V28.6505H8.01115C8.23386 28.6504 8.44979 28.5739 8.62288 28.4338C8.79596 28.2937 8.9157 28.0984 8.9621 27.8805C9.58442 24.9407 10.7457 22.1415 12.3873 19.6246C12.5088 19.438 12.5624 19.2152 12.5392 18.9938C12.5159 18.7723 12.4172 18.5656 12.2596 18.4083L7.96286 14.1132L14.1138 7.9623L18.4088 12.2568C18.5661 12.4144 18.7729 12.5131 18.9943 12.5364C19.2158 12.5596 19.4385 12.506 19.6251 12.3845C22.1424 10.744 24.9415 9.58342 27.8811 8.96154C28.0989 8.91526 28.2942 8.79563 28.4343 8.62264C28.5745 8.44965 28.651 8.23379 28.6511 8.01115V1.94297H37.3478V8.0106C37.3477 8.23343 37.4242 8.44953 37.5645 8.62267C37.7048 8.7958 37.9003 8.91545 38.1183 8.96154C41.0579 9.58422 43.8568 10.7455 46.3738 12.3867C46.5604 12.508 46.7831 12.5615 47.0045 12.5383C47.2259 12.5151 47.4326 12.4165 47.5901 12.259L51.8846 7.9623L58.036 14.1132L53.741 18.4083C53.5834 18.5657 53.4848 18.7724 53.4617 18.9939C53.4385 19.2153 53.4923 19.438 53.6138 19.6246C55.2544 22.1418 56.415 24.9409 57.0368 27.8805C57.0829 28.0984 57.2025 28.2938 57.3755 28.434C57.5485 28.5742 57.7645 28.6506 57.9872 28.6505H64.0548L64.0554 37.3473Z" fill="url(#paint1_linear_2932_1185)"/>
</g>
<defs>
<linearGradient id="paint0_linear_2932_1185" x1="33.0038" y1="17.1211" x2="33.0038" y2="48.8748" gradientUnits="userSpaceOnUse">
<stop stop-color="#8551D7"/>
<stop offset="1" stop-color="#A74EBF"/>
</linearGradient>
<linearGradient id="paint1_linear_2932_1185" x1="32.9992" y1="0" x2="32.9992" y2="66" gradientUnits="userSpaceOnUse">
<stop stop-color="#8551D7"/>
<stop offset="1" stop-color="#A74EBF"/>
</linearGradient>
</defs>
</svg>
