<svg width="59" height="56" viewBox="0 0 59 56" fill="none" xmlns="http://www.w3.org/2000/svg">
<path fill-rule="evenodd" clip-rule="evenodd" d="M6.8303 38.4917H6.59474C4.8457 38.4917 3.16831 37.7969 1.93155 36.5602C0.6948 35.3234 0 33.646 0 31.897V26.7729C0 25.0238 0.6948 23.3464 1.93155 22.1097C3.16831 20.8729 4.8457 20.1781 6.59474 20.1781H8.89879V20.1215C8.89879 9.00863 17.9075 0 29.0202 0C40.1331 0 49.1417 9.00863 49.1417 20.1215V20.1781H51.4458C53.1948 20.1781 54.8722 20.8729 56.1089 22.1097C57.3457 23.3464 58.0405 25.0238 58.0405 26.7729V31.897C58.0405 33.646 57.3457 35.3234 56.1089 36.5602C54.8722 37.7969 53.1948 38.4917 51.4458 38.4917H48.251C47.9461 38.4917 47.6536 38.3706 47.438 38.1549C47.2224 37.9393 47.1012 37.6469 47.1012 37.3419V20.1215C47.1012 10.1357 39.0062 2.04049 29.0202 2.04049C19.0344 2.04049 10.9393 10.1357 10.9393 20.1215V37.3419C10.9393 37.4929 10.9096 37.6424 10.8518 37.7819C10.794 37.9214 10.7093 38.0482 10.6026 38.1549C10.4958 38.2617 10.3691 38.3464 10.2296 38.4042C10.0901 38.462 9.94056 38.4917 9.78957 38.4917H8.8709C8.92316 44.9463 14.1712 50.1619 20.6372 50.1619H22.6113C22.8443 49.0863 23.4386 48.1229 24.2952 47.432C25.1519 46.7411 26.2193 46.3643 27.3198 46.3644H30.7206C33.3814 46.3644 35.5385 48.5214 35.5385 51.1822C35.5385 53.843 33.3814 56 30.7206 56H27.3198C25.0092 56 23.0785 54.3734 22.6103 52.2024H20.6372C13.0437 52.2024 6.88188 46.0725 6.8303 38.4917ZM33.498 51.1822C33.498 49.6483 32.2545 48.4049 30.7206 48.4049H27.3198C26.9551 48.4048 26.594 48.4767 26.257 48.6162C25.92 48.7558 25.6138 48.9604 25.3559 49.2183C25.098 49.4762 24.8935 49.7824 24.7539 50.1193C24.6143 50.4563 24.5425 50.8175 24.5425 51.1822C24.5425 52.7161 25.786 53.9595 27.3198 53.9595H30.7206C32.2545 53.9595 33.498 52.7161 33.498 51.1822ZM8.89879 22.2186H6.59474C5.38688 22.2187 4.22851 22.6985 3.37443 23.5526C2.52035 24.4066 2.04052 25.565 2.04049 26.7729V31.897C2.04052 33.1048 2.52035 34.2632 3.37443 35.1173C4.22851 35.9714 5.38688 36.4512 6.59474 36.4512H8.89879V22.2186ZM49.1417 22.2186V36.4512H51.4458C52.6536 36.4512 53.812 35.9714 54.6661 35.1173C55.5201 34.2632 56 33.1048 56 31.897V26.7729C56 26.1748 55.8823 25.5826 55.6534 25.03C55.4246 24.4774 55.0891 23.9753 54.6662 23.5524C54.2433 23.1295 53.7412 22.7941 53.1886 22.5652C52.6361 22.3363 52.0438 22.2186 51.4458 22.2186H49.1417Z" fill="white"/>
</svg>
