<svg width="38" height="34" viewBox="0 0 38 34" fill="none" xmlns="http://www.w3.org/2000/svg">
<path d="M22.4756 12.0672H15.3172C15.1003 12.0672 14.9051 11.9468 14.84 11.7463L13.6903 8.61774V8.59768L12.6057 5.46912C12.5407 5.26857 12.6057 5.06802 12.801 4.94769L18.571 1.05704C18.7663 0.936715 19.0049 0.936715 19.1784 1.05704L24.9485 4.94769C25.122 5.06802 25.2088 5.26857 25.1437 5.46912L22.9745 11.7463C22.8877 11.9268 22.6925 12.0672 22.4756 12.0672ZM15.686 11.1246H22.1068L24.0591 5.48917L18.8747 2.01968L13.6687 5.48917L14.6448 8.31691L15.686 11.1246ZM9.82918 33.3254H2.7359C2.51898 33.3254 2.32375 33.205 2.25868 33.0045L1.109 29.8759V29.8559L0.0244035 26.7273C-0.0406725 26.5268 0.0244035 26.3262 0.219631 26.2059L5.9897 22.3152C6.18492 22.1949 6.42354 22.1949 6.59707 22.3152L12.3671 26.2059C12.5407 26.3262 12.6274 26.5268 12.5624 26.7273L11.4778 29.8559V29.8759L10.3281 33.0045C10.2413 33.205 10.0461 33.3254 9.82918 33.3254ZM3.10466 32.3828H9.46041L10.5016 29.5751L11.4778 26.7474L6.29338 23.2779L1.08731 26.7474L2.06345 29.5751L3.10466 32.3828ZM34.276 33.3254H27.1828C26.9658 33.3254 26.7706 33.205 26.7055 33.0045L25.5559 29.8759V29.8559L24.4713 26.7273C24.4062 26.5268 24.4713 26.3262 24.6448 26.2059L30.4366 22.3152C30.6101 22.1949 30.8487 22.1949 31.0222 22.3152L36.814 26.2059C36.9875 26.3262 37.0743 26.5268 37.0092 26.7273L35.9246 29.8559V29.8759L34.7533 33.0045C34.6882 33.205 34.493 33.3254 34.276 33.3254ZM27.5515 32.3828H33.9073L34.9485 29.5751L35.9246 26.7474L30.7185 23.2779L25.5342 26.7474L26.5103 29.5751L27.5515 32.3828ZM7.81182 21.2924C7.70336 21.2924 7.5949 21.2523 7.50813 21.1922C7.26952 21.0518 7.22614 20.7509 7.39967 20.5504L13.3216 13.1903C13.4951 12.9897 13.8205 12.9496 14.0374 13.09C14.2543 13.2504 14.2977 13.5512 14.1459 13.7518L8.20228 21.1119C8.11551 21.2323 7.96367 21.2924 7.81182 21.2924ZM29.352 21.2924C29.2001 21.2924 29.0266 21.2122 28.9398 21.0919L23.43 13.7317C23.2782 13.5312 23.3433 13.2304 23.5602 13.09C23.7988 12.9496 24.1025 12.9897 24.276 13.2103L29.7641 20.5705C29.9159 20.771 29.8726 21.0718 29.6339 21.2122C29.5472 21.2724 29.4604 21.2924 29.352 21.2924ZM22.2587 29.0537H14.7533C14.4713 29.0537 14.2326 28.8331 14.2326 28.5724C14.2326 28.3116 14.4713 28.1111 14.7533 28.1111H22.2587C22.5407 28.1111 22.7793 28.3116 22.7793 28.5724C22.7793 28.8331 22.5407 29.0537 22.2587 29.0537Z" fill="#F0F0F0"/>
<path d="M18.8748 10.2613C16.9225 10.2613 15.4041 8.85747 15.4041 7.05253C15.4041 5.24759 16.9225 3.84375 18.8748 3.84375C20.8271 3.84375 22.4106 5.2877 22.4106 7.05253C22.4106 8.81736 20.8271 10.2613 18.8748 10.2613ZM18.8748 4.78633C17.4865 4.78633 16.4019 5.76902 16.4019 7.05253C16.4019 8.33605 17.4865 9.31874 18.8748 9.31874C20.2631 9.31874 21.3911 8.29594 21.3911 7.05253C21.3911 5.80913 20.2631 4.78633 18.8748 4.78633ZM30.7186 31.5195C28.788 31.5195 27.2479 30.1157 27.2479 28.3107C27.2479 26.5058 28.788 25.1019 30.7186 25.1019C32.6709 25.1019 34.1893 26.5058 34.1893 28.3107C34.1893 30.1157 32.6709 31.5195 30.7186 31.5195ZM30.7186 26.0445C29.352 26.0445 28.2674 27.0272 28.2674 28.3107C28.2674 29.5942 29.352 30.5769 30.7186 30.5769C32.1069 30.5769 33.1915 29.5942 33.1915 28.3107C33.1915 27.0272 32.1069 26.0445 30.7186 26.0445ZM6.29347 31.5195C4.34119 31.5195 2.82275 30.1157 2.82275 28.3107C2.82275 26.5058 4.34119 25.1019 6.29347 25.1019C8.22406 25.1019 9.76419 26.5058 9.76419 28.3107C9.76419 30.1157 8.22406 31.5195 6.29347 31.5195ZM6.29347 26.0445C4.90518 26.0445 3.82058 27.0272 3.82058 28.3107C3.82058 29.5942 4.90518 30.5769 6.29347 30.5769C7.66006 30.5769 8.74466 29.5942 8.74466 28.3107C8.74466 27.0272 7.66006 26.0445 6.29347 26.0445Z" fill="#F0F0F0"/>
</svg>
