<?xml version="1.0" encoding="utf-8"?>
<!-- Generator: Adobe Illustrator 27.1.1, SVG Export Plug-In . SVG Version: 6.00 Build 0)  -->
<svg version="1.1" id="Layer_1" xmlns="http://www.w3.org/2000/svg" xmlns:xlink="http://www.w3.org/1999/xlink" x="0px" y="0px"
	 viewBox="0 0 1000.67 1000" style="enable-background:new 0 0 1000.67 1000;" xml:space="preserve">
<style type="text/css">
	.st0{fill:#CF3C27;}
	.st1{fill:#282828;}
	.st2{display:none;}
	.st3{display:inline;}
</style>
<g>
	<path class="st0" d="M113.14,536.46c0-6.81,1.31-13.23,3.92-19.26c2.62-6.02,6.21-11.29,10.77-15.79
		c4.56-4.5,9.86-8.03,15.88-10.59c6.02-2.56,12.44-3.83,19.26-3.83c6.94,0,13.42,1.28,19.44,3.83c6.02,2.56,11.29,6.09,15.79,10.59
		c4.5,4.5,8.06,9.74,10.68,15.7c2.62,5.96,3.92,12.41,3.92,19.35c0,6.82-1.31,13.21-3.92,19.17c-2.62,5.96-6.15,11.14-10.59,15.52
		c-4.44,4.38-9.71,7.85-15.79,10.4c-6.09,2.56-12.6,3.83-19.53,3.83c-6.82,0-13.27-1.28-19.35-3.83
		c-6.09-2.56-11.38-6.05-15.88-10.5c-4.5-4.44-8.06-9.64-10.68-15.61C114.44,549.48,113.14,543.15,113.14,536.46z M187.61,536.46
		c0-3.65-0.64-7.06-1.92-10.22c-1.28-3.16-3.04-5.96-5.29-8.4c-2.25-2.43-4.87-4.35-7.85-5.75c-2.98-1.4-6.18-2.1-9.58-2.1
		c-3.41,0-6.6,0.7-9.58,2.1c-2.98,1.4-5.6,3.32-7.85,5.75c-2.25,2.44-4.02,5.27-5.29,8.49c-1.28,3.23-1.92,6.6-1.92,10.13
		c0,3.53,0.64,6.85,1.92,9.95c1.28,3.1,3.04,5.84,5.29,8.21c2.25,2.37,4.87,4.26,7.85,5.66c2.98,1.4,6.18,2.1,9.58,2.1
		c3.41,0,6.6-0.67,9.58-2.01c2.98-1.34,5.6-3.19,7.85-5.57c2.25-2.37,4.02-5.14,5.29-8.3C186.97,543.33,187.61,539.99,187.61,536.46
		z"/>
	<path class="st0" d="M283.26,486.99c5.47,0,10.56,1.04,15.24,3.1c4.68,2.07,8.73,4.87,12.14,8.4c3.41,3.53,6.08,7.73,8.03,12.6
		c1.94,4.87,2.92,10.1,2.92,15.7v56.77h-25.01v-55.31c0-5.23-1.79-9.52-5.38-12.87c-3.59-3.35-8.12-5.02-13.6-5.02
		c-2.92,0-5.63,0.52-8.12,1.55c-2.5,1.04-4.66,2.46-6.48,4.29c-1.83,1.82-3.26,3.99-4.29,6.48c-1.03,2.5-1.55,5.2-1.55,8.12v52.75
		h-25.19v-94.92h25.19v9.86c2.8-3.65,6.48-6.48,11.04-8.49C272.76,488,277.78,486.99,283.26,486.99z"/>
	<path class="st1" d="M424.36,490.46l18.07,47.64l18.44-49.28h26.83l-35.96,94.92h-19.17l-19.17-51.47l-19.35,51.47h-19.35
		l-35.78-94.92h26.83l18.62,49.28l17.52-47.64H424.36z"/>
	<path class="st1" d="M499.01,536.46c0-6.81,1.31-13.23,3.92-19.26c2.62-6.02,6.21-11.29,10.77-15.79
		c4.56-4.5,9.86-8.03,15.88-10.59s12.44-3.83,19.26-3.83c6.94,0,13.42,1.28,19.44,3.83c6.02,2.56,11.29,6.09,15.79,10.59
		c4.5,4.5,8.06,9.74,10.68,15.7c2.62,5.96,3.92,12.41,3.92,19.35c0,6.82-1.31,13.21-3.92,19.17c-2.62,5.96-6.15,11.14-10.59,15.52
		c-4.44,4.38-9.71,7.85-15.79,10.4c-6.09,2.56-12.59,3.83-19.53,3.83c-6.82,0-13.27-1.28-19.35-3.83
		c-6.09-2.56-11.38-6.05-15.88-10.5c-4.5-4.44-8.06-9.64-10.68-15.61C500.32,549.48,499.01,543.15,499.01,536.46z M573.48,536.46
		c0-3.65-0.64-7.06-1.92-10.22c-1.28-3.16-3.04-5.96-5.29-8.4c-2.25-2.43-4.87-4.35-7.85-5.75c-2.98-1.4-6.18-2.1-9.58-2.1
		c-3.41,0-6.6,0.7-9.58,2.1c-2.98,1.4-5.6,3.32-7.85,5.75c-2.25,2.44-4.02,5.27-5.29,8.49c-1.28,3.23-1.92,6.6-1.92,10.13
		c0,3.53,0.64,6.85,1.92,9.95c1.28,3.1,3.04,5.84,5.29,8.21c2.25,2.37,4.87,4.26,7.85,5.66c2.98,1.4,6.17,2.1,9.58,2.1
		c3.41,0,6.6-0.67,9.58-2.01c2.98-1.34,5.6-3.19,7.85-5.57c2.25-2.37,4.02-5.14,5.29-8.3C572.85,543.33,573.48,539.99,573.48,536.46
		z"/>
	<path class="st1" d="M642.85,499.77c4.62-4.75,10.1-7.97,16.43-9.67c6.33-1.7,12.65-2.56,18.98-2.56l-7.67,23.18
		c-8.64,0-15.42,1.98-20.35,5.93c-4.93,3.96-7.39,10.5-7.39,19.62v47.28h-25.01v-94.74h25.01V499.77z"/>
	<path class="st1" d="M732.83,487.17c5.72,0,10.95,1,15.7,3.01c4.75,2.01,8.88,4.96,12.41,8.85v-43.08h25.19v127.59h-25.19v-10.4
		c-7.67,8.15-16.98,12.23-27.93,12.23c-6.33,0-12.29-1.34-17.89-4.02c-5.6-2.68-10.53-6.3-14.79-10.86
		c-4.26-4.56-7.64-9.86-10.13-15.88c-2.5-6.02-3.74-12.38-3.74-19.07c0-6.69,1.21-12.99,3.65-18.89c2.43-5.9,5.75-11.04,9.95-15.42
		c4.2-4.38,9.13-7.82,14.79-10.31C720.51,488.42,726.51,487.17,732.83,487.17z M760.94,536.28c0-3.65-0.64-7.09-1.92-10.31
		c-1.28-3.22-3.01-6.02-5.2-8.4c-2.19-2.37-4.78-4.23-7.76-5.57c-2.98-1.34-6.24-2.01-9.77-2.01c-3.53,0-6.79,0.67-9.77,2.01
		c-2.98,1.34-5.57,3.19-7.76,5.57c-2.19,2.37-3.92,5.14-5.2,8.3c-1.28,3.17-1.92,6.63-1.92,10.4c0,3.77,0.61,7.24,1.82,10.4
		c1.22,3.17,2.92,5.9,5.11,8.21c2.19,2.31,4.77,4.14,7.76,5.47c2.98,1.34,6.24,2.01,9.77,2.01c3.53,0,6.81-0.67,9.86-2.01
		c3.04-1.34,5.66-3.16,7.85-5.47c2.19-2.31,3.92-5.08,5.2-8.31C760.31,543.37,760.94,539.93,760.94,536.28z"/>
	<path class="st1" d="M821.36,554.89c2.07,2.92,5.14,5.29,9.22,7.12c4.08,1.82,8.42,2.74,13.05,2.74c4.5,0,8.3-0.88,11.41-2.65
		c3.1-1.76,4.65-3.86,4.65-6.3c0-2.19-1.31-4.04-3.92-5.57c-2.62-1.52-5.84-2.98-9.67-4.38c-3.83-1.4-8.03-2.89-12.59-4.47
		c-4.56-1.58-8.76-3.5-12.59-5.75c-3.83-2.25-7.06-5.02-9.67-8.31c-2.62-3.28-3.92-7.36-3.92-12.23c0-4.13,0.97-7.94,2.92-11.41
		c1.94-3.47,4.62-6.48,8.03-9.04c3.4-2.56,7.48-4.53,12.23-5.93c4.75-1.4,9.86-2.1,15.33-2.1c9,0,16.91,1.82,23.73,5.48
		c6.81,3.65,11.5,8.58,14.06,14.79l-15.88,9.49c-1.58-3.04-4.2-5.41-7.85-7.12c-3.65-1.7-7.97-2.56-12.96-2.56
		c-4.63,0-8.37,0.73-11.23,2.19c-2.86,1.46-4.29,3.41-4.29,5.84c0,1.71,1.31,3.2,3.92,4.47c2.62,1.28,5.93,2.56,9.95,3.83
		c4.02,1.28,8.3,2.71,12.87,4.29c4.56,1.58,8.85,3.59,12.87,6.02c4.02,2.44,7.33,5.42,9.95,8.94c2.62,3.53,3.92,7.85,3.92,12.96
		c0,4.38-1,8.43-3.01,12.14c-2.01,3.71-4.81,6.94-8.4,9.67c-3.59,2.74-7.85,4.87-12.78,6.39c-4.93,1.52-10.31,2.28-16.15,2.28
		c-9.13,0-17.31-1.82-24.55-5.48c-7.24-3.65-12.63-8.58-16.15-14.79L821.36,554.89z"/>
</g>
<g class="st2">
	<path class="st3" d="M808.52,306.55h-9.43v-3.4h22.96v3.4h-9.48v27.6h-4.05V306.55z"/>
	<path class="st3" d="M851.63,320.53c-0.23-4.32-0.51-9.52-0.46-13.39h-0.14c-1.06,3.63-2.35,7.5-3.91,11.78l-5.47,15.04h-3.04
		l-5.01-14.77c-1.47-4.37-2.71-8.37-3.59-12.05h-0.09c-0.09,3.86-0.32,9.06-0.6,13.71l-0.83,13.3h-3.82l2.16-31.01h5.11l5.29,15
		c1.29,3.82,2.35,7.22,3.13,10.44h0.14c0.78-3.13,1.89-6.53,3.27-10.44l5.52-15h5.11l1.93,31.01h-3.91L851.63,320.53z"/>
</g>
</svg>
