<?xml version="1.0" encoding="utf-8"?>
<!-- Generator: Adobe Illustrator 27.1.1, SVG Export Plug-In . SVG Version: 6.00 Build 0)  -->
<svg version="1.1" id="Layer_1" xmlns="http://www.w3.org/2000/svg" xmlns:xlink="http://www.w3.org/1999/xlink" x="0px" y="0px"
	 viewBox="0 0 1000 1000" style="enable-background:new 0 0 1000 1000;" xml:space="preserve">
<style type="text/css">
	.st0{fill:#CF3C27;}
	.st1{fill:#F5F5F5;}
	.st2{display:none;}
	.st3{display:inline;fill:#F5F5F5;}
</style>
<g>
	<path class="st0" d="M123.41,515.23c0-6.65,1.27-12.91,3.83-18.79c2.55-5.88,6.06-11.01,10.51-15.41
		c4.45-4.39,9.62-7.84,15.5-10.33s12.14-3.74,18.79-3.74c6.77,0,13.09,1.25,18.97,3.74c5.88,2.49,11.01,5.94,15.41,10.33
		c4.39,4.39,7.87,9.5,10.42,15.32c2.55,5.82,3.83,12.11,3.83,18.88c0,6.65-1.28,12.89-3.83,18.7c-2.56,5.82-6,10.87-10.33,15.14
		c-4.34,4.28-9.47,7.66-15.41,10.15c-5.94,2.49-12.29,3.74-19.06,3.74c-6.65,0-12.95-1.25-18.88-3.74
		c-5.94-2.49-11.11-5.91-15.5-10.24c-4.4-4.33-7.87-9.41-10.42-15.23C124.68,527.94,123.41,521.76,123.41,515.23z M196.09,515.23
		c0-3.56-0.62-6.89-1.87-9.98c-1.25-3.09-2.97-5.82-5.17-8.2c-2.2-2.37-4.75-4.25-7.66-5.61c-2.91-1.36-6.03-2.05-9.35-2.05
		c-3.33,0-6.44,0.69-9.35,2.05c-2.91,1.37-5.46,3.24-7.66,5.61c-2.2,2.38-3.92,5.14-5.17,8.28c-1.25,3.15-1.87,6.44-1.87,9.89
		c0,3.45,0.62,6.68,1.87,9.71c1.25,3.03,2.97,5.7,5.17,8.02c2.2,2.32,4.75,4.16,7.66,5.52c2.91,1.37,6.03,2.05,9.35,2.05
		c3.32,0,6.44-0.65,9.35-1.96c2.91-1.3,5.46-3.12,7.66-5.43c2.2-2.32,3.92-5.02,5.17-8.11
		C195.47,521.94,196.09,518.68,196.09,515.23z"/>
	<path class="st0" d="M289.44,466.95c5.34,0,10.3,1.01,14.87,3.03c4.57,2.02,8.52,4.75,11.85,8.19c3.33,3.45,5.94,7.54,7.84,12.29
		c1.9,4.75,2.85,9.86,2.85,15.32v55.4h-24.41v-53.98c0-5.1-1.75-9.29-5.25-12.56c-3.51-3.27-7.93-4.9-13.27-4.9
		c-2.85,0-5.49,0.51-7.93,1.51c-2.44,1.01-4.54,2.41-6.33,4.19c-1.78,1.78-3.18,3.89-4.19,6.32c-1.01,2.44-1.51,5.08-1.51,7.93
		v51.48h-24.58v-92.63h24.58v9.62c2.73-3.56,6.33-6.32,10.78-8.28C279.19,467.93,284.09,466.95,289.44,466.95z"/>
	<path class="st1" d="M427.14,470.34l17.64,46.5l17.99-48.1h26.19l-35.09,92.63h-18.7l-18.71-50.24l-18.88,50.24h-18.88
		l-34.92-92.63h26.19l18.17,48.1l17.1-46.5H427.14z"/>
	<path class="st1" d="M500,515.23c0-6.65,1.27-12.91,3.83-18.79c2.55-5.88,6.06-11.01,10.51-15.41c4.45-4.39,9.62-7.84,15.5-10.33
		s12.14-3.74,18.79-3.74c6.77,0,13.09,1.25,18.97,3.74c5.88,2.49,11.01,5.94,15.41,10.33c4.39,4.39,7.87,9.5,10.42,15.32
		c2.55,5.82,3.83,12.11,3.83,18.88c0,6.65-1.28,12.89-3.83,18.7c-2.56,5.82-6,10.87-10.33,15.14c-4.34,4.28-9.47,7.66-15.41,10.15
		c-5.94,2.49-12.29,3.74-19.06,3.74c-6.65,0-12.95-1.25-18.88-3.74c-5.94-2.49-11.11-5.91-15.5-10.24
		c-4.39-4.33-7.87-9.41-10.42-15.23C501.28,527.94,500,521.76,500,515.23z M572.68,515.23c0-3.56-0.62-6.89-1.87-9.98
		c-1.25-3.09-2.97-5.82-5.17-8.2c-2.2-2.37-4.75-4.25-7.66-5.61c-2.91-1.36-6.03-2.05-9.35-2.05c-3.33,0-6.44,0.69-9.35,2.05
		c-2.91,1.37-5.46,3.24-7.66,5.61c-2.2,2.38-3.92,5.14-5.17,8.28c-1.25,3.15-1.87,6.44-1.87,9.89c0,3.45,0.62,6.68,1.87,9.71
		c1.25,3.03,2.97,5.7,5.17,8.02c2.2,2.32,4.75,4.16,7.66,5.52c2.91,1.37,6.03,2.05,9.35,2.05c3.32,0,6.44-0.65,9.35-1.96
		c2.91-1.3,5.46-3.12,7.66-5.43c2.2-2.32,3.92-5.02,5.17-8.11C572.06,521.94,572.68,518.68,572.68,515.23z"/>
	<path class="st1" d="M640.38,479.42c4.51-4.63,9.86-7.78,16.03-9.44c6.17-1.66,12.35-2.49,18.53-2.49l-7.48,22.62
		c-8.43,0-15.05,1.93-19.86,5.79c-4.81,3.86-7.22,10.24-7.22,19.15v46.14h-24.41v-92.46h24.41V479.42z"/>
	<path class="st1" d="M728.2,467.13c5.58,0,10.69,0.98,15.32,2.94c4.63,1.96,8.67,4.84,12.11,8.64v-42.04h24.58v124.52h-24.58
		v-10.15c-7.48,7.96-16.57,11.94-27.26,11.94c-6.18,0-12-1.31-17.46-3.92c-5.46-2.61-10.27-6.15-14.43-10.6
		c-4.16-4.45-7.45-9.62-9.89-15.5c-2.44-5.88-3.65-12.08-3.65-18.62c0-6.53,1.18-12.68,3.56-18.44c2.37-5.76,5.61-10.78,9.71-15.05
		c4.1-4.28,8.91-7.63,14.43-10.07C716.17,468.35,722.02,467.13,728.2,467.13z M755.63,515.05c0-3.56-0.62-6.92-1.87-10.06
		c-1.25-3.15-2.94-5.88-5.08-8.2c-2.14-2.32-4.66-4.13-7.57-5.43c-2.91-1.31-6.09-1.96-9.53-1.96c-3.45,0-6.62,0.65-9.53,1.96
		c-2.91,1.31-5.43,3.12-7.57,5.43c-2.14,2.32-3.83,5.02-5.08,8.11c-1.25,3.09-1.87,6.47-1.87,10.15c0,3.68,0.59,7.07,1.78,10.15
		c1.19,3.09,2.85,5.76,4.99,8.02c2.14,2.26,4.66,4.04,7.57,5.34c2.91,1.31,6.09,1.96,9.53,1.96c3.44,0,6.65-0.65,9.62-1.96
		c2.97-1.3,5.52-3.09,7.66-5.34c2.14-2.25,3.83-4.96,5.08-8.11C755.01,521.97,755.63,518.62,755.63,515.05z"/>
	<path class="st1" d="M814.6,533.22c2.02,2.85,5.02,5.17,9,6.95c3.98,1.78,8.22,2.67,12.74,2.67c4.39,0,8.11-0.86,11.13-2.58
		c3.03-1.72,4.54-3.77,4.54-6.15c0-2.14-1.28-3.95-3.83-5.43c-2.56-1.48-5.7-2.91-9.44-4.28c-3.74-1.36-7.84-2.82-12.29-4.36
		c-4.45-1.54-8.55-3.41-12.29-5.61c-3.74-2.2-6.89-4.9-9.44-8.11c-2.56-3.21-3.83-7.18-3.83-11.94c0-4.04,0.95-7.75,2.85-11.13
		c1.9-3.38,4.51-6.32,7.84-8.82c3.32-2.49,7.3-4.42,11.94-5.79c4.63-1.36,9.62-2.05,14.96-2.05c8.79,0,16.51,1.78,23.16,5.34
		c6.65,3.56,11.22,8.37,13.72,14.43l-15.5,9.26c-1.54-2.97-4.1-5.28-7.66-6.95c-3.56-1.66-7.78-2.49-12.65-2.49
		c-4.51,0-8.17,0.71-10.96,2.14c-2.79,1.42-4.19,3.33-4.19,5.7c0,1.67,1.27,3.12,3.83,4.36c2.55,1.25,5.79,2.49,9.71,3.74
		c3.92,1.25,8.11,2.64,12.56,4.19c4.45,1.55,8.64,3.51,12.56,5.88c3.92,2.38,7.15,5.29,9.71,8.73c2.55,3.45,3.83,7.66,3.83,12.65
		c0,4.28-0.98,8.23-2.94,11.85c-1.96,3.62-4.69,6.77-8.2,9.44c-3.5,2.67-7.66,4.75-12.47,6.24c-4.81,1.48-10.06,2.23-15.77,2.23
		c-8.91,0-16.89-1.78-23.96-5.34c-7.07-3.56-12.32-8.37-15.77-14.43L814.6,533.22z"/>
</g>
<g class="st2">
	<path class="st3" d="M808.19,306.55h-9.43v-3.4h22.96v3.4h-9.48v27.6h-4.05V306.55z"/>
	<path class="st3" d="M851.29,320.53c-0.23-4.32-0.51-9.52-0.46-13.39h-0.14c-1.06,3.63-2.35,7.5-3.91,11.78l-5.47,15.04h-3.04
		l-5.01-14.77c-1.47-4.37-2.71-8.37-3.59-12.05h-0.09c-0.09,3.86-0.32,9.06-0.6,13.71l-0.83,13.3h-3.82l2.16-31.01h5.11l5.29,15
		c1.29,3.82,2.35,7.22,3.13,10.44h0.14c0.78-3.13,1.89-6.53,3.27-10.44l5.52-15h5.11l1.93,31.01h-3.91L851.29,320.53z"/>
</g>
</svg>
