<svg width="63" height="63" viewBox="0 0 63 63" fill="none" xmlns="http://www.w3.org/2000/svg">
<path d="M0 62.7402L4.41797 46.6299C1.68848 41.9199 0.253906 36.5625 0.253906 31.0908C0.266602 13.9395 14.2188 0 31.3574 0C39.6729 0 47.4932 3.2373 53.3584 9.11523C59.2363 14.9932 62.4736 22.8008 62.4609 31.1162C62.4482 48.2549 48.4961 62.207 31.3574 62.207H31.3447C26.1396 62.207 21.0234 60.8994 16.4785 58.4238L0 62.7402Z" fill="#20B038"/>
<path fill-rule="evenodd" clip-rule="evenodd" d="M23.3281 17.4124C22.7188 16.0667 22.084 16.0413 21.5127 16.0159C21.043 15.9905 20.5098 16.0032 19.9639 16.0032C19.4307 16.0032 18.5547 16.2063 17.8184 17.0061C17.082 17.8059 15 19.761 15 23.7219C15 27.6829 17.8818 31.5168 18.2881 32.05C18.6943 32.5833 23.8613 40.9749 32.0371 44.1995C38.8418 46.8782 40.2256 46.345 41.6982 46.218C43.1709 46.0911 46.459 44.2756 47.1318 42.3967C47.8047 40.5178 47.8047 38.9055 47.6016 38.5754C47.3984 38.2454 46.8652 38.0422 46.0527 37.636C45.2529 37.2297 41.292 35.2874 40.5557 35.0207C39.8193 34.7541 39.2861 34.6145 38.7402 35.427C38.207 36.2268 36.6582 38.0422 36.1885 38.5754C35.7187 39.1086 35.249 39.1848 34.4492 38.7786C33.6494 38.3723 31.0469 37.5217 27.9746 34.7795C25.5752 32.6467 23.9629 30.0061 23.4932 29.2063C23.0234 28.4065 23.4424 27.9622 23.8486 27.5686C24.2041 27.2131 24.6484 26.6291 25.0547 26.1594C25.4609 25.6897 25.5879 25.3596 25.8545 24.8137C26.1211 24.2805 25.9941 23.8108 25.791 23.4045C25.6133 22.9856 24.0518 19.012 23.3281 17.4124Z" fill="white"/>
</svg>
